{"glyphs":{"0":{"ha":969,"x_min":75,"x_max":894,"o":"m 485 -19 q 265 47 356 -19 q 124 228 173 113 q 75 494 75 344 q 127 756 75 644 q 272 930 179 868 q 485 992 364 992 q 700 930 608 992 q 843 756 792 868 q 894 494 894 644 q 846 228 894 344 q 706 47 797 113 q 485 -19 614 -19 m 485 100 q 631 146 571 100 q 723 280 691 192 q 754 494 754 368 q 681 778 754 684 q 485 872 608 872 q 292 778 368 872 q 215 494 215 684 q 247 280 215 368 q 339 146 278 192 q 485 100 399 100 z "},"1":{"ha":453,"x_min":47,"x_max":342,"o":"m 214 0 l 214 782 q 131 724 164 742 q 69 697 99 707 l 47 821 q 124 857 85 833 q 197 910 163 880 q 251 972 231 940 l 342 972 l 342 0 l 214 0 z "},"2":{"ha":728,"x_min":79,"x_max":654,"o":"m 79 1 l 344 404 q 419 524 388 470 q 467 625 451 578 q 483 713 483 671 q 443 827 483 785 q 332 869 402 869 q 204 840 263 869 q 96 760 145 810 l 79 899 q 195 965 127 938 q 346 993 263 993 q 495 958 435 993 q 586 862 556 922 q 617 726 617 801 q 599 604 617 662 q 547 483 582 546 q 461 343 513 421 l 314 121 l 654 121 l 654 1 l 79 1 z "},"3":{"ha":751,"x_min":56,"x_max":668,"o":"m 333 -19 q 184 1 253 -19 q 56 54 115 22 l 88 176 q 205 121 147 142 q 335 100 263 100 q 477 145 426 100 q 528 263 528 191 q 472 392 528 343 q 299 440 417 440 l 238 440 l 238 560 l 299 560 q 441 602 388 560 q 493 718 493 644 q 453 834 493 797 q 338 872 413 872 q 227 849 278 872 q 126 793 176 826 l 104 928 q 220 975 158 958 q 356 992 282 992 q 509 959 446 992 q 605 868 572 926 q 638 735 638 810 q 582 575 638 640 q 433 490 527 510 l 433 522 q 606 439 544 501 q 668 267 668 376 q 624 114 668 178 q 504 15 580 49 q 333 -19 428 -19 z "},"4":{"ha":803,"x_min":28,"x_max":765,"o":"m 507 0 l 507 251 l 28 251 l 544 972 l 640 972 l 640 364 l 765 364 l 765 251 l 640 251 l 640 0 l 507 0 m 222 326 l 199 364 l 507 364 l 507 799 l 531 760 l 222 326 z "},"5":{"ha":751,"x_min":71,"x_max":688,"o":"m 342 -19 q 194 1 265 -19 q 71 54 123 21 l 103 176 q 210 128 154 149 q 335 108 265 108 q 485 161 428 108 q 543 301 543 213 q 481 453 543 401 q 318 506 418 506 q 218 498 265 506 q 122 478 172 490 l 182 972 l 640 972 l 635 847 l 290 847 l 254 543 l 225 600 q 291 610 256 606 q 361 614 326 614 q 538 573 465 614 q 649 462 610 533 q 688 301 688 391 q 642 131 688 203 q 518 20 597 59 q 342 -19 440 -19 z "},"6":{"ha":789,"x_min":86,"x_max":729,"o":"m 410 -19 q 235 26 308 -19 q 124 153 163 72 q 86 342 86 234 q 124 557 86 456 q 225 741 162 658 q 364 888 288 825 q 517 992 440 951 l 607 907 q 488 834 545 876 q 382 741 431 792 q 298 631 334 690 q 241 504 261 571 q 221 364 221 437 l 176 439 q 279 544 210 506 q 440 583 348 583 q 590 545 525 583 q 692 440 656 506 q 729 289 729 373 q 689 129 729 199 q 577 20 649 60 q 410 -19 505 -19 m 410 94 q 543 150 493 94 q 593 285 593 205 q 543 416 593 363 q 410 469 493 469 q 276 416 326 469 q 225 283 225 363 q 276 148 225 201 q 410 94 326 94 z "},"7":{"ha":699,"x_min":56,"x_max":685,"o":"m 125 0 l 517 907 l 553 847 l 56 847 l 56 972 l 685 972 l 264 0 l 125 0 z "},"8":{"ha":842,"x_min":83,"x_max":758,"o":"m 421 -19 q 241 18 317 -19 q 124 123 165 56 q 83 278 83 190 q 126 435 83 368 q 244 540 168 503 q 421 578 320 578 q 598 540 522 578 q 716 435 674 503 q 758 278 758 368 q 717 123 758 190 q 600 18 676 56 q 421 -19 524 -19 m 421 100 q 569 149 517 100 q 622 278 622 198 q 569 415 622 361 q 421 469 517 469 q 272 415 325 469 q 219 278 219 361 q 272 149 219 198 q 421 100 325 100 m 421 476 q 273 509 340 476 q 167 598 207 541 q 128 729 128 655 q 158 853 128 793 q 252 953 188 914 q 421 992 317 992 q 588 953 525 992 q 680 853 651 914 q 708 729 708 793 q 673 598 708 655 q 573 509 638 541 q 421 476 508 476 m 421 585 q 537 627 498 585 q 576 729 576 670 q 537 833 576 793 q 421 872 498 872 q 302 833 344 872 q 260 729 260 793 q 302 627 260 670 q 421 585 344 585 z "},"9":{"ha":789,"x_min":60,"x_max":703,"o":"m 286 0 l 196 85 q 308 155 253 115 q 410 244 363 194 q 492 351 457 294 q 548 473 528 408 q 568 608 568 538 l 613 533 q 510 428 579 467 q 349 389 442 389 q 199 427 264 389 q 97 533 133 466 q 60 683 60 599 q 100 843 60 774 q 212 952 140 913 q 379 992 284 992 q 554 946 481 992 q 665 819 626 901 q 703 631 703 738 q 666 422 703 519 q 568 243 629 324 q 434 101 508 163 q 286 0 360 39 m 379 503 q 513 556 463 503 q 564 689 564 610 q 513 825 564 772 q 379 878 463 878 q 246 823 296 878 q 196 688 196 768 q 246 556 196 610 q 379 503 296 503 z "},"A":{"ha":856,"x_min":10,"x_max":846,"o":"m 636 263 l 219 263 l 219 382 l 636 382 l 636 263 m 408 843 l 447 843 l 149 0 l 10 0 l 358 972 l 497 972 l 846 0 l 707 0 l 408 843 z "},"Á":{"ha":856,"x_min":10,"x_max":846,"o":"m 636 263 l 219 263 l 219 382 l 636 382 l 636 263 m 408 843 l 447 843 l 149 0 l 10 0 l 358 972 l 497 972 l 846 0 l 707 0 l 408 843 m 299 1061 l 299 1142 l 558 1274 l 558 1142 l 299 1061 z "},"Ă":{"ha":856,"x_min":10,"x_max":846,"o":"m 636 263 l 219 263 l 219 382 l 636 382 l 636 263 m 408 843 l 447 843 l 149 0 l 10 0 l 358 972 l 497 972 l 846 0 l 707 0 l 408 843 m 428 1061 q 314 1085 358 1061 q 247 1147 269 1108 q 225 1228 225 1185 l 336 1228 q 363 1167 336 1188 q 428 1147 390 1147 q 492 1167 465 1147 q 519 1228 519 1188 l 631 1228 q 609 1147 631 1185 q 542 1085 587 1108 q 428 1061 497 1061 z "},"Ắ":{"ha":856,"x_min":10,"x_max":846,"o":"m 636 263 l 219 263 l 219 382 l 636 382 l 636 263 m 408 843 l 447 843 l 149 0 l 10 0 l 358 972 l 497 972 l 846 0 l 707 0 l 408 843 m 428 1061 q 314 1085 358 1061 q 247 1147 269 1108 q 225 1228 225 1185 l 336 1228 q 363 1167 336 1188 q 428 1147 390 1147 q 492 1167 465 1147 q 519 1228 519 1188 l 631 1228 q 609 1147 631 1185 q 542 1085 587 1108 q 428 1061 497 1061 m 299 1289 l 299 1369 l 558 1501 l 558 1369 l 299 1289 z "},"Ặ":{"ha":856,"x_min":10,"x_max":846,"o":"m 636 263 l 219 263 l 219 382 l 636 382 l 636 263 m 408 843 l 447 843 l 149 0 l 10 0 l 358 972 l 497 972 l 846 0 l 707 0 l 408 843 m 428 1092 q 314 1117 358 1092 q 247 1182 269 1142 q 225 1268 225 1222 l 336 1268 q 363 1205 336 1226 q 428 1183 390 1183 q 492 1205 465 1183 q 519 1268 519 1226 l 631 1268 q 609 1182 631 1222 q 542 1117 587 1142 q 428 1092 497 1092 z "},"Ằ":{"ha":856,"x_min":10,"x_max":846,"o":"m 636 263 l 219 263 l 219 382 l 636 382 l 636 263 m 408 843 l 447 843 l 149 0 l 10 0 l 358 972 l 497 972 l 846 0 l 707 0 l 408 843 m 428 1060 q 314 1083 358 1060 q 247 1145 269 1107 q 225 1226 225 1183 l 336 1226 q 363 1166 336 1186 q 428 1146 390 1146 q 492 1166 465 1146 q 519 1226 519 1186 l 631 1226 q 609 1145 631 1183 q 542 1083 587 1107 q 428 1060 497 1060 m 557 1288 l 297 1368 l 297 1500 l 557 1368 l 557 1288 z "},"Ẳ":{"ha":856,"x_min":10,"x_max":846,"o":"m 636 263 l 219 263 l 219 382 l 636 382 l 636 263 m 408 843 l 447 843 l 149 0 l 10 0 l 358 972 l 497 972 l 846 0 l 707 0 l 408 843 m 428 1061 q 314 1085 358 1061 q 247 1147 269 1108 q 225 1228 225 1185 l 336 1228 q 363 1167 336 1188 q 428 1147 390 1147 q 492 1167 465 1147 q 519 1228 519 1188 l 631 1228 q 609 1147 631 1185 q 542 1085 587 1108 q 428 1061 497 1061 m 440 1250 l 428 1306 q 464 1327 452 1314 q 476 1360 476 1340 q 461 1393 476 1383 q 419 1404 446 1404 q 376 1397 398 1404 q 332 1378 354 1390 l 308 1449 q 359 1468 331 1461 q 419 1475 388 1475 q 517 1447 477 1475 q 557 1368 557 1419 q 530 1293 557 1322 q 440 1250 502 1264 z "},"Ẵ":{"ha":856,"x_min":10,"x_max":846,"o":"m 636 263 l 219 263 l 219 382 l 636 382 l 636 263 m 408 843 l 447 843 l 149 0 l 10 0 l 358 972 l 497 972 l 846 0 l 707 0 l 408 843 m 428 1061 q 314 1085 358 1061 q 247 1147 269 1108 q 225 1228 225 1185 l 336 1228 q 363 1167 336 1188 q 428 1147 390 1147 q 492 1167 465 1147 q 519 1228 519 1188 l 631 1228 q 609 1147 631 1185 q 542 1085 587 1108 q 428 1061 497 1061 m 543 1293 q 476 1307 511 1293 q 408 1336 441 1322 q 349 1350 375 1350 q 301 1300 301 1350 l 211 1300 q 238 1403 211 1368 q 313 1439 265 1439 q 380 1425 344 1439 q 448 1396 415 1410 q 507 1382 481 1382 q 554 1432 554 1382 l 644 1432 q 618 1329 644 1365 q 543 1293 591 1293 z "},"Â":{"ha":856,"x_min":10,"x_max":846,"o":"m 636 263 l 219 263 l 219 382 l 636 382 l 636 263 m 408 843 l 447 843 l 149 0 l 10 0 l 358 972 l 497 972 l 846 0 l 707 0 l 408 843 m 251 1046 l 251 1131 l 428 1256 l 604 1131 l 604 1046 l 428 1138 l 251 1046 z "},"Ấ":{"ha":856,"x_min":10,"x_max":846,"o":"m 636 263 l 219 263 l 219 382 l 636 382 l 636 263 m 408 843 l 447 843 l 149 0 l 10 0 l 358 972 l 497 972 l 846 0 l 707 0 l 408 843 m 251 1046 l 251 1131 l 428 1256 l 604 1131 l 604 1046 l 428 1138 l 251 1046 m 532 1249 l 624 1411 l 760 1411 l 624 1249 l 532 1249 z "},"Ậ":{"ha":856,"x_min":10,"x_max":846,"o":"m 636 263 l 219 263 l 219 382 l 636 382 l 636 263 m 408 843 l 447 843 l 149 0 l 10 0 l 358 972 l 497 972 l 846 0 l 707 0 l 408 843 m 251 1075 l 251 1160 l 428 1313 l 604 1160 l 604 1075 l 428 1186 l 251 1075 z "},"Ầ":{"ha":856,"x_min":10,"x_max":846,"o":"m 636 263 l 219 263 l 219 382 l 636 382 l 636 263 m 408 843 l 447 843 l 149 0 l 10 0 l 358 972 l 497 972 l 846 0 l 707 0 l 408 843 m 251 1046 l 251 1131 l 428 1256 l 604 1131 l 604 1046 l 428 1138 l 251 1046 m 551 1249 l 431 1411 l 563 1411 l 640 1249 l 551 1249 z "},"Ẩ":{"ha":856,"x_min":10,"x_max":846,"o":"m 636 263 l 219 263 l 219 382 l 636 382 l 636 263 m 408 843 l 447 843 l 149 0 l 10 0 l 358 972 l 497 972 l 846 0 l 707 0 l 408 843 m 251 1046 l 251 1131 l 428 1256 l 604 1131 l 604 1046 l 428 1138 l 251 1046 m 561 1211 l 549 1267 q 585 1288 573 1275 q 597 1321 597 1301 q 582 1355 597 1344 q 540 1365 567 1365 q 497 1358 519 1365 q 453 1339 475 1351 l 429 1410 q 480 1429 452 1422 q 540 1436 508 1436 q 638 1408 598 1436 q 678 1329 678 1381 q 650 1254 678 1283 q 561 1211 623 1225 z "},"Ẫ":{"ha":856,"x_min":10,"x_max":846,"o":"m 636 263 l 219 263 l 219 382 l 636 382 l 636 263 m 408 843 l 447 843 l 149 0 l 10 0 l 358 972 l 497 972 l 846 0 l 707 0 l 408 843 m 251 1046 l 251 1131 l 428 1256 l 604 1131 l 604 1046 l 428 1138 l 251 1046 m 543 1313 q 476 1327 511 1313 q 408 1355 441 1341 q 349 1369 375 1369 q 301 1319 301 1369 l 211 1319 q 238 1423 211 1388 q 313 1458 265 1458 q 380 1444 344 1458 q 448 1416 415 1430 q 507 1401 481 1401 q 554 1451 554 1401 l 644 1451 q 618 1348 644 1384 q 543 1313 591 1313 z "},"Ȁ":{"ha":856,"x_min":10,"x_max":846,"o":"m 636 263 l 219 263 l 219 382 l 636 382 l 636 263 m 408 843 l 447 843 l 149 0 l 10 0 l 358 972 l 497 972 l 846 0 l 707 0 l 408 843 m 572 1094 l 481 1094 l 356 1299 l 492 1299 l 572 1094 m 378 1094 l 286 1094 l 154 1299 l 290 1299 l 378 1094 z "},"Ä":{"ha":856,"x_min":10,"x_max":846,"o":"m 636 263 l 219 263 l 219 382 l 636 382 l 636 263 m 408 843 l 447 843 l 149 0 l 10 0 l 358 972 l 497 972 l 846 0 l 707 0 l 408 843 m 235 1103 l 235 1207 l 354 1207 l 354 1103 l 235 1103 m 501 1103 l 501 1207 l 621 1207 l 621 1103 l 501 1103 z "},"Ạ":{"ha":856,"x_min":10,"x_max":846,"o":"m 636 263 l 219 263 l 219 382 l 636 382 l 636 263 m 408 843 l 447 843 l 149 0 l 10 0 l 358 972 l 497 972 l 846 0 l 707 0 l 408 843 z "},"À":{"ha":856,"x_min":10,"x_max":846,"o":"m 636 263 l 219 263 l 219 382 l 636 382 l 636 263 m 408 843 l 447 843 l 149 0 l 10 0 l 358 972 l 497 972 l 846 0 l 707 0 l 408 843 m 557 1061 l 297 1142 l 297 1274 l 557 1142 l 557 1061 z "},"Ả":{"ha":856,"x_min":10,"x_max":846,"o":"m 636 263 l 219 263 l 219 382 l 636 382 l 636 263 m 408 843 l 447 843 l 149 0 l 10 0 l 358 972 l 497 972 l 846 0 l 707 0 l 408 843 m 426 1056 l 414 1111 q 450 1133 438 1119 q 463 1165 463 1146 q 447 1199 463 1188 q 406 1210 432 1210 q 362 1202 384 1210 q 318 1183 340 1195 l 294 1254 q 345 1274 317 1267 q 406 1281 374 1281 q 503 1253 463 1281 q 543 1174 543 1225 q 516 1099 543 1128 q 426 1056 488 1069 z "},"Ȃ":{"ha":856,"x_min":10,"x_max":846,"o":"m 636 263 l 219 263 l 219 382 l 636 382 l 636 263 m 408 843 l 447 843 l 149 0 l 10 0 l 358 972 l 497 972 l 846 0 l 707 0 l 408 843 m 428 1249 q 542 1225 497 1249 q 609 1163 587 1201 q 631 1082 631 1125 l 519 1082 q 492 1143 519 1123 q 428 1163 465 1163 q 363 1143 390 1163 q 336 1082 336 1123 l 225 1082 q 247 1163 225 1125 q 314 1225 269 1201 q 428 1249 358 1249 z "},"Ā":{"ha":856,"x_min":10,"x_max":846,"o":"m 636 263 l 219 263 l 219 382 l 636 382 l 636 263 m 408 843 l 447 843 l 149 0 l 10 0 l 358 972 l 497 972 l 846 0 l 707 0 l 408 843 m 206 1101 l 206 1196 l 650 1196 l 650 1101 l 206 1101 z "},"Ą":{"ha":856,"x_min":10,"x_max":886,"o":"m 636 263 l 219 263 l 219 382 l 636 382 l 636 263 m 408 843 l 447 843 l 149 0 l 10 0 l 358 972 l 497 972 l 846 0 l 707 0 l 408 843 m 746 0 l 819 0 q 741 -73 771 -37 q 711 -147 711 -108 q 730 -200 711 -183 q 778 -218 748 -218 q 823 -212 802 -218 q 865 -194 844 -206 l 886 -262 q 838 -281 867 -273 q 771 -289 808 -289 q 672 -258 713 -289 q 631 -169 631 -228 q 667 -69 631 -114 q 746 0 704 -24 z "},"Å":{"ha":856,"x_min":10,"x_max":846,"o":"m 636 263 l 219 263 l 219 382 l 636 382 l 636 263 m 408 843 l 447 843 l 149 0 l 10 0 l 358 972 l 497 972 l 846 0 l 707 0 l 408 843 m 428 1050 q 320 1092 356 1050 q 283 1186 283 1133 q 320 1280 283 1238 q 428 1322 357 1322 q 536 1280 500 1322 q 572 1186 572 1238 q 536 1092 572 1133 q 428 1050 501 1050 m 428 1111 q 480 1131 457 1111 q 503 1186 503 1151 q 481 1240 503 1219 q 428 1261 458 1261 q 375 1240 398 1261 q 353 1186 353 1219 q 376 1131 353 1151 q 428 1111 399 1111 z "},"Ǻ":{"ha":856,"x_min":10,"x_max":846,"o":"m 636 263 l 219 263 l 219 382 l 636 382 l 636 263 m 408 843 l 447 843 l 149 0 l 10 0 l 358 972 l 497 972 l 846 0 l 707 0 l 408 843 m 428 1050 q 320 1092 356 1050 q 283 1186 283 1133 q 320 1280 283 1238 q 428 1322 357 1322 q 536 1280 500 1322 q 572 1186 572 1238 q 536 1092 572 1133 q 428 1050 501 1050 m 428 1111 q 480 1131 457 1111 q 503 1186 503 1151 q 481 1240 503 1219 q 428 1261 458 1261 q 375 1240 398 1261 q 353 1186 353 1219 q 376 1131 353 1151 q 428 1111 399 1111 m 299 1368 l 299 1449 l 558 1581 l 558 1449 l 299 1368 z "},"Ã":{"ha":856,"x_min":10,"x_max":846,"o":"m 636 263 l 219 263 l 219 382 l 636 382 l 636 263 m 408 843 l 447 843 l 149 0 l 10 0 l 358 972 l 497 972 l 846 0 l 707 0 l 408 843 m 543 1094 q 476 1109 511 1094 q 408 1137 441 1123 q 349 1151 375 1151 q 301 1101 301 1151 l 211 1101 q 238 1205 211 1169 q 313 1240 265 1240 q 380 1226 344 1240 q 448 1198 415 1212 q 507 1183 481 1183 q 554 1233 554 1183 l 644 1233 q 618 1130 644 1166 q 543 1094 591 1094 z "},"Æ":{"ha":1203,"x_min":-10,"x_max":1150,"o":"m -10 0 l 465 972 l 1136 972 l 1136 851 l 703 851 l 703 568 l 1038 568 l 1038 449 l 703 449 l 703 119 l 1150 119 l 1150 0 l 544 0 l 544 849 l 119 0 l -10 0 m 215 250 l 215 378 l 567 378 l 567 250 l 215 250 z "},"Ǽ":{"ha":1203,"x_min":-10,"x_max":1150,"o":"m -10 0 l 465 972 l 1136 972 l 1136 851 l 703 851 l 703 568 l 1038 568 l 1038 449 l 703 449 l 703 119 l 1150 119 l 1150 0 l 544 0 l 544 849 l 119 0 l -10 0 m 215 250 l 215 378 l 567 378 l 567 250 l 215 250 m 672 1061 l 672 1142 l 932 1274 l 932 1142 l 672 1061 z "},"B":{"ha":829,"x_min":111,"x_max":788,"o":"m 111 0 l 111 972 l 418 972 q 623 914 549 972 q 697 735 697 855 q 662 592 697 653 q 556 511 626 530 l 575 533 q 732 452 676 517 q 788 278 788 388 q 705 75 788 150 q 478 0 623 0 l 111 0 m 243 119 l 467 119 q 595 160 547 119 q 643 282 643 200 q 594 411 643 374 q 467 449 545 449 l 243 449 l 243 119 m 243 568 l 401 568 q 517 597 472 568 q 561 711 561 625 q 517 825 561 797 q 401 854 472 854 l 243 854 l 243 568 z "},"C":{"ha":856,"x_min":54,"x_max":810,"o":"m 544 -19 q 292 43 403 -19 q 118 218 181 105 q 54 486 54 332 q 118 754 54 640 q 295 930 183 867 q 550 992 407 992 q 692 976 624 992 q 810 935 759 960 l 796 813 q 681 855 744 838 q 549 872 619 872 q 356 820 434 872 q 239 681 278 769 q 199 486 199 594 q 238 291 199 378 q 355 152 277 203 q 546 100 432 100 q 680 116 618 100 q 796 158 741 131 l 810 36 q 692 -3 758 13 q 544 -19 627 -19 z "},"Ć":{"ha":856,"x_min":54,"x_max":810,"o":"m 544 -19 q 292 43 403 -19 q 118 218 181 105 q 54 486 54 332 q 118 754 54 640 q 295 930 183 867 q 550 992 407 992 q 692 976 624 992 q 810 935 759 960 l 796 813 q 681 855 744 838 q 549 872 619 872 q 356 820 434 872 q 239 681 278 769 q 199 486 199 594 q 238 291 199 378 q 355 152 277 203 q 546 100 432 100 q 680 116 618 100 q 796 158 741 131 l 810 36 q 692 -3 758 13 q 544 -19 627 -19 m 393 1061 l 393 1142 l 653 1274 l 653 1142 l 393 1061 z "},"Č":{"ha":856,"x_min":54,"x_max":810,"o":"m 544 -19 q 292 43 403 -19 q 118 218 181 105 q 54 486 54 332 q 118 754 54 640 q 295 930 183 867 q 550 992 407 992 q 692 976 624 992 q 810 935 759 960 l 796 813 q 681 855 744 838 q 549 872 619 872 q 356 820 434 872 q 239 681 278 769 q 199 486 199 594 q 238 291 199 378 q 355 152 277 203 q 546 100 432 100 q 680 116 618 100 q 796 158 741 131 l 810 36 q 692 -3 758 13 q 544 -19 627 -19 z "},"Ç":{"ha":856,"x_min":54,"x_max":810,"o":"m 544 -19 q 292 43 403 -19 q 118 218 181 105 q 54 486 54 332 q 118 754 54 640 q 295 930 183 867 q 550 992 407 992 q 692 976 624 992 q 810 935 759 960 l 796 813 q 681 855 744 838 q 549 872 619 872 q 356 820 434 872 q 239 681 278 769 q 199 486 199 594 q 238 291 199 378 q 355 152 277 203 q 546 100 432 100 q 680 116 618 100 q 796 158 741 131 l 810 36 q 692 -3 758 13 q 544 -19 627 -19 m 536 -110 l 490 -89 q 523 -79 507 -83 q 558 -75 540 -75 q 647 -105 615 -75 q 679 -187 679 -135 q 636 -281 679 -249 q 532 -314 594 -314 q 469 -306 497 -314 q 424 -287 442 -298 l 444 -219 q 487 -237 465 -231 q 532 -243 508 -243 q 581 -230 563 -243 q 599 -190 599 -216 q 582 -150 599 -165 q 529 -135 565 -135 q 499 -137 514 -135 q 465 -146 483 -140 l 501 0 l 571 0 l 536 -110 z "},"Ḉ":{"ha":856,"x_min":54,"x_max":810,"o":"m 544 -19 q 292 43 403 -19 q 118 218 181 105 q 54 486 54 332 q 118 754 54 640 q 295 930 183 867 q 550 992 407 992 q 692 976 624 992 q 810 935 759 960 l 796 813 q 681 855 744 838 q 549 872 619 872 q 356 820 434 872 q 239 681 278 769 q 199 486 199 594 q 238 291 199 378 q 355 152 277 203 q 546 100 432 100 q 680 116 618 100 q 796 158 741 131 l 810 36 q 692 -3 758 13 q 544 -19 627 -19 m 536 -110 l 490 -89 q 523 -79 507 -83 q 558 -75 540 -75 q 647 -105 615 -75 q 679 -187 679 -135 q 636 -281 679 -249 q 532 -314 594 -314 q 469 -306 497 -314 q 424 -287 442 -298 l 444 -219 q 487 -237 465 -231 q 532 -243 508 -243 q 581 -230 563 -243 q 599 -190 599 -216 q 582 -150 599 -165 q 529 -135 565 -135 q 499 -137 514 -135 q 465 -146 483 -140 l 501 0 l 571 0 l 536 -110 m 393 1061 l 393 1142 l 653 1274 l 653 1142 l 393 1061 z "},"Ĉ":{"ha":856,"x_min":54,"x_max":810,"o":"m 544 -19 q 292 43 403 -19 q 118 218 181 105 q 54 486 54 332 q 118 754 54 640 q 295 930 183 867 q 550 992 407 992 q 692 976 624 992 q 810 935 759 960 l 796 813 q 681 855 744 838 q 549 872 619 872 q 356 820 434 872 q 239 681 278 769 q 199 486 199 594 q 238 291 199 378 q 355 152 277 203 q 546 100 432 100 q 680 116 618 100 q 796 158 741 131 l 810 36 q 692 -3 758 13 q 544 -19 627 -19 m 346 1046 l 346 1131 l 522 1256 l 699 1131 l 699 1046 l 522 1138 l 346 1046 z "},"Ċ":{"ha":856,"x_min":54,"x_max":810,"o":"m 544 -19 q 292 43 403 -19 q 118 218 181 105 q 54 486 54 332 q 118 754 54 640 q 295 930 183 867 q 550 992 407 992 q 692 976 624 992 q 810 935 759 960 l 796 813 q 681 855 744 838 q 549 872 619 872 q 356 820 434 872 q 239 681 278 769 q 199 486 199 594 q 238 291 199 378 q 355 152 277 203 q 546 100 432 100 q 680 116 618 100 q 796 158 741 131 l 810 36 q 692 -3 758 13 q 544 -19 627 -19 m 456 1099 l 456 1224 l 589 1224 l 589 1099 l 456 1099 z "},"D":{"ha":1010,"x_min":111,"x_max":954,"o":"m 111 0 l 111 972 l 471 972 q 721 915 612 972 q 892 748 830 857 q 954 486 954 640 q 892 224 954 333 q 721 58 830 115 q 471 0 612 0 l 111 0 m 243 119 l 471 119 q 657 166 582 119 q 771 294 733 212 q 810 486 810 377 q 771 678 810 595 q 657 807 733 760 q 471 853 582 853 l 243 853 l 243 119 z "},"Ǆ":{"ha":1743,"x_min":111,"x_max":1733,"o":"m 111 0 l 111 972 l 471 972 q 721 915 612 972 q 892 748 830 857 q 954 486 954 640 q 892 224 954 333 q 721 58 830 115 q 471 0 612 0 l 111 0 m 243 119 l 471 119 q 657 166 582 119 q 771 294 733 212 q 810 486 810 377 q 771 678 810 595 q 657 807 733 760 q 471 853 582 853 l 243 853 l 243 119 z "},"Ð":{"ha":1013,"x_min":25,"x_max":957,"o":"m 122 0 l 122 435 l 25 435 l 25 551 l 122 551 l 122 972 l 478 972 q 725 915 617 972 q 895 748 833 857 q 957 486 957 640 q 895 224 957 333 q 725 58 833 115 q 478 0 617 0 l 122 0 m 247 121 l 478 121 q 731 221 646 121 q 815 486 815 321 q 731 752 815 652 q 478 853 646 853 l 247 853 l 247 551 l 432 551 l 432 435 l 247 435 l 247 121 z "},"Ď":{"ha":1010,"x_min":111,"x_max":954,"o":"m 111 0 l 111 972 l 471 972 q 721 915 612 972 q 892 748 830 857 q 954 486 954 640 q 892 224 954 333 q 721 58 830 115 q 471 0 612 0 l 111 0 m 243 119 l 471 119 q 657 166 582 119 q 771 294 733 212 q 810 486 810 377 q 771 678 810 595 q 657 807 733 760 q 471 853 582 853 l 243 853 l 243 119 z "},"Đ":{"ha":1013,"x_min":25,"x_max":957,"o":"m 122 0 l 122 435 l 25 435 l 25 551 l 122 551 l 122 972 l 478 972 q 725 915 617 972 q 895 748 833 857 q 957 486 957 640 q 895 224 957 333 q 725 58 833 115 q 478 0 617 0 l 122 0 m 247 121 l 478 121 q 731 221 646 121 q 815 486 815 321 q 731 752 815 652 q 478 853 646 853 l 247 853 l 247 551 l 432 551 l 432 435 l 247 435 l 247 121 z "},"Ḍ":{"ha":1010,"x_min":111,"x_max":954,"o":"m 111 0 l 111 972 l 471 972 q 721 915 612 972 q 892 748 830 857 q 954 486 954 640 q 892 224 954 333 q 721 58 830 115 q 471 0 612 0 l 111 0 m 243 119 l 471 119 q 657 166 582 119 q 771 294 733 212 q 810 486 810 377 q 771 678 810 595 q 657 807 733 760 q 471 853 582 853 l 243 853 l 243 119 z "},"Ḏ":{"ha":1010,"x_min":111,"x_max":954,"o":"m 111 0 l 111 972 l 471 972 q 721 915 612 972 q 892 748 830 857 q 954 486 954 640 q 892 224 954 333 q 721 58 830 115 q 471 0 612 0 l 111 0 m 243 119 l 471 119 q 657 166 582 119 q 771 294 733 212 q 810 486 810 377 q 771 678 810 595 q 657 807 733 760 q 471 853 582 853 l 243 853 l 243 119 z "},"ǅ":{"ha":1656,"x_min":111,"x_max":1621,"o":"m 111 0 l 111 972 l 471 972 q 721 915 612 972 q 892 748 830 857 q 954 486 954 640 q 892 224 954 333 q 721 58 830 115 q 471 0 612 0 l 111 0 m 243 119 l 471 119 q 657 166 582 119 q 771 294 733 212 q 810 486 810 377 q 771 678 810 595 q 657 807 733 760 q 471 853 582 853 l 243 853 l 243 119 z "},"E":{"ha":769,"x_min":111,"x_max":717,"o":"m 111 0 l 111 972 l 704 972 l 704 853 l 243 853 l 243 568 l 610 568 l 610 449 l 243 449 l 243 119 l 717 119 l 717 0 l 111 0 z "},"É":{"ha":769,"x_min":111,"x_max":717,"o":"m 111 0 l 111 972 l 704 972 l 704 853 l 243 853 l 243 568 l 610 568 l 610 449 l 243 449 l 243 119 l 717 119 l 717 0 l 111 0 m 293 1061 l 293 1142 l 553 1274 l 553 1142 l 293 1061 z "},"Ĕ":{"ha":769,"x_min":111,"x_max":717,"o":"m 111 0 l 111 972 l 704 972 l 704 853 l 243 853 l 243 568 l 610 568 l 610 449 l 243 449 l 243 119 l 717 119 l 717 0 l 111 0 m 422 1061 q 308 1085 353 1061 q 241 1147 263 1108 q 219 1228 219 1185 l 331 1228 q 358 1167 331 1188 q 422 1147 385 1147 q 487 1167 460 1147 q 514 1228 514 1188 l 625 1228 q 603 1147 625 1185 q 536 1085 581 1108 q 422 1061 492 1061 z "},"Ě":{"ha":769,"x_min":111,"x_max":717,"o":"m 111 0 l 111 972 l 704 972 l 704 853 l 243 853 l 243 568 l 610 568 l 610 449 l 243 449 l 243 119 l 717 119 l 717 0 l 111 0 z "},"Ḝ":{"ha":769,"x_min":111,"x_max":717,"o":"m 111 0 l 111 972 l 704 972 l 704 853 l 243 853 l 243 568 l 610 568 l 610 449 l 243 449 l 243 119 l 717 119 l 717 0 l 111 0 m 429 -110 l 383 -89 q 416 -79 400 -83 q 451 -75 433 -75 q 540 -105 508 -75 q 572 -187 572 -135 q 530 -281 572 -249 q 425 -314 487 -314 q 363 -306 390 -314 q 317 -287 335 -298 l 338 -219 q 380 -237 358 -231 q 425 -243 401 -243 q 474 -230 456 -243 q 492 -190 492 -216 q 475 -150 492 -165 q 422 -135 458 -135 q 392 -137 407 -135 q 358 -146 376 -140 l 394 0 l 464 0 l 429 -110 m 422 1061 q 308 1085 353 1061 q 241 1147 263 1108 q 219 1228 219 1185 l 331 1228 q 358 1167 331 1188 q 422 1147 385 1147 q 487 1167 460 1147 q 514 1228 514 1188 l 625 1228 q 603 1147 625 1185 q 536 1085 581 1108 q 422 1061 492 1061 z "},"Ê":{"ha":769,"x_min":111,"x_max":717,"o":"m 111 0 l 111 972 l 704 972 l 704 853 l 243 853 l 243 568 l 610 568 l 610 449 l 243 449 l 243 119 l 717 119 l 717 0 l 111 0 m 246 1046 l 246 1131 l 422 1256 l 599 1131 l 599 1046 l 422 1138 l 246 1046 z "},"Ế":{"ha":769,"x_min":111,"x_max":754,"o":"m 111 0 l 111 972 l 704 972 l 704 853 l 243 853 l 243 568 l 610 568 l 610 449 l 243 449 l 243 119 l 717 119 l 717 0 l 111 0 m 246 1046 l 246 1131 l 422 1256 l 599 1131 l 599 1046 l 422 1138 l 246 1046 m 526 1249 l 618 1411 l 754 1411 l 618 1249 l 526 1249 z "},"Ệ":{"ha":769,"x_min":111,"x_max":717,"o":"m 111 0 l 111 972 l 704 972 l 704 853 l 243 853 l 243 568 l 610 568 l 610 449 l 243 449 l 243 119 l 717 119 l 717 0 l 111 0 m 246 1046 l 246 1131 l 422 1256 l 599 1131 l 599 1046 l 422 1138 l 246 1046 z "},"Ề":{"ha":769,"x_min":111,"x_max":717,"o":"m 111 0 l 111 972 l 704 972 l 704 853 l 243 853 l 243 568 l 610 568 l 610 449 l 243 449 l 243 119 l 717 119 l 717 0 l 111 0 m 246 1046 l 246 1131 l 422 1256 l 599 1131 l 599 1046 l 422 1138 l 246 1046 m 546 1249 l 425 1411 l 557 1411 l 635 1249 l 546 1249 z "},"Ể":{"ha":769,"x_min":111,"x_max":717,"o":"m 111 0 l 111 972 l 704 972 l 704 853 l 243 853 l 243 568 l 610 568 l 610 449 l 243 449 l 243 119 l 717 119 l 717 0 l 111 0 m 246 1046 l 246 1131 l 422 1256 l 599 1131 l 599 1046 l 422 1138 l 246 1046 m 556 1211 l 543 1267 q 580 1288 567 1275 q 592 1321 592 1301 q 576 1355 592 1344 q 535 1365 561 1365 q 491 1358 513 1365 q 447 1339 469 1351 l 424 1410 q 475 1429 447 1422 q 535 1436 503 1436 q 632 1408 592 1436 q 672 1329 672 1381 q 645 1254 672 1283 q 556 1211 617 1225 z "},"Ễ":{"ha":769,"x_min":111,"x_max":717,"o":"m 111 0 l 111 972 l 704 972 l 704 853 l 243 853 l 243 568 l 610 568 l 610 449 l 243 449 l 243 119 l 717 119 l 717 0 l 111 0 m 246 1046 l 246 1131 l 422 1256 l 599 1131 l 599 1046 l 422 1138 l 246 1046 m 538 1313 q 470 1327 506 1313 q 402 1355 435 1341 q 343 1369 369 1369 q 296 1319 296 1369 l 206 1319 q 232 1423 206 1388 q 307 1458 259 1458 q 374 1444 339 1458 q 442 1416 409 1430 q 501 1401 475 1401 q 549 1451 549 1401 l 639 1451 q 612 1348 639 1384 q 538 1313 585 1313 z "},"Ȅ":{"ha":769,"x_min":111,"x_max":717,"o":"m 111 0 l 111 972 l 704 972 l 704 853 l 243 853 l 243 568 l 610 568 l 610 449 l 243 449 l 243 119 l 717 119 l 717 0 l 111 0 m 567 1094 l 475 1094 l 350 1299 l 486 1299 l 567 1094 m 372 1094 l 281 1094 l 149 1299 l 285 1299 l 372 1094 z "},"Ë":{"ha":769,"x_min":111,"x_max":717,"o":"m 111 0 l 111 972 l 704 972 l 704 853 l 243 853 l 243 568 l 610 568 l 610 449 l 243 449 l 243 119 l 717 119 l 717 0 l 111 0 m 229 1103 l 229 1207 l 349 1207 l 349 1103 l 229 1103 m 496 1103 l 496 1207 l 615 1207 l 615 1103 l 496 1103 z "},"Ė":{"ha":769,"x_min":111,"x_max":717,"o":"m 111 0 l 111 972 l 704 972 l 704 853 l 243 853 l 243 568 l 610 568 l 610 449 l 243 449 l 243 119 l 717 119 l 717 0 l 111 0 m 356 1099 l 356 1224 l 489 1224 l 489 1099 l 356 1099 z "},"Ẹ":{"ha":769,"x_min":111,"x_max":717,"o":"m 111 0 l 111 972 l 704 972 l 704 853 l 243 853 l 243 568 l 610 568 l 610 449 l 243 449 l 243 119 l 717 119 l 717 0 l 111 0 z "},"È":{"ha":769,"x_min":111,"x_max":717,"o":"m 111 0 l 111 972 l 704 972 l 704 853 l 243 853 l 243 568 l 610 568 l 610 449 l 243 449 l 243 119 l 717 119 l 717 0 l 111 0 m 551 1061 l 292 1142 l 292 1274 l 551 1142 l 551 1061 z "},"Ẻ":{"ha":769,"x_min":111,"x_max":717,"o":"m 111 0 l 111 972 l 704 972 l 704 853 l 243 853 l 243 568 l 610 568 l 610 449 l 243 449 l 243 119 l 717 119 l 717 0 l 111 0 m 421 1056 l 408 1111 q 445 1133 433 1119 q 457 1165 457 1146 q 442 1199 457 1188 q 400 1210 426 1210 q 357 1202 378 1210 q 313 1183 335 1195 l 289 1254 q 340 1274 312 1267 q 400 1281 368 1281 q 498 1253 458 1281 q 538 1174 538 1225 q 510 1099 538 1128 q 421 1056 483 1069 z "},"Ȇ":{"ha":769,"x_min":111,"x_max":717,"o":"m 111 0 l 111 972 l 704 972 l 704 853 l 243 853 l 243 568 l 610 568 l 610 449 l 243 449 l 243 119 l 717 119 l 717 0 l 111 0 m 422 1249 q 536 1225 492 1249 q 603 1163 581 1201 q 625 1082 625 1125 l 514 1082 q 487 1143 514 1123 q 422 1163 460 1163 q 358 1143 385 1163 q 331 1082 331 1123 l 219 1082 q 241 1163 219 1125 q 308 1225 263 1201 q 422 1249 353 1249 z "},"Ē":{"ha":769,"x_min":111,"x_max":717,"o":"m 111 0 l 111 972 l 704 972 l 704 853 l 243 853 l 243 568 l 610 568 l 610 449 l 243 449 l 243 119 l 717 119 l 717 0 l 111 0 m 200 1101 l 200 1196 l 644 1196 l 644 1101 l 200 1101 z "},"Ḗ":{"ha":769,"x_min":111,"x_max":717,"o":"m 111 0 l 111 972 l 704 972 l 704 853 l 243 853 l 243 568 l 610 568 l 610 449 l 243 449 l 243 119 l 717 119 l 717 0 l 111 0 m 200 1101 l 200 1196 l 644 1196 l 644 1101 l 200 1101 m 293 1300 l 293 1381 l 553 1513 l 553 1381 l 293 1300 z "},"Ḕ":{"ha":769,"x_min":111,"x_max":717,"o":"m 111 0 l 111 972 l 704 972 l 704 853 l 243 853 l 243 568 l 610 568 l 610 449 l 243 449 l 243 119 l 717 119 l 717 0 l 111 0 m 200 1101 l 200 1196 l 644 1196 l 644 1101 l 200 1101 m 551 1300 l 292 1381 l 292 1513 l 551 1381 l 551 1300 z "},"Ę":{"ha":769,"x_min":111,"x_max":783,"o":"m 111 0 l 111 972 l 704 972 l 704 853 l 243 853 l 243 568 l 610 568 l 610 449 l 243 449 l 243 119 l 717 119 l 717 0 l 111 0 m 643 0 l 717 0 q 638 -73 668 -37 q 608 -147 608 -108 q 627 -200 608 -183 q 675 -218 645 -218 q 720 -212 699 -218 q 763 -194 742 -206 l 783 -262 q 735 -281 764 -273 q 668 -289 706 -289 q 569 -258 610 -289 q 528 -169 528 -228 q 565 -69 528 -114 q 643 0 601 -24 z "},"Ẽ":{"ha":769,"x_min":111,"x_max":717,"o":"m 111 0 l 111 972 l 704 972 l 704 853 l 243 853 l 243 568 l 610 568 l 610 449 l 243 449 l 243 119 l 717 119 l 717 0 l 111 0 m 538 1094 q 470 1109 506 1094 q 402 1137 435 1123 q 343 1151 369 1151 q 296 1101 296 1151 l 206 1101 q 232 1205 206 1169 q 307 1240 259 1240 q 374 1226 339 1240 q 442 1198 409 1212 q 501 1183 475 1183 q 549 1233 549 1183 l 639 1233 q 612 1130 639 1166 q 538 1094 585 1094 z "},"F":{"ha":726,"x_min":111,"x_max":704,"o":"m 111 0 l 111 972 l 704 972 l 704 853 l 243 853 l 243 568 l 599 568 l 599 449 l 243 449 l 243 0 l 111 0 z "},"G":{"ha":933,"x_min":54,"x_max":863,"o":"m 531 -19 q 288 43 396 -19 q 117 219 180 105 q 54 488 54 333 q 119 754 54 641 q 298 930 184 867 q 557 992 411 992 q 707 975 635 992 q 831 936 778 959 l 818 821 q 697 858 761 843 q 561 872 633 872 q 357 820 437 872 q 238 681 276 769 q 199 486 199 594 q 238 288 199 375 q 360 150 278 201 q 568 100 442 100 q 646 106 599 100 q 731 126 692 111 l 731 368 l 578 368 l 578 488 l 863 488 l 863 54 q 721 2 806 23 q 531 -19 636 -19 z "},"Ğ":{"ha":933,"x_min":54,"x_max":863,"o":"m 531 -19 q 288 43 396 -19 q 117 219 180 105 q 54 488 54 333 q 119 754 54 641 q 298 930 184 867 q 557 992 411 992 q 707 975 635 992 q 831 936 778 959 l 818 821 q 697 858 761 843 q 561 872 633 872 q 357 820 437 872 q 238 681 276 769 q 199 486 199 594 q 238 288 199 375 q 360 150 278 201 q 568 100 442 100 q 646 106 599 100 q 731 126 692 111 l 731 368 l 578 368 l 578 488 l 863 488 l 863 54 q 721 2 806 23 q 531 -19 636 -19 m 560 1061 q 445 1085 490 1061 q 379 1147 401 1108 q 357 1228 357 1185 l 468 1228 q 495 1167 468 1188 q 560 1147 522 1147 q 624 1167 597 1147 q 651 1228 651 1188 l 763 1228 q 741 1147 763 1185 q 674 1085 719 1108 q 560 1061 629 1061 z "},"Ǧ":{"ha":933,"x_min":54,"x_max":863,"o":"m 531 -19 q 288 43 396 -19 q 117 219 180 105 q 54 488 54 333 q 119 754 54 641 q 298 930 184 867 q 557 992 411 992 q 707 975 635 992 q 831 936 778 959 l 818 821 q 697 858 761 843 q 561 872 633 872 q 357 820 437 872 q 238 681 276 769 q 199 486 199 594 q 238 288 199 375 q 360 150 278 201 q 568 100 442 100 q 646 106 599 100 q 731 126 692 111 l 731 368 l 578 368 l 578 488 l 863 488 l 863 54 q 721 2 806 23 q 531 -19 636 -19 z "},"Ĝ":{"ha":933,"x_min":54,"x_max":863,"o":"m 531 -19 q 288 43 396 -19 q 117 219 180 105 q 54 488 54 333 q 119 754 54 641 q 298 930 184 867 q 557 992 411 992 q 707 975 635 992 q 831 936 778 959 l 818 821 q 697 858 761 843 q 561 872 633 872 q 357 820 437 872 q 238 681 276 769 q 199 486 199 594 q 238 288 199 375 q 360 150 278 201 q 568 100 442 100 q 646 106 599 100 q 731 126 692 111 l 731 368 l 578 368 l 578 488 l 863 488 l 863 54 q 721 2 806 23 q 531 -19 636 -19 m 383 1046 l 383 1131 l 560 1256 l 736 1131 l 736 1046 l 560 1138 l 383 1046 z "},"Ģ":{"ha":933,"x_min":54,"x_max":863,"o":"m 531 -19 q 288 43 396 -19 q 117 219 180 105 q 54 488 54 333 q 119 754 54 641 q 298 930 184 867 q 557 992 411 992 q 707 975 635 992 q 831 936 778 959 l 818 821 q 697 858 761 843 q 561 872 633 872 q 357 820 437 872 q 238 681 276 769 q 199 486 199 594 q 238 288 199 375 q 360 150 278 201 q 568 100 442 100 q 646 106 599 100 q 731 126 692 111 l 731 368 l 578 368 l 578 488 l 863 488 l 863 54 q 721 2 806 23 q 531 -19 636 -19 m 554 -422 l 475 -422 l 525 -274 l 476 -274 l 476 -126 l 626 -126 l 626 -260 l 554 -422 z "},"Ġ":{"ha":933,"x_min":54,"x_max":863,"o":"m 531 -19 q 288 43 396 -19 q 117 219 180 105 q 54 488 54 333 q 119 754 54 641 q 298 930 184 867 q 557 992 411 992 q 707 975 635 992 q 831 936 778 959 l 818 821 q 697 858 761 843 q 561 872 633 872 q 357 820 437 872 q 238 681 276 769 q 199 486 199 594 q 238 288 199 375 q 360 150 278 201 q 568 100 442 100 q 646 106 599 100 q 731 126 692 111 l 731 368 l 578 368 l 578 488 l 863 488 l 863 54 q 721 2 806 23 q 531 -19 636 -19 m 493 1099 l 493 1224 l 626 1224 l 626 1099 l 493 1099 z "},"Ḡ":{"ha":933,"x_min":54,"x_max":863,"o":"m 531 -19 q 288 43 396 -19 q 117 219 180 105 q 54 488 54 333 q 119 754 54 641 q 298 930 184 867 q 557 992 411 992 q 707 975 635 992 q 831 936 778 959 l 818 821 q 697 858 761 843 q 561 872 633 872 q 357 820 437 872 q 238 681 276 769 q 199 486 199 594 q 238 288 199 375 q 360 150 278 201 q 568 100 442 100 q 646 106 599 100 q 731 126 692 111 l 731 368 l 578 368 l 578 488 l 863 488 l 863 54 q 721 2 806 23 q 531 -19 636 -19 m 338 1101 l 338 1196 l 782 1196 l 782 1101 l 338 1101 z "},"H":{"ha":981,"x_min":111,"x_max":869,"o":"m 111 0 l 111 972 l 243 972 l 243 571 l 738 571 l 738 972 l 869 972 l 869 0 l 738 0 l 738 446 l 243 446 l 243 0 l 111 0 z "},"Ħ":{"ha":1036,"x_min":14,"x_max":1022,"o":"m 111 0 l 111 972 l 243 972 l 243 571 l 793 571 l 793 972 l 925 972 l 925 0 l 793 0 l 793 446 l 243 446 l 243 0 l 111 0 m 14 694 l 14 783 l 1022 783 l 1022 694 l 14 694 z "},"Ḫ":{"ha":981,"x_min":111,"x_max":869,"o":"m 111 0 l 111 972 l 243 972 l 243 571 l 738 571 l 738 972 l 869 972 l 869 0 l 738 0 l 738 446 l 243 446 l 243 0 l 111 0 z "},"Ĥ":{"ha":981,"x_min":111,"x_max":869,"o":"m 111 0 l 111 972 l 243 972 l 243 571 l 738 571 l 738 972 l 869 972 l 869 0 l 738 0 l 738 446 l 243 446 l 243 0 l 111 0 m 314 1046 l 314 1131 l 490 1256 l 667 1131 l 667 1046 l 490 1138 l 314 1046 z "},"Ḥ":{"ha":981,"x_min":111,"x_max":869,"o":"m 111 0 l 111 972 l 243 972 l 243 571 l 738 571 l 738 972 l 869 972 l 869 0 l 738 0 l 738 446 l 243 446 l 243 0 l 111 0 z "},"I":{"ha":354,"x_min":111,"x_max":243,"o":"m 111 0 l 111 972 l 243 972 l 243 0 l 111 0 z "},"Ĳ":{"ha":950,"x_min":100,"x_max":850,"o":"m 238 339 q 269 219 245 273 q 343 132 294 165 q 475 100 392 100 q 601 129 553 100 q 674 208 649 158 q 709 320 699 258 q 718 449 718 383 l 718 972 l 850 972 l 850 413 q 809 182 850 279 q 685 33 769 85 q 475 -19 602 -19 q 216 71 308 -19 q 106 321 124 162 l 238 339 m 100 449 l 100 972 l 232 972 l 232 449 l 100 449 z "},"Í":{"ha":354,"x_min":49,"x_max":308,"o":"m 111 0 l 111 972 l 243 972 l 243 0 l 111 0 m 49 1061 l 49 1142 l 308 1274 l 308 1142 l 49 1061 z "},"Ĭ":{"ha":354,"x_min":-25,"x_max":381,"o":"m 111 0 l 111 972 l 243 972 l 243 0 l 111 0 m 178 1061 q 64 1085 108 1061 q -3 1147 19 1108 q -25 1228 -25 1185 l 86 1228 q 113 1167 86 1188 q 178 1147 140 1147 q 242 1167 215 1147 q 269 1228 269 1188 l 381 1228 q 359 1147 381 1185 q 292 1085 337 1108 q 178 1061 247 1061 z "},"Î":{"ha":354,"x_min":1,"x_max":354,"o":"m 111 0 l 111 972 l 243 972 l 243 0 l 111 0 m 1 1046 l 1 1131 l 178 1256 l 354 1131 l 354 1046 l 178 1138 l 1 1046 z "},"Ȉ":{"ha":354,"x_min":-96,"x_max":322,"o":"m 111 0 l 111 972 l 243 972 l 243 0 l 111 0 m 322 1094 l 231 1094 l 106 1299 l 242 1299 l 322 1094 m 128 1094 l 36 1094 l -96 1299 l 40 1299 l 128 1094 z "},"Ï":{"ha":354,"x_min":-15,"x_max":371,"o":"m 111 0 l 111 972 l 243 972 l 243 0 l 111 0 m -15 1103 l -15 1207 l 104 1207 l 104 1103 l -15 1103 m 251 1103 l 251 1207 l 371 1207 l 371 1103 l 251 1103 z "},"Ḯ":{"ha":354,"x_min":-15,"x_max":371,"o":"m 111 0 l 111 972 l 243 972 l 243 0 l 111 0 m -15 1103 l -15 1207 l 104 1207 l 104 1103 l -15 1103 m 251 1103 l 251 1207 l 371 1207 l 371 1103 l 251 1103 m 49 1283 l 49 1364 l 308 1496 l 308 1364 l 49 1283 z "},"İ":{"ha":354,"x_min":111,"x_max":244,"o":"m 111 0 l 111 972 l 243 972 l 243 0 l 111 0 m 111 1099 l 111 1224 l 244 1224 l 244 1099 l 111 1099 z "},"Ị":{"ha":354,"x_min":111,"x_max":244,"o":"m 111 0 l 111 972 l 243 972 l 243 0 l 111 0 z "},"Ì":{"ha":354,"x_min":47,"x_max":307,"o":"m 111 0 l 111 972 l 243 972 l 243 0 l 111 0 m 307 1061 l 47 1142 l 47 1274 l 307 1142 l 307 1061 z "},"Ỉ":{"ha":354,"x_min":44,"x_max":293,"o":"m 111 0 l 111 972 l 243 972 l 243 0 l 111 0 m 176 1056 l 164 1111 q 200 1133 188 1119 q 213 1165 213 1146 q 197 1199 213 1188 q 156 1210 182 1210 q 112 1202 134 1210 q 68 1183 90 1195 l 44 1254 q 95 1274 67 1267 q 156 1281 124 1281 q 253 1253 213 1281 q 293 1174 293 1225 q 266 1099 293 1128 q 176 1056 238 1069 z "},"Ȋ":{"ha":354,"x_min":-25,"x_max":381,"o":"m 111 0 l 111 972 l 243 972 l 243 0 l 111 0 m 178 1249 q 292 1225 247 1249 q 359 1163 337 1201 q 381 1082 381 1125 l 269 1082 q 242 1143 269 1123 q 178 1163 215 1163 q 113 1143 140 1163 q 86 1082 86 1123 l -25 1082 q -3 1163 -25 1125 q 64 1225 19 1201 q 178 1249 108 1249 z "},"Ī":{"ha":354,"x_min":-44,"x_max":400,"o":"m 111 0 l 111 972 l 243 972 l 243 0 l 111 0 m -44 1101 l -44 1196 l 400 1196 l 400 1101 l -44 1101 z "},"Į":{"ha":354,"x_min":54,"x_max":310,"o":"m 111 0 l 111 972 l 243 972 l 243 0 l 111 0 m 169 0 l 243 0 q 165 -73 194 -37 q 135 -147 135 -108 q 153 -200 135 -183 q 201 -218 172 -218 q 247 -212 226 -218 q 289 -194 268 -206 l 310 -262 q 261 -281 290 -273 q 194 -289 232 -289 q 95 -258 136 -289 q 54 -169 54 -228 q 91 -69 54 -114 q 169 0 128 -24 z "},"Ĩ":{"ha":354,"x_min":-39,"x_max":394,"o":"m 111 0 l 111 972 l 243 972 l 243 0 l 111 0 m 293 1094 q 226 1109 261 1094 q 158 1137 191 1123 q 99 1151 125 1151 q 51 1101 51 1151 l -39 1101 q -12 1205 -39 1169 q 63 1240 15 1240 q 130 1226 94 1240 q 198 1198 165 1212 q 257 1183 231 1183 q 304 1233 304 1183 l 394 1233 q 368 1130 394 1166 q 293 1094 341 1094 z "},"J":{"ha":354,"x_min":-28,"x_max":243,"o":"m -10 -239 l -28 -125 q 79 -92 47 -125 q 111 11 111 -60 l 111 972 l 243 972 l 243 -19 q 190 -186 243 -134 q 26 -239 136 -239 l -10 -239 z "},"Ĵ":{"ha":354,"x_min":-28,"x_max":354,"o":"m -10 -239 l -28 -125 q 79 -92 47 -125 q 111 11 111 -60 l 111 972 l 243 972 l 243 -19 q 190 -186 243 -134 q 26 -239 136 -239 l -10 -239 m 1 1046 l 1 1131 l 178 1256 l 354 1131 l 354 1046 l 178 1138 l 1 1046 z "},"K":{"ha":786,"x_min":111,"x_max":781,"o":"m 617 0 l 257 515 l 617 972 l 776 972 l 407 518 l 781 0 l 617 0 m 111 0 l 111 972 l 243 972 l 243 0 l 111 0 z "},"Ķ":{"ha":786,"x_min":111,"x_max":781,"o":"m 617 0 l 257 515 l 617 972 l 776 972 l 407 518 l 781 0 l 617 0 m 111 0 l 111 972 l 243 972 l 243 0 l 111 0 m 454 -422 l 375 -422 l 425 -274 l 376 -274 l 376 -126 l 526 -126 l 526 -260 l 454 -422 z "},"L":{"ha":696,"x_min":111,"x_max":689,"o":"m 111 0 l 111 972 l 243 972 l 243 119 l 689 119 l 689 0 l 111 0 z "},"Ǉ":{"ha":1050,"x_min":111,"x_max":939,"o":"m 111 0 l 111 972 l 243 972 l 243 119 l 689 119 l 689 0 l 111 0 m 686 -239 l 668 -125 q 775 -92 743 -125 q 807 11 807 -60 l 807 972 l 939 972 l 939 -19 q 885 -186 939 -134 q 722 -239 832 -239 l 686 -239 z "},"Ĺ":{"ha":696,"x_min":49,"x_max":689,"o":"m 111 0 l 111 972 l 243 972 l 243 119 l 689 119 l 689 0 l 111 0 m 49 1061 l 49 1142 l 308 1274 l 308 1142 l 49 1061 z "},"Ľ":{"ha":696,"x_min":111,"x_max":689,"o":"m 111 0 l 111 972 l 243 972 l 243 119 l 689 119 l 689 0 l 111 0 m 558 740 l 558 972 l 689 972 l 650 740 l 558 740 z "},"Ļ":{"ha":696,"x_min":111,"x_max":689,"o":"m 111 0 l 111 972 l 243 972 l 243 119 l 689 119 l 689 0 l 111 0 m 404 -422 l 325 -422 l 375 -274 l 326 -274 l 326 -126 l 476 -126 l 476 -260 l 404 -422 z "},"Ŀ":{"ha":696,"x_min":111,"x_max":689,"o":"m 111 0 l 111 972 l 243 972 l 243 119 l 689 119 l 689 0 l 111 0 m 454 463 l 454 604 l 596 604 l 596 463 l 454 463 z "},"Ḷ":{"ha":696,"x_min":111,"x_max":689,"o":"m 111 0 l 111 972 l 243 972 l 243 119 l 689 119 l 689 0 l 111 0 z "},"ǈ":{"ha":990,"x_min":111,"x_max":906,"o":"m 111 0 l 111 972 l 243 972 l 243 119 l 689 119 l 689 0 l 111 0 m 693 -336 l 679 -240 q 742 -225 720 -236 q 772 -185 764 -213 q 781 -101 781 -156 l 781 681 l 906 681 l 906 -149 q 877 -251 906 -214 q 810 -306 849 -289 q 735 -329 770 -324 l 693 -336 m 781 833 l 781 972 l 906 972 l 906 833 l 781 833 z "},"Ḻ":{"ha":696,"x_min":111,"x_max":689,"o":"m 111 0 l 111 972 l 243 972 l 243 119 l 689 119 l 689 0 l 111 0 z "},"Ł":{"ha":696,"x_min":14,"x_max":689,"o":"m 111 0 l 111 972 l 243 972 l 243 119 l 689 119 l 689 0 l 111 0 m 14 503 l 14 596 l 536 738 l 536 644 l 14 503 z "},"M":{"ha":1128,"x_min":67,"x_max":1061,"o":"m 67 0 l 197 972 l 310 972 l 565 490 l 818 972 l 932 972 l 1061 0 l 922 0 l 824 793 l 858 788 l 567 231 l 269 788 l 304 793 l 206 0 l 67 0 z "},"Ṃ":{"ha":1128,"x_min":67,"x_max":1061,"o":"m 67 0 l 197 972 l 310 972 l 565 490 l 818 972 l 932 972 l 1061 0 l 922 0 l 824 793 l 858 788 l 567 231 l 269 788 l 304 793 l 206 0 l 67 0 z "},"N":{"ha":978,"x_min":111,"x_max":867,"o":"m 111 0 l 111 972 l 254 972 l 733 244 l 733 972 l 867 972 l 867 0 l 754 0 l 243 768 l 243 0 l 111 0 z "},"Ǌ":{"ha":1332,"x_min":111,"x_max":1221,"o":"m 111 0 l 111 972 l 254 972 l 733 244 l 733 972 l 867 972 l 867 0 l 754 0 l 243 768 l 243 0 l 111 0 m 968 -239 l 950 -125 q 1057 -92 1025 -125 q 1089 11 1089 -60 l 1089 972 l 1221 972 l 1221 -19 q 1167 -186 1221 -134 q 1004 -239 1114 -239 l 968 -239 z "},"Ń":{"ha":978,"x_min":111,"x_max":867,"o":"m 111 0 l 111 972 l 254 972 l 733 244 l 733 972 l 867 972 l 867 0 l 754 0 l 243 768 l 243 0 l 111 0 m 365 1061 l 365 1142 l 625 1274 l 625 1142 l 365 1061 z "},"Ň":{"ha":978,"x_min":111,"x_max":867,"o":"m 111 0 l 111 972 l 254 972 l 733 244 l 733 972 l 867 972 l 867 0 l 754 0 l 243 768 l 243 0 l 111 0 z "},"Ņ":{"ha":978,"x_min":111,"x_max":867,"o":"m 111 0 l 111 972 l 254 972 l 733 244 l 733 972 l 867 972 l 867 0 l 754 0 l 243 768 l 243 0 l 111 0 m 503 -422 l 424 -422 l 474 -274 l 425 -274 l 425 -126 l 575 -126 l 575 -260 l 503 -422 z "},"Ṅ":{"ha":978,"x_min":111,"x_max":867,"o":"m 111 0 l 111 972 l 254 972 l 733 244 l 733 972 l 867 972 l 867 0 l 754 0 l 243 768 l 243 0 l 111 0 m 428 1099 l 428 1224 l 561 1224 l 561 1099 l 428 1099 z "},"Ṇ":{"ha":978,"x_min":111,"x_max":867,"o":"m 111 0 l 111 972 l 254 972 l 733 244 l 733 972 l 867 972 l 867 0 l 754 0 l 243 768 l 243 0 l 111 0 z "},"Ŋ":{"ha":985,"x_min":111,"x_max":896,"o":"m 896 69 q 854 -113 896 -41 q 738 -221 812 -185 q 569 -257 665 -257 q 457 -242 512 -257 l 475 -125 q 526 -134 500 -131 q 578 -137 552 -137 q 712 -89 661 -137 q 763 56 763 -41 l 763 625 q 699 808 763 744 q 508 872 635 872 q 350 845 417 872 q 244 772 284 817 l 244 0 l 111 0 l 111 972 l 224 972 l 232 879 q 370 963 292 935 q 538 992 449 992 q 736 948 657 992 q 856 824 816 903 q 896 639 896 744 l 896 69 z "},"ǋ":{"ha":1260,"x_min":111,"x_max":1175,"o":"m 111 0 l 111 972 l 254 972 l 733 244 l 733 972 l 867 972 l 867 0 l 754 0 l 243 768 l 243 0 l 111 0 m 963 -336 l 949 -240 q 1011 -225 990 -236 q 1042 -185 1033 -213 q 1050 -101 1050 -156 l 1050 681 l 1175 681 l 1175 -149 q 1147 -251 1175 -214 q 1079 -306 1119 -289 q 1004 -329 1040 -324 l 963 -336 m 1050 833 l 1050 972 l 1175 972 l 1175 833 l 1050 833 z "},"Ṉ":{"ha":978,"x_min":111,"x_max":867,"o":"m 111 0 l 111 972 l 254 972 l 733 244 l 733 972 l 867 972 l 867 0 l 754 0 l 243 768 l 243 0 l 111 0 z "},"Ñ":{"ha":978,"x_min":111,"x_max":867,"o":"m 111 0 l 111 972 l 254 972 l 733 244 l 733 972 l 867 972 l 867 0 l 754 0 l 243 768 l 243 0 l 111 0 m 610 1094 q 543 1109 578 1094 q 475 1137 508 1123 q 415 1151 442 1151 q 368 1101 368 1151 l 278 1101 q 305 1205 278 1169 q 379 1240 331 1240 q 446 1226 411 1240 q 514 1198 481 1212 q 574 1183 547 1183 q 621 1233 621 1183 l 711 1233 q 684 1130 711 1166 q 610 1094 658 1094 z "},"O":{"ha":1069,"x_min":56,"x_max":1014,"o":"m 535 -19 q 288 43 396 -19 q 117 218 179 105 q 56 486 56 332 q 117 754 56 640 q 288 930 179 867 q 535 992 396 992 q 782 930 674 992 q 952 754 890 867 q 1014 486 1014 640 q 952 218 1014 332 q 782 43 890 105 q 535 -19 674 -19 m 535 108 q 722 159 647 108 q 834 295 797 209 q 872 486 872 381 q 834 677 872 592 q 722 814 797 763 q 535 864 647 864 q 348 814 423 864 q 235 677 273 763 q 197 486 197 592 q 235 295 197 381 q 348 159 273 209 q 535 108 423 108 z "},"Ó":{"ha":1069,"x_min":56,"x_max":1014,"o":"m 535 -19 q 288 43 396 -19 q 117 218 179 105 q 56 486 56 332 q 117 754 56 640 q 288 930 179 867 q 535 992 396 992 q 782 930 674 992 q 952 754 890 867 q 1014 486 1014 640 q 952 218 1014 332 q 782 43 890 105 q 535 -19 674 -19 m 535 108 q 722 159 647 108 q 834 295 797 209 q 872 486 872 381 q 834 677 872 592 q 722 814 797 763 q 535 864 647 864 q 348 814 423 864 q 235 677 273 763 q 197 486 197 592 q 235 295 197 381 q 348 159 273 209 q 535 108 423 108 m 406 1061 l 406 1142 l 665 1274 l 665 1142 l 406 1061 z "},"Ŏ":{"ha":1069,"x_min":56,"x_max":1014,"o":"m 535 -19 q 288 43 396 -19 q 117 218 179 105 q 56 486 56 332 q 117 754 56 640 q 288 930 179 867 q 535 992 396 992 q 782 930 674 992 q 952 754 890 867 q 1014 486 1014 640 q 952 218 1014 332 q 782 43 890 105 q 535 -19 674 -19 m 535 108 q 722 159 647 108 q 834 295 797 209 q 872 486 872 381 q 834 677 872 592 q 722 814 797 763 q 535 864 647 864 q 348 814 423 864 q 235 677 273 763 q 197 486 197 592 q 235 295 197 381 q 348 159 273 209 q 535 108 423 108 m 535 1061 q 420 1085 465 1061 q 354 1147 376 1108 q 332 1228 332 1185 l 443 1228 q 470 1167 443 1188 q 535 1147 497 1147 q 599 1167 572 1147 q 626 1228 626 1188 l 738 1228 q 716 1147 738 1185 q 649 1085 694 1108 q 535 1061 604 1061 z "},"Ô":{"ha":1069,"x_min":56,"x_max":1014,"o":"m 535 -19 q 288 43 396 -19 q 117 218 179 105 q 56 486 56 332 q 117 754 56 640 q 288 930 179 867 q 535 992 396 992 q 782 930 674 992 q 952 754 890 867 q 1014 486 1014 640 q 952 218 1014 332 q 782 43 890 105 q 535 -19 674 -19 m 535 108 q 722 159 647 108 q 834 295 797 209 q 872 486 872 381 q 834 677 872 592 q 722 814 797 763 q 535 864 647 864 q 348 814 423 864 q 235 677 273 763 q 197 486 197 592 q 235 295 197 381 q 348 159 273 209 q 535 108 423 108 m 358 1046 l 358 1131 l 535 1256 l 711 1131 l 711 1046 l 535 1138 l 358 1046 z "},"Ố":{"ha":1069,"x_min":56,"x_max":1014,"o":"m 535 -19 q 288 43 396 -19 q 117 218 179 105 q 56 486 56 332 q 117 754 56 640 q 288 930 179 867 q 535 992 396 992 q 782 930 674 992 q 952 754 890 867 q 1014 486 1014 640 q 952 218 1014 332 q 782 43 890 105 q 535 -19 674 -19 m 535 108 q 722 159 647 108 q 834 295 797 209 q 872 486 872 381 q 834 677 872 592 q 722 814 797 763 q 535 864 647 864 q 348 814 423 864 q 235 677 273 763 q 197 486 197 592 q 235 295 197 381 q 348 159 273 209 q 535 108 423 108 m 358 1046 l 358 1131 l 535 1256 l 711 1131 l 711 1046 l 535 1138 l 358 1046 m 639 1249 l 731 1411 l 867 1411 l 731 1249 l 639 1249 z "},"Ộ":{"ha":1069,"x_min":56,"x_max":1014,"o":"m 535 -19 q 288 43 396 -19 q 117 218 179 105 q 56 486 56 332 q 117 754 56 640 q 288 930 179 867 q 535 992 396 992 q 782 930 674 992 q 952 754 890 867 q 1014 486 1014 640 q 952 218 1014 332 q 782 43 890 105 q 535 -19 674 -19 m 535 108 q 722 159 647 108 q 834 295 797 209 q 872 486 872 381 q 834 677 872 592 q 722 814 797 763 q 535 864 647 864 q 348 814 423 864 q 235 677 273 763 q 197 486 197 592 q 235 295 197 381 q 348 159 273 209 q 535 108 423 108 m 358 1075 l 358 1160 l 535 1313 l 711 1160 l 711 1075 l 535 1186 l 358 1075 z "},"Ồ":{"ha":1069,"x_min":56,"x_max":1014,"o":"m 535 -19 q 288 43 396 -19 q 117 218 179 105 q 56 486 56 332 q 117 754 56 640 q 288 930 179 867 q 535 992 396 992 q 782 930 674 992 q 952 754 890 867 q 1014 486 1014 640 q 952 218 1014 332 q 782 43 890 105 q 535 -19 674 -19 m 535 108 q 722 159 647 108 q 834 295 797 209 q 872 486 872 381 q 834 677 872 592 q 722 814 797 763 q 535 864 647 864 q 348 814 423 864 q 235 677 273 763 q 197 486 197 592 q 235 295 197 381 q 348 159 273 209 q 535 108 423 108 m 358 1046 l 358 1131 l 535 1256 l 711 1131 l 711 1046 l 535 1138 l 358 1046 m 658 1249 l 538 1411 l 669 1411 l 747 1249 l 658 1249 z "},"Ổ":{"ha":1069,"x_min":56,"x_max":1014,"o":"m 535 -19 q 288 43 396 -19 q 117 218 179 105 q 56 486 56 332 q 117 754 56 640 q 288 930 179 867 q 535 992 396 992 q 782 930 674 992 q 952 754 890 867 q 1014 486 1014 640 q 952 218 1014 332 q 782 43 890 105 q 535 -19 674 -19 m 535 108 q 722 159 647 108 q 834 295 797 209 q 872 486 872 381 q 834 677 872 592 q 722 814 797 763 q 535 864 647 864 q 348 814 423 864 q 235 677 273 763 q 197 486 197 592 q 235 295 197 381 q 348 159 273 209 q 535 108 423 108 m 358 1046 l 358 1131 l 535 1256 l 711 1131 l 711 1046 l 535 1138 l 358 1046 m 668 1211 l 656 1267 q 692 1288 680 1275 q 704 1321 704 1301 q 689 1355 704 1344 q 647 1365 674 1365 q 604 1358 626 1365 q 560 1339 582 1351 l 536 1410 q 587 1429 559 1422 q 647 1436 615 1436 q 745 1408 705 1436 q 785 1329 785 1381 q 757 1254 785 1283 q 668 1211 730 1225 z "},"Ỗ":{"ha":1069,"x_min":56,"x_max":1014,"o":"m 535 -19 q 288 43 396 -19 q 117 218 179 105 q 56 486 56 332 q 117 754 56 640 q 288 930 179 867 q 535 992 396 992 q 782 930 674 992 q 952 754 890 867 q 1014 486 1014 640 q 952 218 1014 332 q 782 43 890 105 q 535 -19 674 -19 m 535 108 q 722 159 647 108 q 834 295 797 209 q 872 486 872 381 q 834 677 872 592 q 722 814 797 763 q 535 864 647 864 q 348 814 423 864 q 235 677 273 763 q 197 486 197 592 q 235 295 197 381 q 348 159 273 209 q 535 108 423 108 m 358 1046 l 358 1131 l 535 1256 l 711 1131 l 711 1046 l 535 1138 l 358 1046 m 650 1313 q 583 1327 618 1313 q 515 1355 548 1341 q 456 1369 482 1369 q 408 1319 408 1369 l 318 1319 q 345 1423 318 1388 q 419 1458 372 1458 q 486 1444 451 1458 q 555 1416 522 1430 q 614 1401 588 1401 q 661 1451 661 1401 l 751 1451 q 725 1348 751 1384 q 650 1313 698 1313 z "},"Ȍ":{"ha":1069,"x_min":56,"x_max":1014,"o":"m 535 -19 q 288 43 396 -19 q 117 218 179 105 q 56 486 56 332 q 117 754 56 640 q 288 930 179 867 q 535 992 396 992 q 782 930 674 992 q 952 754 890 867 q 1014 486 1014 640 q 952 218 1014 332 q 782 43 890 105 q 535 -19 674 -19 m 535 108 q 722 159 647 108 q 834 295 797 209 q 872 486 872 381 q 834 677 872 592 q 722 814 797 763 q 535 864 647 864 q 348 814 423 864 q 235 677 273 763 q 197 486 197 592 q 235 295 197 381 q 348 159 273 209 q 535 108 423 108 m 679 1094 l 588 1094 l 463 1299 l 599 1299 l 679 1094 m 485 1094 l 393 1094 l 261 1299 l 397 1299 l 485 1094 z "},"Ö":{"ha":1069,"x_min":56,"x_max":1014,"o":"m 535 -19 q 288 43 396 -19 q 117 218 179 105 q 56 486 56 332 q 117 754 56 640 q 288 930 179 867 q 535 992 396 992 q 782 930 674 992 q 952 754 890 867 q 1014 486 1014 640 q 952 218 1014 332 q 782 43 890 105 q 535 -19 674 -19 m 535 108 q 722 159 647 108 q 834 295 797 209 q 872 486 872 381 q 834 677 872 592 q 722 814 797 763 q 535 864 647 864 q 348 814 423 864 q 235 677 273 763 q 197 486 197 592 q 235 295 197 381 q 348 159 273 209 q 535 108 423 108 m 342 1103 l 342 1207 l 461 1207 l 461 1103 l 342 1103 m 608 1103 l 608 1207 l 728 1207 l 728 1103 l 608 1103 z "},"Ȫ":{"ha":1069,"x_min":56,"x_max":1014,"o":"m 535 -19 q 288 43 396 -19 q 117 218 179 105 q 56 486 56 332 q 117 754 56 640 q 288 930 179 867 q 535 992 396 992 q 782 930 674 992 q 952 754 890 867 q 1014 486 1014 640 q 952 218 1014 332 q 782 43 890 105 q 535 -19 674 -19 m 535 108 q 722 159 647 108 q 834 295 797 209 q 872 486 872 381 q 834 677 872 592 q 722 814 797 763 q 535 864 647 864 q 348 814 423 864 q 235 677 273 763 q 197 486 197 592 q 235 295 197 381 q 348 159 273 209 q 535 108 423 108 m 342 1103 l 342 1207 l 461 1207 l 461 1103 l 342 1103 m 608 1103 l 608 1207 l 728 1207 l 728 1103 l 608 1103 m 313 1324 l 313 1418 l 757 1418 l 757 1324 l 313 1324 z "},"Ȱ":{"ha":1069,"x_min":56,"x_max":1014,"o":"m 535 -19 q 288 43 396 -19 q 117 218 179 105 q 56 486 56 332 q 117 754 56 640 q 288 930 179 867 q 535 992 396 992 q 782 930 674 992 q 952 754 890 867 q 1014 486 1014 640 q 952 218 1014 332 q 782 43 890 105 q 535 -19 674 -19 m 535 108 q 722 159 647 108 q 834 295 797 209 q 872 486 872 381 q 834 677 872 592 q 722 814 797 763 q 535 864 647 864 q 348 814 423 864 q 235 677 273 763 q 197 486 197 592 q 235 295 197 381 q 348 159 273 209 q 535 108 423 108 m 468 1099 l 468 1224 l 601 1224 l 601 1099 l 468 1099 m 313 1332 l 313 1426 l 757 1426 l 757 1332 l 313 1332 z "},"Ọ":{"ha":1069,"x_min":56,"x_max":1014,"o":"m 535 -19 q 288 43 396 -19 q 117 218 179 105 q 56 486 56 332 q 117 754 56 640 q 288 930 179 867 q 535 992 396 992 q 782 930 674 992 q 952 754 890 867 q 1014 486 1014 640 q 952 218 1014 332 q 782 43 890 105 q 535 -19 674 -19 m 535 108 q 722 159 647 108 q 834 295 797 209 q 872 486 872 381 q 834 677 872 592 q 722 814 797 763 q 535 864 647 864 q 348 814 423 864 q 235 677 273 763 q 197 486 197 592 q 235 295 197 381 q 348 159 273 209 q 535 108 423 108 z "},"Ò":{"ha":1069,"x_min":56,"x_max":1014,"o":"m 535 -19 q 288 43 396 -19 q 117 218 179 105 q 56 486 56 332 q 117 754 56 640 q 288 930 179 867 q 535 992 396 992 q 782 930 674 992 q 952 754 890 867 q 1014 486 1014 640 q 952 218 1014 332 q 782 43 890 105 q 535 -19 674 -19 m 535 108 q 722 159 647 108 q 834 295 797 209 q 872 486 872 381 q 834 677 872 592 q 722 814 797 763 q 535 864 647 864 q 348 814 423 864 q 235 677 273 763 q 197 486 197 592 q 235 295 197 381 q 348 159 273 209 q 535 108 423 108 m 664 1061 l 404 1142 l 404 1274 l 664 1142 l 664 1061 z "},"Ỏ":{"ha":1069,"x_min":56,"x_max":1014,"o":"m 535 -19 q 288 43 396 -19 q 117 218 179 105 q 56 486 56 332 q 117 754 56 640 q 288 930 179 867 q 535 992 396 992 q 782 930 674 992 q 952 754 890 867 q 1014 486 1014 640 q 952 218 1014 332 q 782 43 890 105 q 535 -19 674 -19 m 535 108 q 722 159 647 108 q 834 295 797 209 q 872 486 872 381 q 834 677 872 592 q 722 814 797 763 q 535 864 647 864 q 348 814 423 864 q 235 677 273 763 q 197 486 197 592 q 235 295 197 381 q 348 159 273 209 q 535 108 423 108 m 533 1056 l 521 1111 q 557 1133 545 1119 q 569 1165 569 1146 q 554 1199 569 1188 q 513 1210 539 1210 q 469 1202 491 1210 q 425 1183 447 1195 l 401 1254 q 452 1274 424 1267 q 513 1281 481 1281 q 610 1253 570 1281 q 650 1174 650 1225 q 623 1099 650 1128 q 533 1056 595 1069 z "},"Ơ":{"ha":1069,"x_min":56,"x_max":1014,"o":"m 535 -19 q 288 43 396 -19 q 117 218 179 105 q 56 486 56 332 q 117 754 56 640 q 288 930 179 867 q 535 992 396 992 q 782 930 674 992 q 952 754 890 867 q 1014 486 1014 640 q 952 218 1014 332 q 782 43 890 105 q 535 -19 674 -19 m 535 108 q 722 159 647 108 q 834 295 797 209 q 872 486 872 381 q 834 677 872 592 q 722 814 797 763 q 535 864 647 864 q 348 814 423 864 q 235 677 273 763 q 197 486 197 592 q 235 295 197 381 q 348 159 273 209 q 535 108 423 108 m 665 876 l 665 972 q 747 996 717 972 q 776 1075 776 1020 l 896 1075 q 865 977 896 1022 q 783 904 835 932 q 665 876 731 876 z "},"Ớ":{"ha":1069,"x_min":56,"x_max":1014,"o":"m 535 -19 q 288 43 396 -19 q 117 218 179 105 q 56 486 56 332 q 117 754 56 640 q 288 930 179 867 q 535 992 396 992 q 782 930 674 992 q 952 754 890 867 q 1014 486 1014 640 q 952 218 1014 332 q 782 43 890 105 q 535 -19 674 -19 m 535 108 q 722 159 647 108 q 834 295 797 209 q 872 486 872 381 q 834 677 872 592 q 722 814 797 763 q 535 864 647 864 q 348 814 423 864 q 235 677 273 763 q 197 486 197 592 q 235 295 197 381 q 348 159 273 209 q 535 108 423 108 m 665 876 l 665 972 q 747 996 717 972 q 776 1075 776 1020 l 896 1075 q 865 977 896 1022 q 783 904 835 932 q 665 876 731 876 m 406 1061 l 406 1142 l 665 1274 l 665 1142 l 406 1061 z "},"Ợ":{"ha":1069,"x_min":56,"x_max":1014,"o":"m 535 -19 q 288 43 396 -19 q 117 218 179 105 q 56 486 56 332 q 117 754 56 640 q 288 930 179 867 q 535 992 396 992 q 782 930 674 992 q 952 754 890 867 q 1014 486 1014 640 q 952 218 1014 332 q 782 43 890 105 q 535 -19 674 -19 m 535 108 q 722 159 647 108 q 834 295 797 209 q 872 486 872 381 q 834 677 872 592 q 722 814 797 763 q 535 864 647 864 q 348 814 423 864 q 235 677 273 763 q 197 486 197 592 q 235 295 197 381 q 348 159 273 209 q 535 108 423 108 m 665 876 l 665 972 q 747 996 717 972 q 776 1075 776 1020 l 896 1075 q 865 977 896 1022 q 783 904 835 932 q 665 876 731 876 z "},"Ờ":{"ha":1069,"x_min":56,"x_max":1014,"o":"m 535 -19 q 288 43 396 -19 q 117 218 179 105 q 56 486 56 332 q 117 754 56 640 q 288 930 179 867 q 535 992 396 992 q 782 930 674 992 q 952 754 890 867 q 1014 486 1014 640 q 952 218 1014 332 q 782 43 890 105 q 535 -19 674 -19 m 535 108 q 722 159 647 108 q 834 295 797 209 q 872 486 872 381 q 834 677 872 592 q 722 814 797 763 q 535 864 647 864 q 348 814 423 864 q 235 677 273 763 q 197 486 197 592 q 235 295 197 381 q 348 159 273 209 q 535 108 423 108 m 665 876 l 665 972 q 747 996 717 972 q 776 1075 776 1020 l 896 1075 q 865 977 896 1022 q 783 904 835 932 q 665 876 731 876 m 664 1061 l 404 1142 l 404 1274 l 664 1142 l 664 1061 z "},"Ở":{"ha":1069,"x_min":56,"x_max":1014,"o":"m 535 -19 q 288 43 396 -19 q 117 218 179 105 q 56 486 56 332 q 117 754 56 640 q 288 930 179 867 q 535 992 396 992 q 782 930 674 992 q 952 754 890 867 q 1014 486 1014 640 q 952 218 1014 332 q 782 43 890 105 q 535 -19 674 -19 m 535 108 q 722 159 647 108 q 834 295 797 209 q 872 486 872 381 q 834 677 872 592 q 722 814 797 763 q 535 864 647 864 q 348 814 423 864 q 235 677 273 763 q 197 486 197 592 q 235 295 197 381 q 348 159 273 209 q 535 108 423 108 m 665 876 l 665 972 q 747 996 717 972 q 776 1075 776 1020 l 896 1075 q 865 977 896 1022 q 783 904 835 932 q 665 876 731 876 m 533 1056 l 521 1111 q 557 1133 545 1119 q 569 1165 569 1146 q 554 1199 569 1188 q 513 1210 539 1210 q 469 1202 491 1210 q 425 1183 447 1195 l 401 1254 q 452 1274 424 1267 q 513 1281 481 1281 q 610 1253 570 1281 q 650 1174 650 1225 q 623 1099 650 1128 q 533 1056 595 1069 z "},"Ỡ":{"ha":1069,"x_min":56,"x_max":1014,"o":"m 535 -19 q 288 43 396 -19 q 117 218 179 105 q 56 486 56 332 q 117 754 56 640 q 288 930 179 867 q 535 992 396 992 q 782 930 674 992 q 952 754 890 867 q 1014 486 1014 640 q 952 218 1014 332 q 782 43 890 105 q 535 -19 674 -19 m 535 108 q 722 159 647 108 q 834 295 797 209 q 872 486 872 381 q 834 677 872 592 q 722 814 797 763 q 535 864 647 864 q 348 814 423 864 q 235 677 273 763 q 197 486 197 592 q 235 295 197 381 q 348 159 273 209 q 535 108 423 108 m 665 876 l 665 972 q 747 996 717 972 q 776 1075 776 1020 l 896 1075 q 865 977 896 1022 q 783 904 835 932 q 665 876 731 876 m 650 1094 q 583 1109 618 1094 q 515 1137 548 1123 q 456 1151 482 1151 q 408 1101 408 1151 l 318 1101 q 345 1205 318 1169 q 419 1240 372 1240 q 486 1226 451 1240 q 555 1198 522 1212 q 614 1183 588 1183 q 661 1233 661 1183 l 751 1233 q 725 1130 751 1166 q 650 1094 698 1094 z "},"Ő":{"ha":1069,"x_min":56,"x_max":1014,"o":"m 535 -19 q 288 43 396 -19 q 117 218 179 105 q 56 486 56 332 q 117 754 56 640 q 288 930 179 867 q 535 992 396 992 q 782 930 674 992 q 952 754 890 867 q 1014 486 1014 640 q 952 218 1014 332 q 782 43 890 105 q 535 -19 674 -19 m 535 108 q 722 159 647 108 q 834 295 797 209 q 872 486 872 381 q 834 677 872 592 q 722 814 797 763 q 535 864 647 864 q 348 814 423 864 q 235 677 273 763 q 197 486 197 592 q 235 295 197 381 q 348 159 273 209 q 535 108 423 108 m 390 1094 l 482 1299 l 618 1299 l 482 1094 l 390 1094 m 585 1094 l 683 1299 l 819 1299 l 676 1094 l 585 1094 z "},"Ȏ":{"ha":1069,"x_min":56,"x_max":1014,"o":"m 535 -19 q 288 43 396 -19 q 117 218 179 105 q 56 486 56 332 q 117 754 56 640 q 288 930 179 867 q 535 992 396 992 q 782 930 674 992 q 952 754 890 867 q 1014 486 1014 640 q 952 218 1014 332 q 782 43 890 105 q 535 -19 674 -19 m 535 108 q 722 159 647 108 q 834 295 797 209 q 872 486 872 381 q 834 677 872 592 q 722 814 797 763 q 535 864 647 864 q 348 814 423 864 q 235 677 273 763 q 197 486 197 592 q 235 295 197 381 q 348 159 273 209 q 535 108 423 108 m 535 1249 q 649 1225 604 1249 q 716 1163 694 1201 q 738 1082 738 1125 l 626 1082 q 599 1143 626 1123 q 535 1163 572 1163 q 470 1143 497 1163 q 443 1082 443 1123 l 332 1082 q 354 1163 332 1125 q 420 1225 376 1201 q 535 1249 465 1249 z "},"Ō":{"ha":1069,"x_min":56,"x_max":1014,"o":"m 535 -19 q 288 43 396 -19 q 117 218 179 105 q 56 486 56 332 q 117 754 56 640 q 288 930 179 867 q 535 992 396 992 q 782 930 674 992 q 952 754 890 867 q 1014 486 1014 640 q 952 218 1014 332 q 782 43 890 105 q 535 -19 674 -19 m 535 108 q 722 159 647 108 q 834 295 797 209 q 872 486 872 381 q 834 677 872 592 q 722 814 797 763 q 535 864 647 864 q 348 814 423 864 q 235 677 273 763 q 197 486 197 592 q 235 295 197 381 q 348 159 273 209 q 535 108 423 108 m 313 1101 l 313 1196 l 757 1196 l 757 1101 l 313 1101 z "},"Ṓ":{"ha":1069,"x_min":56,"x_max":1014,"o":"m 535 -19 q 288 43 396 -19 q 117 218 179 105 q 56 486 56 332 q 117 754 56 640 q 288 930 179 867 q 535 992 396 992 q 782 930 674 992 q 952 754 890 867 q 1014 486 1014 640 q 952 218 1014 332 q 782 43 890 105 q 535 -19 674 -19 m 535 108 q 722 159 647 108 q 834 295 797 209 q 872 486 872 381 q 834 677 872 592 q 722 814 797 763 q 535 864 647 864 q 348 814 423 864 q 235 677 273 763 q 197 486 197 592 q 235 295 197 381 q 348 159 273 209 q 535 108 423 108 m 313 1101 l 313 1196 l 757 1196 l 757 1101 l 313 1101 m 406 1300 l 406 1381 l 665 1513 l 665 1381 l 406 1300 z "},"Ṑ":{"ha":1069,"x_min":56,"x_max":1014,"o":"m 535 -19 q 288 43 396 -19 q 117 218 179 105 q 56 486 56 332 q 117 754 56 640 q 288 930 179 867 q 535 992 396 992 q 782 930 674 992 q 952 754 890 867 q 1014 486 1014 640 q 952 218 1014 332 q 782 43 890 105 q 535 -19 674 -19 m 535 108 q 722 159 647 108 q 834 295 797 209 q 872 486 872 381 q 834 677 872 592 q 722 814 797 763 q 535 864 647 864 q 348 814 423 864 q 235 677 273 763 q 197 486 197 592 q 235 295 197 381 q 348 159 273 209 q 535 108 423 108 m 313 1101 l 313 1196 l 757 1196 l 757 1101 l 313 1101 m 664 1300 l 404 1381 l 404 1513 l 664 1381 l 664 1300 z "},"Ǫ":{"ha":1069,"x_min":56,"x_max":1014,"o":"m 535 -19 q 288 43 396 -19 q 117 218 179 105 q 56 486 56 332 q 117 754 56 640 q 288 930 179 867 q 535 992 396 992 q 782 930 674 992 q 952 754 890 867 q 1014 486 1014 640 q 952 218 1014 332 q 782 43 890 105 q 535 -19 674 -19 m 535 108 q 722 159 647 108 q 834 295 797 209 q 872 486 872 381 q 834 677 872 592 q 722 814 797 763 q 535 864 647 864 q 348 814 423 864 q 235 677 273 763 q 197 486 197 592 q 235 295 197 381 q 348 159 273 209 q 535 108 423 108 m 572 0 l 646 0 q 567 -73 597 -37 q 538 -147 538 -108 q 556 -200 538 -183 q 604 -218 574 -218 q 650 -212 628 -218 q 692 -194 671 -206 l 713 -262 q 664 -281 693 -273 q 597 -289 635 -289 q 498 -258 539 -289 q 457 -169 457 -228 q 494 -69 457 -114 q 572 0 531 -24 z "},"Ø":{"ha":1069,"x_min":56,"x_max":1014,"o":"m 97 -61 l 846 1033 l 972 1033 l 224 -61 l 97 -61 m 535 -19 q 288 43 396 -19 q 117 218 179 105 q 56 486 56 332 q 117 754 56 640 q 288 930 179 867 q 535 992 396 992 q 782 930 674 992 q 952 754 890 867 q 1014 486 1014 640 q 952 218 1014 332 q 782 43 890 105 q 535 -19 674 -19 m 535 108 q 722 159 647 108 q 834 295 797 209 q 872 486 872 381 q 834 677 872 592 q 722 814 797 763 q 535 864 647 864 q 348 814 423 864 q 235 677 273 763 q 197 486 197 592 q 235 295 197 381 q 348 159 273 209 q 535 108 423 108 z "},"Ǿ":{"ha":1069,"x_min":56,"x_max":1014,"o":"m 97 -61 l 846 1033 l 972 1033 l 224 -61 l 97 -61 m 535 -19 q 288 43 396 -19 q 117 218 179 105 q 56 486 56 332 q 117 754 56 640 q 288 930 179 867 q 535 992 396 992 q 782 930 674 992 q 952 754 890 867 q 1014 486 1014 640 q 952 218 1014 332 q 782 43 890 105 q 535 -19 674 -19 m 535 108 q 722 159 647 108 q 834 295 797 209 q 872 486 872 381 q 834 677 872 592 q 722 814 797 763 q 535 864 647 864 q 348 814 423 864 q 235 677 273 763 q 197 486 197 592 q 235 295 197 381 q 348 159 273 209 q 535 108 423 108 m 404 1061 l 404 1142 l 664 1274 l 664 1142 l 404 1061 z "},"Õ":{"ha":1069,"x_min":56,"x_max":1014,"o":"m 535 -19 q 288 43 396 -19 q 117 218 179 105 q 56 486 56 332 q 117 754 56 640 q 288 930 179 867 q 535 992 396 992 q 782 930 674 992 q 952 754 890 867 q 1014 486 1014 640 q 952 218 1014 332 q 782 43 890 105 q 535 -19 674 -19 m 535 108 q 722 159 647 108 q 834 295 797 209 q 872 486 872 381 q 834 677 872 592 q 722 814 797 763 q 535 864 647 864 q 348 814 423 864 q 235 677 273 763 q 197 486 197 592 q 235 295 197 381 q 348 159 273 209 q 535 108 423 108 m 650 1094 q 583 1109 618 1094 q 515 1137 548 1123 q 456 1151 482 1151 q 408 1101 408 1151 l 318 1101 q 345 1205 318 1169 q 419 1240 372 1240 q 486 1226 451 1240 q 555 1198 522 1212 q 614 1183 588 1183 q 661 1233 661 1183 l 751 1233 q 725 1130 751 1166 q 650 1094 698 1094 z "},"Ṍ":{"ha":1069,"x_min":56,"x_max":1014,"o":"m 535 -19 q 288 43 396 -19 q 117 218 179 105 q 56 486 56 332 q 117 754 56 640 q 288 930 179 867 q 535 992 396 992 q 782 930 674 992 q 952 754 890 867 q 1014 486 1014 640 q 952 218 1014 332 q 782 43 890 105 q 535 -19 674 -19 m 535 108 q 722 159 647 108 q 834 295 797 209 q 872 486 872 381 q 834 677 872 592 q 722 814 797 763 q 535 864 647 864 q 348 814 423 864 q 235 677 273 763 q 197 486 197 592 q 235 295 197 381 q 348 159 273 209 q 535 108 423 108 m 650 1094 q 583 1109 618 1094 q 515 1137 548 1123 q 456 1151 482 1151 q 408 1101 408 1151 l 318 1101 q 345 1205 318 1169 q 419 1240 372 1240 q 486 1226 451 1240 q 555 1198 522 1212 q 614 1183 588 1183 q 661 1233 661 1183 l 751 1233 q 725 1130 751 1166 q 650 1094 698 1094 m 406 1306 l 406 1386 l 665 1518 l 665 1386 l 406 1306 z "},"Ṏ":{"ha":1069,"x_min":56,"x_max":1014,"o":"m 535 -19 q 288 43 396 -19 q 117 218 179 105 q 56 486 56 332 q 117 754 56 640 q 288 930 179 867 q 535 992 396 992 q 782 930 674 992 q 952 754 890 867 q 1014 486 1014 640 q 952 218 1014 332 q 782 43 890 105 q 535 -19 674 -19 m 535 108 q 722 159 647 108 q 834 295 797 209 q 872 486 872 381 q 834 677 872 592 q 722 814 797 763 q 535 864 647 864 q 348 814 423 864 q 235 677 273 763 q 197 486 197 592 q 235 295 197 381 q 348 159 273 209 q 535 108 423 108 m 650 1094 q 583 1109 618 1094 q 515 1137 548 1123 q 456 1151 482 1151 q 408 1101 408 1151 l 318 1101 q 345 1205 318 1169 q 419 1240 372 1240 q 486 1226 451 1240 q 555 1198 522 1212 q 614 1183 588 1183 q 661 1233 661 1183 l 751 1233 q 725 1130 751 1166 q 650 1094 698 1094 m 342 1347 l 342 1451 l 461 1451 l 461 1347 l 342 1347 m 608 1347 l 608 1451 l 728 1451 l 728 1347 l 608 1347 z "},"Ȭ":{"ha":1069,"x_min":56,"x_max":1014,"o":"m 535 -19 q 288 43 396 -19 q 117 218 179 105 q 56 486 56 332 q 117 754 56 640 q 288 930 179 867 q 535 992 396 992 q 782 930 674 992 q 952 754 890 867 q 1014 486 1014 640 q 952 218 1014 332 q 782 43 890 105 q 535 -19 674 -19 m 535 108 q 722 159 647 108 q 834 295 797 209 q 872 486 872 381 q 834 677 872 592 q 722 814 797 763 q 535 864 647 864 q 348 814 423 864 q 235 677 273 763 q 197 486 197 592 q 235 295 197 381 q 348 159 273 209 q 535 108 423 108 m 650 1094 q 583 1109 618 1094 q 515 1137 548 1123 q 456 1151 482 1151 q 408 1101 408 1151 l 318 1101 q 345 1205 318 1169 q 419 1240 372 1240 q 486 1226 451 1240 q 555 1198 522 1212 q 614 1183 588 1183 q 661 1233 661 1183 l 751 1233 q 725 1130 751 1166 q 650 1094 698 1094 m 313 1346 l 313 1440 l 757 1440 l 757 1346 l 313 1346 z "},"Œ":{"ha":1488,"x_min":56,"x_max":1436,"o":"m 517 -19 q 278 43 383 -19 q 115 218 174 105 q 56 486 56 332 q 115 754 56 640 q 278 930 174 867 q 517 992 383 992 q 692 956 610 992 q 838 855 775 921 q 936 695 901 788 q 972 486 972 602 q 936 277 972 371 q 838 118 901 184 q 692 16 775 51 q 517 -19 610 -19 m 525 100 q 709 151 635 100 q 818 290 782 202 q 854 486 854 377 q 818 683 854 595 q 709 821 782 770 q 525 872 635 872 q 341 821 414 872 q 231 683 267 770 q 194 486 194 595 q 231 290 194 377 q 341 151 267 202 q 525 100 414 100 m 867 0 l 867 971 l 1424 971 l 1424 853 l 993 853 l 993 568 l 1324 568 l 1324 449 l 993 449 l 993 119 l 1436 119 l 1436 0 l 867 0 z "},"P":{"ha":794,"x_min":111,"x_max":761,"o":"m 111 0 l 111 972 l 432 972 q 604 941 530 972 q 720 840 678 910 q 761 657 761 771 q 720 475 761 545 q 604 373 678 406 q 432 340 530 340 l 250 340 l 250 0 l 111 0 m 250 458 l 413 458 q 572 507 519 458 q 625 656 625 555 q 575 806 625 757 q 413 854 524 854 l 250 854 l 250 458 z "},"Þ":{"ha":797,"x_min":111,"x_max":764,"o":"m 111 0 l 111 972 l 250 972 l 250 757 l 479 757 q 696 689 628 757 q 764 511 764 622 q 695 333 764 401 q 479 265 627 265 l 250 265 l 250 0 l 111 0 m 250 383 l 469 383 q 588 416 548 383 q 628 511 628 449 q 588 606 628 574 q 469 639 548 639 l 250 639 l 250 383 z "},"Q":{"ha":1069,"x_min":56,"x_max":1014,"o":"m 613 281 l 688 357 l 993 57 l 918 -19 l 613 281 m 535 -19 q 288 43 396 -19 q 117 218 179 105 q 56 486 56 332 q 117 754 56 640 q 288 930 179 867 q 535 992 396 992 q 782 930 674 992 q 952 754 890 867 q 1014 486 1014 640 q 952 218 1014 332 q 782 43 890 105 q 535 -19 674 -19 m 535 108 q 722 159 647 108 q 834 295 797 209 q 872 486 872 381 q 834 677 872 592 q 722 814 797 763 q 535 864 647 864 q 348 814 423 864 q 235 677 273 763 q 197 486 197 592 q 235 295 197 381 q 348 159 273 209 q 535 108 423 108 z "},"R":{"ha":838,"x_min":111,"x_max":811,"o":"m 111 0 l 111 972 l 426 972 q 603 941 528 972 q 721 844 679 910 q 763 676 763 779 q 719 509 763 576 q 593 403 676 442 l 811 0 l 650 0 l 453 379 q 449 379 451 379 q 446 379 448 379 l 250 379 l 250 0 l 111 0 m 250 497 l 425 497 q 575 545 524 497 q 625 676 625 593 q 575 808 625 761 q 425 854 524 854 l 250 854 l 250 497 z "},"Ŕ":{"ha":838,"x_min":111,"x_max":811,"o":"m 111 0 l 111 972 l 426 972 q 603 941 528 972 q 721 844 679 910 q 763 676 763 779 q 719 509 763 576 q 593 403 676 442 l 811 0 l 650 0 l 453 379 q 449 379 451 379 q 446 379 448 379 l 250 379 l 250 0 l 111 0 m 250 497 l 425 497 q 575 545 524 497 q 625 676 625 593 q 575 808 625 761 q 425 854 524 854 l 250 854 l 250 497 m 297 1061 l 297 1142 l 557 1274 l 557 1142 l 297 1061 z "},"Ř":{"ha":838,"x_min":111,"x_max":811,"o":"m 111 0 l 111 972 l 426 972 q 603 941 528 972 q 721 844 679 910 q 763 676 763 779 q 719 509 763 576 q 593 403 676 442 l 811 0 l 650 0 l 453 379 q 449 379 451 379 q 446 379 448 379 l 250 379 l 250 0 l 111 0 m 250 497 l 425 497 q 575 545 524 497 q 625 676 625 593 q 575 808 625 761 q 425 854 524 854 l 250 854 l 250 497 z "},"Ŗ":{"ha":838,"x_min":111,"x_max":811,"o":"m 111 0 l 111 972 l 426 972 q 603 941 528 972 q 721 844 679 910 q 763 676 763 779 q 719 509 763 576 q 593 403 676 442 l 811 0 l 650 0 l 453 379 q 449 379 451 379 q 446 379 448 379 l 250 379 l 250 0 l 111 0 m 250 497 l 425 497 q 575 545 524 497 q 625 676 625 593 q 575 808 625 761 q 425 854 524 854 l 250 854 l 250 497 m 464 -422 l 385 -422 l 435 -274 l 386 -274 l 386 -126 l 536 -126 l 536 -260 l 464 -422 z "},"Ȑ":{"ha":838,"x_min":111,"x_max":811,"o":"m 111 0 l 111 972 l 426 972 q 603 941 528 972 q 721 844 679 910 q 763 676 763 779 q 719 509 763 576 q 593 403 676 442 l 811 0 l 650 0 l 453 379 q 449 379 451 379 q 446 379 448 379 l 250 379 l 250 0 l 111 0 m 250 497 l 425 497 q 575 545 524 497 q 625 676 625 593 q 575 808 625 761 q 425 854 524 854 l 250 854 l 250 497 m 571 1094 l 479 1094 l 354 1299 l 490 1299 l 571 1094 m 376 1094 l 285 1094 l 153 1299 l 289 1299 l 376 1094 z "},"Ṛ":{"ha":838,"x_min":111,"x_max":811,"o":"m 111 0 l 111 972 l 426 972 q 603 941 528 972 q 721 844 679 910 q 763 676 763 779 q 719 509 763 576 q 593 403 676 442 l 811 0 l 650 0 l 453 379 q 449 379 451 379 q 446 379 448 379 l 250 379 l 250 0 l 111 0 m 250 497 l 425 497 q 575 545 524 497 q 625 676 625 593 q 575 808 625 761 q 425 854 524 854 l 250 854 l 250 497 z "},"Ȓ":{"ha":838,"x_min":111,"x_max":811,"o":"m 111 0 l 111 972 l 426 972 q 603 941 528 972 q 721 844 679 910 q 763 676 763 779 q 719 509 763 576 q 593 403 676 442 l 811 0 l 650 0 l 453 379 q 449 379 451 379 q 446 379 448 379 l 250 379 l 250 0 l 111 0 m 250 497 l 425 497 q 575 545 524 497 q 625 676 625 593 q 575 808 625 761 q 425 854 524 854 l 250 854 l 250 497 m 426 1249 q 541 1225 496 1249 q 607 1163 585 1201 q 629 1082 629 1125 l 518 1082 q 491 1143 518 1123 q 426 1163 464 1163 q 362 1143 389 1163 q 335 1082 335 1123 l 224 1082 q 245 1163 224 1125 q 312 1225 267 1201 q 426 1249 357 1249 z "},"Ṟ":{"ha":838,"x_min":111,"x_max":811,"o":"m 111 0 l 111 972 l 426 972 q 603 941 528 972 q 721 844 679 910 q 763 676 763 779 q 719 509 763 576 q 593 403 676 442 l 811 0 l 650 0 l 453 379 q 449 379 451 379 q 446 379 448 379 l 250 379 l 250 0 l 111 0 m 250 497 l 425 497 q 575 545 524 497 q 625 676 625 593 q 575 808 625 761 q 425 854 524 854 l 250 854 l 250 497 z "},"S":{"ha":811,"x_min":71,"x_max":768,"o":"m 389 -19 q 268 -10 328 -19 q 156 13 208 -1 q 71 43 105 27 l 89 183 q 180 146 126 165 q 294 113 233 126 q 419 100 356 100 q 568 134 513 100 q 624 242 624 169 q 596 332 624 297 q 512 392 568 367 q 372 442 456 417 q 225 498 292 465 q 117 584 158 530 q 76 729 76 639 q 116 866 76 806 q 234 958 156 925 q 424 992 311 992 q 600 971 519 992 q 732 925 680 950 l 718 785 q 567 852 639 832 q 418 872 495 872 q 277 840 333 872 q 221 736 221 808 q 246 657 221 688 q 320 604 271 626 q 443 560 369 582 q 617 490 544 529 q 729 393 690 451 q 768 251 768 336 q 744 139 768 189 q 674 53 721 89 q 555 -1 626 18 q 389 -19 484 -19 z "},"Ś":{"ha":811,"x_min":71,"x_max":768,"o":"m 389 -19 q 268 -10 328 -19 q 156 13 208 -1 q 71 43 105 27 l 89 183 q 180 146 126 165 q 294 113 233 126 q 419 100 356 100 q 568 134 513 100 q 624 242 624 169 q 596 332 624 297 q 512 392 568 367 q 372 442 456 417 q 225 498 292 465 q 117 584 158 530 q 76 729 76 639 q 116 866 76 806 q 234 958 156 925 q 424 992 311 992 q 600 971 519 992 q 732 925 680 950 l 718 785 q 567 852 639 832 q 418 872 495 872 q 277 840 333 872 q 221 736 221 808 q 246 657 221 688 q 320 604 271 626 q 443 560 369 582 q 617 490 544 529 q 729 393 690 451 q 768 251 768 336 q 744 139 768 189 q 674 53 721 89 q 555 -1 626 18 q 389 -19 484 -19 m 310 1061 l 310 1142 l 569 1274 l 569 1142 l 310 1061 z "},"Ṥ":{"ha":811,"x_min":71,"x_max":768,"o":"m 389 -19 q 268 -10 328 -19 q 156 13 208 -1 q 71 43 105 27 l 89 183 q 180 146 126 165 q 294 113 233 126 q 419 100 356 100 q 568 134 513 100 q 624 242 624 169 q 596 332 624 297 q 512 392 568 367 q 372 442 456 417 q 225 498 292 465 q 117 584 158 530 q 76 729 76 639 q 116 866 76 806 q 234 958 156 925 q 424 992 311 992 q 600 971 519 992 q 732 925 680 950 l 718 785 q 567 852 639 832 q 418 872 495 872 q 277 840 333 872 q 221 736 221 808 q 246 657 221 688 q 320 604 271 626 q 443 560 369 582 q 617 490 544 529 q 729 393 690 451 q 768 251 768 336 q 744 139 768 189 q 674 53 721 89 q 555 -1 626 18 q 389 -19 484 -19 m 310 1061 l 310 1142 l 569 1274 l 569 1142 l 310 1061 m 372 1338 l 372 1463 l 506 1463 l 506 1338 l 372 1338 z "},"Š":{"ha":811,"x_min":71,"x_max":768,"o":"m 389 -19 q 268 -10 328 -19 q 156 13 208 -1 q 71 43 105 27 l 89 183 q 180 146 126 165 q 294 113 233 126 q 419 100 356 100 q 568 134 513 100 q 624 242 624 169 q 596 332 624 297 q 512 392 568 367 q 372 442 456 417 q 225 498 292 465 q 117 584 158 530 q 76 729 76 639 q 116 866 76 806 q 234 958 156 925 q 424 992 311 992 q 600 971 519 992 q 732 925 680 950 l 718 785 q 567 852 639 832 q 418 872 495 872 q 277 840 333 872 q 221 736 221 808 q 246 657 221 688 q 320 604 271 626 q 443 560 369 582 q 617 490 544 529 q 729 393 690 451 q 768 251 768 336 q 744 139 768 189 q 674 53 721 89 q 555 -1 626 18 q 389 -19 484 -19 z "},"Ṧ":{"ha":811,"x_min":71,"x_max":768,"o":"m 389 -19 q 268 -10 328 -19 q 156 13 208 -1 q 71 43 105 27 l 89 183 q 180 146 126 165 q 294 113 233 126 q 419 100 356 100 q 568 134 513 100 q 624 242 624 169 q 596 332 624 297 q 512 392 568 367 q 372 442 456 417 q 225 498 292 465 q 117 584 158 530 q 76 729 76 639 q 116 866 76 806 q 234 958 156 925 q 424 992 311 992 q 600 971 519 992 q 732 925 680 950 l 718 785 q 567 852 639 832 q 418 872 495 872 q 277 840 333 872 q 221 736 221 808 q 246 657 221 688 q 320 604 271 626 q 443 560 369 582 q 617 490 544 529 q 729 393 690 451 q 768 251 768 336 q 744 139 768 189 q 674 53 721 89 q 555 -1 626 18 q 389 -19 484 -19 m 372 1356 l 372 1481 l 506 1481 l 506 1356 l 372 1356 z "},"Ş":{"ha":811,"x_min":71,"x_max":768,"o":"m 389 -19 q 268 -10 328 -19 q 156 13 208 -1 q 71 43 105 27 l 89 183 q 180 146 126 165 q 294 113 233 126 q 419 100 356 100 q 568 134 513 100 q 624 242 624 169 q 596 332 624 297 q 512 392 568 367 q 372 442 456 417 q 225 498 292 465 q 117 584 158 530 q 76 729 76 639 q 116 866 76 806 q 234 958 156 925 q 424 992 311 992 q 600 971 519 992 q 732 925 680 950 l 718 785 q 567 852 639 832 q 418 872 495 872 q 277 840 333 872 q 221 736 221 808 q 246 657 221 688 q 320 604 271 626 q 443 560 369 582 q 617 490 544 529 q 729 393 690 451 q 768 251 768 336 q 744 139 768 189 q 674 53 721 89 q 555 -1 626 18 q 389 -19 484 -19 m 411 -110 l 365 -89 q 398 -79 382 -83 q 433 -75 415 -75 q 522 -105 490 -75 q 554 -187 554 -135 q 511 -281 554 -249 q 407 -314 469 -314 q 344 -306 372 -314 q 299 -287 317 -298 l 319 -219 q 362 -237 340 -231 q 407 -243 383 -243 q 456 -230 438 -243 q 474 -190 474 -216 q 457 -150 474 -165 q 404 -135 440 -135 q 374 -137 389 -135 q 340 -146 358 -140 l 376 0 l 446 0 l 411 -110 z "},"Ŝ":{"ha":811,"x_min":71,"x_max":768,"o":"m 389 -19 q 268 -10 328 -19 q 156 13 208 -1 q 71 43 105 27 l 89 183 q 180 146 126 165 q 294 113 233 126 q 419 100 356 100 q 568 134 513 100 q 624 242 624 169 q 596 332 624 297 q 512 392 568 367 q 372 442 456 417 q 225 498 292 465 q 117 584 158 530 q 76 729 76 639 q 116 866 76 806 q 234 958 156 925 q 424 992 311 992 q 600 971 519 992 q 732 925 680 950 l 718 785 q 567 852 639 832 q 418 872 495 872 q 277 840 333 872 q 221 736 221 808 q 246 657 221 688 q 320 604 271 626 q 443 560 369 582 q 617 490 544 529 q 729 393 690 451 q 768 251 768 336 q 744 139 768 189 q 674 53 721 89 q 555 -1 626 18 q 389 -19 484 -19 m 263 1046 l 263 1131 l 439 1256 l 615 1131 l 615 1046 l 439 1138 l 263 1046 z "},"Ș":{"ha":811,"x_min":71,"x_max":768,"o":"m 389 -19 q 268 -10 328 -19 q 156 13 208 -1 q 71 43 105 27 l 89 183 q 180 146 126 165 q 294 113 233 126 q 419 100 356 100 q 568 134 513 100 q 624 242 624 169 q 596 332 624 297 q 512 392 568 367 q 372 442 456 417 q 225 498 292 465 q 117 584 158 530 q 76 729 76 639 q 116 866 76 806 q 234 958 156 925 q 424 992 311 992 q 600 971 519 992 q 732 925 680 950 l 718 785 q 567 852 639 832 q 418 872 495 872 q 277 840 333 872 q 221 736 221 808 q 246 657 221 688 q 320 604 271 626 q 443 560 369 582 q 617 490 544 529 q 729 393 690 451 q 768 251 768 336 q 744 139 768 189 q 674 53 721 89 q 555 -1 626 18 q 389 -19 484 -19 m 411 -422 l 332 -422 l 382 -274 l 333 -274 l 333 -126 l 483 -126 l 483 -260 l 411 -422 z "},"Ṡ":{"ha":811,"x_min":71,"x_max":768,"o":"m 389 -19 q 268 -10 328 -19 q 156 13 208 -1 q 71 43 105 27 l 89 183 q 180 146 126 165 q 294 113 233 126 q 419 100 356 100 q 568 134 513 100 q 624 242 624 169 q 596 332 624 297 q 512 392 568 367 q 372 442 456 417 q 225 498 292 465 q 117 584 158 530 q 76 729 76 639 q 116 866 76 806 q 234 958 156 925 q 424 992 311 992 q 600 971 519 992 q 732 925 680 950 l 718 785 q 567 852 639 832 q 418 872 495 872 q 277 840 333 872 q 221 736 221 808 q 246 657 221 688 q 320 604 271 626 q 443 560 369 582 q 617 490 544 529 q 729 393 690 451 q 768 251 768 336 q 744 139 768 189 q 674 53 721 89 q 555 -1 626 18 q 389 -19 484 -19 m 372 1099 l 372 1224 l 506 1224 l 506 1099 l 372 1099 z "},"Ṣ":{"ha":811,"x_min":71,"x_max":768,"o":"m 389 -19 q 268 -10 328 -19 q 156 13 208 -1 q 71 43 105 27 l 89 183 q 180 146 126 165 q 294 113 233 126 q 419 100 356 100 q 568 134 513 100 q 624 242 624 169 q 596 332 624 297 q 512 392 568 367 q 372 442 456 417 q 225 498 292 465 q 117 584 158 530 q 76 729 76 639 q 116 866 76 806 q 234 958 156 925 q 424 992 311 992 q 600 971 519 992 q 732 925 680 950 l 718 785 q 567 852 639 832 q 418 872 495 872 q 277 840 333 872 q 221 736 221 808 q 246 657 221 688 q 320 604 271 626 q 443 560 369 582 q 617 490 544 529 q 729 393 690 451 q 768 251 768 336 q 744 139 768 189 q 674 53 721 89 q 555 -1 626 18 q 389 -19 484 -19 z "},"Ṩ":{"ha":811,"x_min":71,"x_max":768,"o":"m 389 -19 q 268 -10 328 -19 q 156 13 208 -1 q 71 43 105 27 l 89 183 q 180 146 126 165 q 294 113 233 126 q 419 100 356 100 q 568 134 513 100 q 624 242 624 169 q 596 332 624 297 q 512 392 568 367 q 372 442 456 417 q 225 498 292 465 q 117 584 158 530 q 76 729 76 639 q 116 866 76 806 q 234 958 156 925 q 424 992 311 992 q 600 971 519 992 q 732 925 680 950 l 718 785 q 567 852 639 832 q 418 872 495 872 q 277 840 333 872 q 221 736 221 808 q 246 657 221 688 q 320 604 271 626 q 443 560 369 582 q 617 490 544 529 q 729 393 690 451 q 768 251 768 336 q 744 139 768 189 q 674 53 721 89 q 555 -1 626 18 q 389 -19 484 -19 m 372 1099 l 372 1224 l 506 1224 l 506 1099 l 372 1099 z "},"ẞ":{"ha":854,"x_min":111,"x_max":800,"o":"m 111 0 l 111 682 q 156 855 111 786 q 281 958 201 924 q 465 992 360 992 q 628 968 555 992 q 751 910 701 945 l 751 804 l 504 507 l 474 565 q 634 536 560 565 q 754 444 708 508 q 800 275 800 380 q 757 110 800 175 q 644 13 713 44 q 496 -19 574 -19 q 425 -14 458 -19 q 357 0 392 -9 l 357 114 q 486 100 417 100 q 614 146 567 100 q 661 274 661 192 q 606 415 661 365 q 443 465 551 465 l 410 465 l 410 571 l 676 896 l 665 838 q 582 867 632 854 q 465 881 532 881 q 304 828 365 881 q 243 685 243 776 l 243 0 l 111 0 z "},"Ə":{"ha":971,"x_min":42,"x_max":915,"o":"m 771 475 q 683 766 771 660 q 428 872 594 872 q 264 852 344 872 q 110 799 185 831 l 85 910 q 250 968 159 945 q 443 992 341 992 q 694 928 588 992 q 858 749 800 865 q 915 472 915 633 q 885 283 915 372 q 796 126 854 194 q 653 19 738 58 q 461 -19 569 -19 q 245 29 340 -19 q 96 169 150 77 q 42 392 42 260 q 43 437 42 413 q 50 488 45 462 l 832 488 l 832 371 l 186 371 q 254 174 186 247 q 465 100 322 100 q 689 201 607 100 q 771 475 771 301 z "},"T":{"ha":740,"x_min":21,"x_max":719,"o":"m 304 0 l 304 853 l 21 853 l 21 972 l 719 972 l 719 853 l 436 853 l 436 0 l 304 0 z "},"Ŧ":{"ha":740,"x_min":21,"x_max":719,"o":"m 304 0 l 304 853 l 21 853 l 21 972 l 719 972 l 719 853 l 436 853 l 436 0 l 304 0 m 124 454 l 124 542 l 617 542 l 617 454 l 124 454 z "},"Ť":{"ha":740,"x_min":21,"x_max":719,"o":"m 304 0 l 304 853 l 21 853 l 21 972 l 719 972 l 719 853 l 436 853 l 436 0 l 304 0 z "},"Ţ":{"ha":740,"x_min":21,"x_max":719,"o":"m 304 0 l 304 853 l 21 853 l 21 972 l 719 972 l 719 853 l 436 853 l 436 0 l 304 0 z "},"Ț":{"ha":740,"x_min":21,"x_max":719,"o":"m 304 0 l 304 853 l 21 853 l 21 972 l 719 972 l 719 853 l 436 853 l 436 0 l 304 0 m 375 -422 l 296 -422 l 346 -274 l 297 -274 l 297 -126 l 447 -126 l 447 -260 l 375 -422 z "},"Ṭ":{"ha":740,"x_min":21,"x_max":719,"o":"m 304 0 l 304 853 l 21 853 l 21 972 l 719 972 l 719 853 l 436 853 l 436 0 l 304 0 z "},"Ṯ":{"ha":740,"x_min":21,"x_max":719,"o":"m 304 0 l 304 853 l 21 853 l 21 972 l 719 972 l 719 853 l 436 853 l 436 0 l 304 0 z "},"U":{"ha":1006,"x_min":100,"x_max":906,"o":"m 503 -19 q 277 33 366 -19 q 144 182 188 85 q 100 413 100 279 l 100 972 l 232 972 l 232 449 q 242 319 232 382 q 281 208 253 257 q 363 129 309 158 q 503 100 417 100 q 643 129 590 100 q 725 208 697 158 q 763 320 753 258 q 774 449 774 383 l 774 972 l 906 972 l 906 413 q 862 182 906 279 q 729 33 818 85 q 503 -19 640 -19 z "},"Ú":{"ha":1006,"x_min":100,"x_max":906,"o":"m 503 -19 q 277 33 366 -19 q 144 182 188 85 q 100 413 100 279 l 100 972 l 232 972 l 232 449 q 242 319 232 382 q 281 208 253 257 q 363 129 309 158 q 503 100 417 100 q 643 129 590 100 q 725 208 697 158 q 763 320 753 258 q 774 449 774 383 l 774 972 l 906 972 l 906 413 q 862 182 906 279 q 729 33 818 85 q 503 -19 640 -19 m 374 1061 l 374 1142 l 633 1274 l 633 1142 l 374 1061 z "},"Ŭ":{"ha":1006,"x_min":100,"x_max":906,"o":"m 503 -19 q 277 33 366 -19 q 144 182 188 85 q 100 413 100 279 l 100 972 l 232 972 l 232 449 q 242 319 232 382 q 281 208 253 257 q 363 129 309 158 q 503 100 417 100 q 643 129 590 100 q 725 208 697 158 q 763 320 753 258 q 774 449 774 383 l 774 972 l 906 972 l 906 413 q 862 182 906 279 q 729 33 818 85 q 503 -19 640 -19 m 503 1061 q 389 1085 433 1061 q 322 1147 344 1108 q 300 1228 300 1185 l 411 1228 q 438 1167 411 1188 q 503 1147 465 1147 q 567 1167 540 1147 q 594 1228 594 1188 l 706 1228 q 684 1147 706 1185 q 617 1085 662 1108 q 503 1061 572 1061 z "},"Û":{"ha":1006,"x_min":100,"x_max":906,"o":"m 503 -19 q 277 33 366 -19 q 144 182 188 85 q 100 413 100 279 l 100 972 l 232 972 l 232 449 q 242 319 232 382 q 281 208 253 257 q 363 129 309 158 q 503 100 417 100 q 643 129 590 100 q 725 208 697 158 q 763 320 753 258 q 774 449 774 383 l 774 972 l 906 972 l 906 413 q 862 182 906 279 q 729 33 818 85 q 503 -19 640 -19 m 326 1046 l 326 1131 l 503 1256 l 679 1131 l 679 1046 l 503 1138 l 326 1046 z "},"Ȕ":{"ha":1006,"x_min":100,"x_max":906,"o":"m 503 -19 q 277 33 366 -19 q 144 182 188 85 q 100 413 100 279 l 100 972 l 232 972 l 232 449 q 242 319 232 382 q 281 208 253 257 q 363 129 309 158 q 503 100 417 100 q 643 129 590 100 q 725 208 697 158 q 763 320 753 258 q 774 449 774 383 l 774 972 l 906 972 l 906 413 q 862 182 906 279 q 729 33 818 85 q 503 -19 640 -19 m 647 1094 l 556 1094 l 419 1326 l 556 1326 l 647 1094 m 453 1094 l 361 1094 l 218 1326 l 354 1326 l 453 1094 z "},"Ü":{"ha":1006,"x_min":100,"x_max":906,"o":"m 503 -19 q 277 33 366 -19 q 144 182 188 85 q 100 413 100 279 l 100 972 l 232 972 l 232 449 q 242 319 232 382 q 281 208 253 257 q 363 129 309 158 q 503 100 417 100 q 643 129 590 100 q 725 208 697 158 q 763 320 753 258 q 774 449 774 383 l 774 972 l 906 972 l 906 413 q 862 182 906 279 q 729 33 818 85 q 503 -19 640 -19 m 310 1103 l 310 1207 l 429 1207 l 429 1103 l 310 1103 m 576 1103 l 576 1207 l 696 1207 l 696 1103 l 576 1103 z "},"Ụ":{"ha":1006,"x_min":100,"x_max":906,"o":"m 503 -19 q 277 33 366 -19 q 144 182 188 85 q 100 413 100 279 l 100 972 l 232 972 l 232 449 q 242 319 232 382 q 281 208 253 257 q 363 129 309 158 q 503 100 417 100 q 643 129 590 100 q 725 208 697 158 q 763 320 753 258 q 774 449 774 383 l 774 972 l 906 972 l 906 413 q 862 182 906 279 q 729 33 818 85 q 503 -19 640 -19 z "},"Ù":{"ha":1006,"x_min":100,"x_max":906,"o":"m 503 -19 q 277 33 366 -19 q 144 182 188 85 q 100 413 100 279 l 100 972 l 232 972 l 232 449 q 242 319 232 382 q 281 208 253 257 q 363 129 309 158 q 503 100 417 100 q 643 129 590 100 q 725 208 697 158 q 763 320 753 258 q 774 449 774 383 l 774 972 l 906 972 l 906 413 q 862 182 906 279 q 729 33 818 85 q 503 -19 640 -19 m 632 1061 l 372 1142 l 372 1274 l 632 1142 l 632 1061 z "},"Ủ":{"ha":1006,"x_min":100,"x_max":906,"o":"m 503 -19 q 277 33 366 -19 q 144 182 188 85 q 100 413 100 279 l 100 972 l 232 972 l 232 449 q 242 319 232 382 q 281 208 253 257 q 363 129 309 158 q 503 100 417 100 q 643 129 590 100 q 725 208 697 158 q 763 320 753 258 q 774 449 774 383 l 774 972 l 906 972 l 906 413 q 862 182 906 279 q 729 33 818 85 q 503 -19 640 -19 m 501 1056 l 489 1111 q 525 1133 513 1119 q 538 1165 538 1146 q 522 1199 538 1188 q 481 1210 507 1210 q 437 1202 459 1210 q 393 1183 415 1195 l 369 1254 q 420 1274 392 1267 q 481 1281 449 1281 q 578 1253 538 1281 q 618 1174 618 1225 q 591 1099 618 1128 q 501 1056 563 1069 z "},"Ư":{"ha":1006,"x_min":100,"x_max":1071,"o":"m 503 -19 q 277 33 366 -19 q 144 182 188 85 q 100 413 100 279 l 100 972 l 232 972 l 232 449 q 242 319 232 382 q 281 208 253 257 q 363 129 309 158 q 503 100 417 100 q 643 129 590 100 q 725 208 697 158 q 763 320 753 258 q 774 449 774 383 l 774 972 l 906 972 l 906 413 q 862 182 906 279 q 729 33 818 85 q 503 -19 640 -19 m 840 876 l 840 972 q 922 996 892 972 q 951 1075 951 1020 l 1071 1075 q 1040 977 1071 1022 q 958 904 1010 932 q 840 876 906 876 z "},"Ứ":{"ha":1006,"x_min":100,"x_max":1071,"o":"m 503 -19 q 277 33 366 -19 q 144 182 188 85 q 100 413 100 279 l 100 972 l 232 972 l 232 449 q 242 319 232 382 q 281 208 253 257 q 363 129 309 158 q 503 100 417 100 q 643 129 590 100 q 725 208 697 158 q 763 320 753 258 q 774 449 774 383 l 774 972 l 906 972 l 906 413 q 862 182 906 279 q 729 33 818 85 q 503 -19 640 -19 m 840 876 l 840 972 q 922 996 892 972 q 951 1075 951 1020 l 1071 1075 q 1040 977 1071 1022 q 958 904 1010 932 q 840 876 906 876 m 374 1061 l 374 1142 l 633 1274 l 633 1142 l 374 1061 z "},"Ự":{"ha":1006,"x_min":100,"x_max":1071,"o":"m 503 -19 q 277 33 366 -19 q 144 182 188 85 q 100 413 100 279 l 100 972 l 232 972 l 232 449 q 242 319 232 382 q 281 208 253 257 q 363 129 309 158 q 503 100 417 100 q 643 129 590 100 q 725 208 697 158 q 763 320 753 258 q 774 449 774 383 l 774 972 l 906 972 l 906 413 q 862 182 906 279 q 729 33 818 85 q 503 -19 640 -19 m 840 876 l 840 972 q 922 996 892 972 q 951 1075 951 1020 l 1071 1075 q 1040 977 1071 1022 q 958 904 1010 932 q 840 876 906 876 z "},"Ừ":{"ha":1006,"x_min":100,"x_max":1071,"o":"m 503 -19 q 277 33 366 -19 q 144 182 188 85 q 100 413 100 279 l 100 972 l 232 972 l 232 449 q 242 319 232 382 q 281 208 253 257 q 363 129 309 158 q 503 100 417 100 q 643 129 590 100 q 725 208 697 158 q 763 320 753 258 q 774 449 774 383 l 774 972 l 906 972 l 906 413 q 862 182 906 279 q 729 33 818 85 q 503 -19 640 -19 m 840 876 l 840 972 q 922 996 892 972 q 951 1075 951 1020 l 1071 1075 q 1040 977 1071 1022 q 958 904 1010 932 q 840 876 906 876 m 632 1061 l 372 1142 l 372 1274 l 632 1142 l 632 1061 z "},"Ử":{"ha":1006,"x_min":100,"x_max":1071,"o":"m 503 -19 q 277 33 366 -19 q 144 182 188 85 q 100 413 100 279 l 100 972 l 232 972 l 232 449 q 242 319 232 382 q 281 208 253 257 q 363 129 309 158 q 503 100 417 100 q 643 129 590 100 q 725 208 697 158 q 763 320 753 258 q 774 449 774 383 l 774 972 l 906 972 l 906 413 q 862 182 906 279 q 729 33 818 85 q 503 -19 640 -19 m 840 876 l 840 972 q 922 996 892 972 q 951 1075 951 1020 l 1071 1075 q 1040 977 1071 1022 q 958 904 1010 932 q 840 876 906 876 m 501 1056 l 489 1111 q 525 1133 513 1119 q 538 1165 538 1146 q 522 1199 538 1188 q 481 1210 507 1210 q 437 1202 459 1210 q 393 1183 415 1195 l 369 1254 q 420 1274 392 1267 q 481 1281 449 1281 q 578 1253 538 1281 q 618 1174 618 1225 q 591 1099 618 1128 q 501 1056 563 1069 z "},"Ữ":{"ha":1006,"x_min":100,"x_max":1071,"o":"m 503 -19 q 277 33 366 -19 q 144 182 188 85 q 100 413 100 279 l 100 972 l 232 972 l 232 449 q 242 319 232 382 q 281 208 253 257 q 363 129 309 158 q 503 100 417 100 q 643 129 590 100 q 725 208 697 158 q 763 320 753 258 q 774 449 774 383 l 774 972 l 906 972 l 906 413 q 862 182 906 279 q 729 33 818 85 q 503 -19 640 -19 m 840 876 l 840 972 q 922 996 892 972 q 951 1075 951 1020 l 1071 1075 q 1040 977 1071 1022 q 958 904 1010 932 q 840 876 906 876 m 618 1094 q 551 1109 586 1094 q 483 1137 516 1123 q 424 1151 450 1151 q 376 1101 376 1151 l 286 1101 q 313 1205 286 1169 q 388 1240 340 1240 q 455 1226 419 1240 q 523 1198 490 1212 q 582 1183 556 1183 q 629 1233 629 1183 l 719 1233 q 693 1130 719 1166 q 618 1094 666 1094 z "},"Ű":{"ha":1006,"x_min":100,"x_max":906,"o":"m 503 -19 q 277 33 366 -19 q 144 182 188 85 q 100 413 100 279 l 100 972 l 232 972 l 232 449 q 242 319 232 382 q 281 208 253 257 q 363 129 309 158 q 503 100 417 100 q 643 129 590 100 q 725 208 697 158 q 763 320 753 258 q 774 449 774 383 l 774 972 l 906 972 l 906 413 q 862 182 906 279 q 729 33 818 85 q 503 -19 640 -19 m 358 1094 l 450 1299 l 586 1299 l 450 1094 l 358 1094 m 553 1094 l 651 1299 l 788 1299 l 644 1094 l 553 1094 z "},"Ȗ":{"ha":1006,"x_min":100,"x_max":906,"o":"m 503 -19 q 277 33 366 -19 q 144 182 188 85 q 100 413 100 279 l 100 972 l 232 972 l 232 449 q 242 319 232 382 q 281 208 253 257 q 363 129 309 158 q 503 100 417 100 q 643 129 590 100 q 725 208 697 158 q 763 320 753 258 q 774 449 774 383 l 774 972 l 906 972 l 906 413 q 862 182 906 279 q 729 33 818 85 q 503 -19 640 -19 m 503 1249 q 617 1225 572 1249 q 684 1163 662 1201 q 706 1082 706 1125 l 594 1082 q 567 1143 594 1123 q 503 1163 540 1163 q 438 1143 465 1163 q 411 1082 411 1123 l 300 1082 q 322 1163 300 1125 q 389 1225 344 1201 q 503 1249 433 1249 z "},"Ū":{"ha":1006,"x_min":100,"x_max":906,"o":"m 503 -19 q 277 33 366 -19 q 144 182 188 85 q 100 413 100 279 l 100 972 l 232 972 l 232 449 q 242 319 232 382 q 281 208 253 257 q 363 129 309 158 q 503 100 417 100 q 643 129 590 100 q 725 208 697 158 q 763 320 753 258 q 774 449 774 383 l 774 972 l 906 972 l 906 413 q 862 182 906 279 q 729 33 818 85 q 503 -19 640 -19 m 281 1101 l 281 1196 l 725 1196 l 725 1101 l 281 1101 z "},"Ṻ":{"ha":1006,"x_min":100,"x_max":906,"o":"m 503 -19 q 277 33 366 -19 q 144 182 188 85 q 100 413 100 279 l 100 972 l 232 972 l 232 449 q 242 319 232 382 q 281 208 253 257 q 363 129 309 158 q 503 100 417 100 q 643 129 590 100 q 725 208 697 158 q 763 320 753 258 q 774 449 774 383 l 774 972 l 906 972 l 906 413 q 862 182 906 279 q 729 33 818 85 q 503 -19 640 -19 m 281 1101 l 281 1196 l 725 1196 l 725 1101 l 281 1101 m 310 1342 l 310 1446 l 429 1446 l 429 1342 l 310 1342 m 576 1342 l 576 1446 l 696 1446 l 696 1342 l 576 1342 z "},"Ų":{"ha":1006,"x_min":100,"x_max":906,"o":"m 503 -19 q 277 33 366 -19 q 144 182 188 85 q 100 413 100 279 l 100 972 l 232 972 l 232 449 q 242 319 232 382 q 281 208 253 257 q 363 129 309 158 q 503 100 417 100 q 643 129 590 100 q 725 208 697 158 q 763 320 753 258 q 774 449 774 383 l 774 972 l 906 972 l 906 413 q 862 182 906 279 q 729 33 818 85 q 503 -19 640 -19 m 568 0 l 642 0 q 563 -73 593 -37 q 533 -147 533 -108 q 552 -200 533 -183 q 600 -218 570 -218 q 645 -212 624 -218 q 688 -194 667 -206 l 708 -262 q 660 -281 689 -273 q 593 -289 631 -289 q 494 -258 535 -289 q 453 -169 453 -228 q 490 -69 453 -114 q 568 0 526 -24 z "},"Ů":{"ha":1006,"x_min":100,"x_max":906,"o":"m 503 -19 q 277 33 366 -19 q 144 182 188 85 q 100 413 100 279 l 100 972 l 232 972 l 232 449 q 242 319 232 382 q 281 208 253 257 q 363 129 309 158 q 503 100 417 100 q 643 129 590 100 q 725 208 697 158 q 763 320 753 258 q 774 449 774 383 l 774 972 l 906 972 l 906 413 q 862 182 906 279 q 729 33 818 85 q 503 -19 640 -19 m 503 1050 q 395 1092 431 1050 q 358 1186 358 1133 q 395 1280 358 1238 q 503 1322 432 1322 q 611 1280 575 1322 q 647 1186 647 1238 q 611 1092 647 1133 q 503 1050 576 1050 m 503 1111 q 555 1131 532 1111 q 578 1186 578 1151 q 556 1240 578 1219 q 503 1261 533 1261 q 450 1240 473 1261 q 428 1186 428 1219 q 451 1131 428 1151 q 503 1111 474 1111 z "},"Ũ":{"ha":1006,"x_min":100,"x_max":906,"o":"m 503 -19 q 277 33 366 -19 q 144 182 188 85 q 100 413 100 279 l 100 972 l 232 972 l 232 449 q 242 319 232 382 q 281 208 253 257 q 363 129 309 158 q 503 100 417 100 q 643 129 590 100 q 725 208 697 158 q 763 320 753 258 q 774 449 774 383 l 774 972 l 906 972 l 906 413 q 862 182 906 279 q 729 33 818 85 q 503 -19 640 -19 m 618 1094 q 551 1109 586 1094 q 483 1137 516 1123 q 424 1151 450 1151 q 376 1101 376 1151 l 286 1101 q 313 1205 286 1169 q 388 1240 340 1240 q 455 1226 419 1240 q 523 1198 490 1212 q 582 1183 556 1183 q 629 1233 629 1183 l 719 1233 q 693 1130 719 1166 q 618 1094 666 1094 z "},"Ṹ":{"ha":1006,"x_min":100,"x_max":906,"o":"m 503 -19 q 277 33 366 -19 q 144 182 188 85 q 100 413 100 279 l 100 972 l 232 972 l 232 449 q 242 319 232 382 q 281 208 253 257 q 363 129 309 158 q 503 100 417 100 q 643 129 590 100 q 725 208 697 158 q 763 320 753 258 q 774 449 774 383 l 774 972 l 906 972 l 906 413 q 862 182 906 279 q 729 33 818 85 q 503 -19 640 -19 m 618 1094 q 551 1109 586 1094 q 483 1137 516 1123 q 424 1151 450 1151 q 376 1101 376 1151 l 286 1101 q 313 1205 286 1169 q 388 1240 340 1240 q 455 1226 419 1240 q 523 1198 490 1212 q 582 1183 556 1183 q 629 1233 629 1183 l 719 1233 q 693 1130 719 1166 q 618 1094 666 1094 m 374 1306 l 374 1386 l 633 1518 l 633 1386 l 374 1306 z "},"V":{"ha":847,"x_min":6,"x_max":842,"o":"m 354 0 l 6 972 l 144 972 l 443 129 l 404 129 l 703 972 l 842 972 l 493 0 l 354 0 z "},"W":{"ha":1314,"x_min":6,"x_max":1308,"o":"m 281 0 l 6 972 l 144 972 l 350 171 l 588 953 l 726 953 l 964 171 l 1169 972 l 1308 972 l 1033 0 l 893 0 l 657 782 l 421 0 l 281 0 z "},"Ẃ":{"ha":1314,"x_min":6,"x_max":1308,"o":"m 281 0 l 6 972 l 144 972 l 350 171 l 588 953 l 726 953 l 964 171 l 1169 972 l 1308 972 l 1033 0 l 893 0 l 657 782 l 421 0 l 281 0 m 532 1061 l 532 1142 l 792 1274 l 792 1142 l 532 1061 z "},"Ŵ":{"ha":1314,"x_min":6,"x_max":1308,"o":"m 281 0 l 6 972 l 144 972 l 350 171 l 588 953 l 726 953 l 964 171 l 1169 972 l 1308 972 l 1033 0 l 893 0 l 657 782 l 421 0 l 281 0 m 485 1046 l 485 1131 l 661 1256 l 838 1131 l 838 1046 l 661 1138 l 485 1046 z "},"Ẅ":{"ha":1314,"x_min":6,"x_max":1308,"o":"m 281 0 l 6 972 l 144 972 l 350 171 l 588 953 l 726 953 l 964 171 l 1169 972 l 1308 972 l 1033 0 l 893 0 l 657 782 l 421 0 l 281 0 m 468 1103 l 468 1207 l 588 1207 l 588 1103 l 468 1103 m 735 1103 l 735 1207 l 854 1207 l 854 1103 l 735 1103 z "},"Ẁ":{"ha":1314,"x_min":6,"x_max":1308,"o":"m 281 0 l 6 972 l 144 972 l 350 171 l 588 953 l 726 953 l 964 171 l 1169 972 l 1308 972 l 1033 0 l 893 0 l 657 782 l 421 0 l 281 0 m 790 1061 l 531 1142 l 531 1274 l 790 1142 l 790 1061 z "},"X":{"ha":824,"x_min":6,"x_max":818,"o":"m 6 0 l 336 490 l 11 972 l 164 972 l 413 604 l 660 972 l 813 972 l 489 490 l 818 0 l 665 0 l 413 376 l 158 0 l 6 0 z "},"Y":{"ha":788,"x_min":-15,"x_max":801,"o":"m 328 0 l 328 421 l -15 972 l 135 972 l 424 500 l 363 500 l 651 972 l 801 972 l 460 421 l 460 0 l 328 0 z "},"Ý":{"ha":788,"x_min":-15,"x_max":801,"o":"m 328 0 l 328 421 l -15 972 l 135 972 l 424 500 l 363 500 l 651 972 l 801 972 l 460 421 l 460 0 l 328 0 m 264 1061 l 264 1142 l 524 1274 l 524 1142 l 264 1061 z "},"Ŷ":{"ha":788,"x_min":-15,"x_max":801,"o":"m 328 0 l 328 421 l -15 972 l 135 972 l 424 500 l 363 500 l 651 972 l 801 972 l 460 421 l 460 0 l 328 0 m 217 1046 l 217 1131 l 393 1256 l 569 1131 l 569 1046 l 393 1138 l 217 1046 z "},"Ÿ":{"ha":788,"x_min":-15,"x_max":801,"o":"m 328 0 l 328 421 l -15 972 l 135 972 l 424 500 l 363 500 l 651 972 l 801 972 l 460 421 l 460 0 l 328 0 m 200 1103 l 200 1207 l 319 1207 l 319 1103 l 200 1103 m 467 1103 l 467 1207 l 586 1207 l 586 1103 l 467 1103 z "},"Ẏ":{"ha":788,"x_min":-15,"x_max":801,"o":"m 328 0 l 328 421 l -15 972 l 135 972 l 424 500 l 363 500 l 651 972 l 801 972 l 460 421 l 460 0 l 328 0 m 326 1099 l 326 1224 l 460 1224 l 460 1099 l 326 1099 z "},"Ỵ":{"ha":788,"x_min":-15,"x_max":801,"o":"m 328 0 l 328 421 l -15 972 l 135 972 l 424 500 l 363 500 l 651 972 l 801 972 l 460 421 l 460 0 l 328 0 z "},"Ỳ":{"ha":788,"x_min":-15,"x_max":801,"o":"m 328 0 l 328 421 l -15 972 l 135 972 l 424 500 l 363 500 l 651 972 l 801 972 l 460 421 l 460 0 l 328 0 m 522 1061 l 263 1142 l 263 1274 l 522 1142 l 522 1061 z "},"Ỷ":{"ha":788,"x_min":-15,"x_max":801,"o":"m 328 0 l 328 421 l -15 972 l 135 972 l 424 500 l 363 500 l 651 972 l 801 972 l 460 421 l 460 0 l 328 0 m 392 1056 l 379 1111 q 416 1133 403 1119 q 428 1165 428 1146 q 413 1199 428 1188 q 371 1210 397 1210 q 327 1202 349 1210 q 283 1183 306 1195 l 260 1254 q 311 1274 283 1267 q 371 1281 339 1281 q 468 1253 428 1281 q 508 1174 508 1225 q 481 1099 508 1128 q 392 1056 453 1069 z "},"Ȳ":{"ha":788,"x_min":-15,"x_max":801,"o":"m 328 0 l 328 421 l -15 972 l 135 972 l 424 500 l 363 500 l 651 972 l 801 972 l 460 421 l 460 0 l 328 0 m 171 1101 l 171 1196 l 615 1196 l 615 1101 l 171 1101 z "},"Ỹ":{"ha":788,"x_min":-15,"x_max":801,"o":"m 328 0 l 328 421 l -15 972 l 135 972 l 424 500 l 363 500 l 651 972 l 801 972 l 460 421 l 460 0 l 328 0 m 508 1094 q 441 1109 476 1094 q 373 1137 406 1123 q 314 1151 340 1151 q 267 1101 267 1151 l 176 1101 q 203 1205 176 1169 q 278 1240 230 1240 q 345 1226 310 1240 q 413 1198 380 1212 q 472 1183 446 1183 q 519 1233 519 1183 l 610 1233 q 583 1130 610 1166 q 508 1094 556 1094 z "},"Z":{"ha":763,"x_min":13,"x_max":753,"o":"m 13 0 l 569 903 l 594 853 l 75 853 l 75 972 l 753 972 l 193 69 l 169 119 l 746 119 l 746 0 l 13 0 z "},"Ź":{"ha":763,"x_min":13,"x_max":753,"o":"m 13 0 l 569 903 l 594 853 l 75 853 l 75 972 l 753 972 l 193 69 l 169 119 l 746 119 l 746 0 l 13 0 m 285 1061 l 285 1142 l 544 1274 l 544 1142 l 285 1061 z "},"Ž":{"ha":763,"x_min":13,"x_max":753,"o":"m 13 0 l 569 903 l 594 853 l 75 853 l 75 972 l 753 972 l 193 69 l 169 119 l 746 119 l 746 0 l 13 0 z "},"Ż":{"ha":763,"x_min":13,"x_max":753,"o":"m 13 0 l 569 903 l 594 853 l 75 853 l 75 972 l 753 972 l 193 69 l 169 119 l 746 119 l 746 0 l 13 0 m 347 1099 l 347 1224 l 481 1224 l 481 1099 l 347 1099 z "},"Ẓ":{"ha":763,"x_min":13,"x_max":753,"o":"m 13 0 l 569 903 l 594 853 l 75 853 l 75 972 l 753 972 l 193 69 l 169 119 l 746 119 l 746 0 l 13 0 z "},"a":{"ha":667,"x_min":33,"x_max":656,"o":"m 243 -14 q 133 12 180 -14 q 59 82 85 38 q 33 183 33 126 q 59 282 33 241 q 127 351 84 324 q 222 395 169 378 q 332 418 275 411 q 440 426 388 426 q 402 553 440 524 q 292 583 364 583 q 210 572 253 583 q 113 522 167 560 l 94 624 q 197 675 135 655 q 325 694 258 694 q 464 664 411 694 q 541 563 517 634 q 565 368 565 491 l 565 229 q 570 149 565 181 q 591 102 574 117 q 643 86 607 86 l 656 86 l 636 -14 l 626 -14 q 533 -2 566 -14 q 483 32 500 10 q 451 86 465 54 q 361 14 413 42 q 243 -14 309 -14 m 267 86 q 364 111 317 86 q 440 178 410 136 l 440 340 q 280 321 341 337 q 190 273 218 305 q 161 190 161 241 q 191 111 161 135 q 267 86 220 86 z "},"á":{"ha":667,"x_min":33,"x_max":656,"o":"m 243 -14 q 133 12 180 -14 q 59 82 85 38 q 33 183 33 126 q 59 282 33 241 q 127 351 84 324 q 222 395 169 378 q 332 418 275 411 q 440 426 388 426 q 402 553 440 524 q 292 583 364 583 q 210 572 253 583 q 113 522 167 560 l 94 624 q 197 675 135 655 q 325 694 258 694 q 464 664 411 694 q 541 563 517 634 q 565 368 565 491 l 565 229 q 570 149 565 181 q 591 102 574 117 q 643 86 607 86 l 656 86 l 636 -14 l 626 -14 q 533 -2 566 -14 q 483 32 500 10 q 451 86 465 54 q 361 14 413 42 q 243 -14 309 -14 m 267 86 q 364 111 317 86 q 440 178 410 136 l 440 340 q 280 321 341 337 q 190 273 218 305 q 161 190 161 241 q 191 111 161 135 q 267 86 220 86 m 196 800 l 196 885 l 456 1038 l 456 901 l 196 800 z "},"ă":{"ha":667,"x_min":33,"x_max":656,"o":"m 243 -14 q 133 12 180 -14 q 59 82 85 38 q 33 183 33 126 q 59 282 33 241 q 127 351 84 324 q 222 395 169 378 q 332 418 275 411 q 440 426 388 426 q 402 553 440 524 q 292 583 364 583 q 210 572 253 583 q 113 522 167 560 l 94 624 q 197 675 135 655 q 325 694 258 694 q 464 664 411 694 q 541 563 517 634 q 565 368 565 491 l 565 229 q 570 149 565 181 q 591 102 574 117 q 643 86 607 86 l 656 86 l 636 -14 l 626 -14 q 533 -2 566 -14 q 483 32 500 10 q 451 86 465 54 q 361 14 413 42 q 243 -14 309 -14 m 267 86 q 364 111 317 86 q 440 178 410 136 l 440 340 q 280 321 341 337 q 190 273 218 305 q 161 190 161 241 q 191 111 161 135 q 267 86 220 86 m 325 800 q 211 825 256 800 q 144 890 166 850 q 122 976 122 931 l 233 976 q 260 913 233 934 q 325 892 288 892 q 390 913 363 892 q 417 976 417 934 l 528 976 q 506 890 528 931 q 439 825 484 850 q 325 800 394 800 z "},"ắ":{"ha":667,"x_min":33,"x_max":656,"o":"m 243 -14 q 133 12 180 -14 q 59 82 85 38 q 33 183 33 126 q 59 282 33 241 q 127 351 84 324 q 222 395 169 378 q 332 418 275 411 q 440 426 388 426 q 402 553 440 524 q 292 583 364 583 q 210 572 253 583 q 113 522 167 560 l 94 624 q 197 675 135 655 q 325 694 258 694 q 464 664 411 694 q 541 563 517 634 q 565 368 565 491 l 565 229 q 570 149 565 181 q 591 102 574 117 q 643 86 607 86 l 656 86 l 636 -14 l 626 -14 q 533 -2 566 -14 q 483 32 500 10 q 451 86 465 54 q 361 14 413 42 q 243 -14 309 -14 m 267 86 q 364 111 317 86 q 440 178 410 136 l 440 340 q 280 321 341 337 q 190 273 218 305 q 161 190 161 241 q 191 111 161 135 q 267 86 220 86 m 325 769 q 211 793 256 769 q 144 855 166 817 q 122 936 122 893 l 233 936 q 260 876 233 896 q 325 856 288 856 q 390 876 363 856 q 417 936 417 896 l 528 936 q 506 855 528 893 q 439 793 484 817 q 325 769 394 769 m 196 997 l 196 1078 l 456 1210 l 456 1078 l 196 997 z "},"ặ":{"ha":667,"x_min":33,"x_max":656,"o":"m 243 -14 q 133 12 180 -14 q 59 82 85 38 q 33 183 33 126 q 59 282 33 241 q 127 351 84 324 q 222 395 169 378 q 332 418 275 411 q 440 426 388 426 q 402 553 440 524 q 292 583 364 583 q 210 572 253 583 q 113 522 167 560 l 94 624 q 197 675 135 655 q 325 694 258 694 q 464 664 411 694 q 541 563 517 634 q 565 368 565 491 l 565 229 q 570 149 565 181 q 591 102 574 117 q 643 86 607 86 l 656 86 l 636 -14 l 626 -14 q 533 -2 566 -14 q 483 32 500 10 q 451 86 465 54 q 361 14 413 42 q 243 -14 309 -14 m 267 86 q 364 111 317 86 q 440 178 410 136 l 440 340 q 280 321 341 337 q 190 273 218 305 q 161 190 161 241 q 191 111 161 135 q 267 86 220 86 m 325 800 q 211 825 256 800 q 144 890 166 850 q 122 976 122 931 l 233 976 q 260 913 233 934 q 325 892 288 892 q 390 913 363 892 q 417 976 417 934 l 528 976 q 506 890 528 931 q 439 825 484 850 q 325 800 394 800 z "},"ằ":{"ha":667,"x_min":33,"x_max":656,"o":"m 243 -14 q 133 12 180 -14 q 59 82 85 38 q 33 183 33 126 q 59 282 33 241 q 127 351 84 324 q 222 395 169 378 q 332 418 275 411 q 440 426 388 426 q 402 553 440 524 q 292 583 364 583 q 210 572 253 583 q 113 522 167 560 l 94 624 q 197 675 135 655 q 325 694 258 694 q 464 664 411 694 q 541 563 517 634 q 565 368 565 491 l 565 229 q 570 149 565 181 q 591 102 574 117 q 643 86 607 86 l 656 86 l 636 -14 l 626 -14 q 533 -2 566 -14 q 483 32 500 10 q 451 86 465 54 q 361 14 413 42 q 243 -14 309 -14 m 267 86 q 364 111 317 86 q 440 178 410 136 l 440 340 q 280 321 341 337 q 190 273 218 305 q 161 190 161 241 q 191 111 161 135 q 267 86 220 86 m 325 768 q 211 792 256 768 q 144 853 166 815 q 122 935 122 892 l 233 935 q 260 874 233 894 q 325 854 288 854 q 390 874 363 854 q 417 935 417 894 l 528 935 q 506 853 528 892 q 439 792 484 815 q 325 768 394 768 m 454 996 l 194 1076 l 194 1208 l 454 1076 l 454 996 z "},"ẳ":{"ha":667,"x_min":33,"x_max":656,"o":"m 243 -14 q 133 12 180 -14 q 59 82 85 38 q 33 183 33 126 q 59 282 33 241 q 127 351 84 324 q 222 395 169 378 q 332 418 275 411 q 440 426 388 426 q 402 553 440 524 q 292 583 364 583 q 210 572 253 583 q 113 522 167 560 l 94 624 q 197 675 135 655 q 325 694 258 694 q 464 664 411 694 q 541 563 517 634 q 565 368 565 491 l 565 229 q 570 149 565 181 q 591 102 574 117 q 643 86 607 86 l 656 86 l 636 -14 l 626 -14 q 533 -2 566 -14 q 483 32 500 10 q 451 86 465 54 q 361 14 413 42 q 243 -14 309 -14 m 267 86 q 364 111 317 86 q 440 178 410 136 l 440 340 q 280 321 341 337 q 190 273 218 305 q 161 190 161 241 q 191 111 161 135 q 267 86 220 86 m 325 769 q 211 793 256 769 q 144 855 166 817 q 122 936 122 893 l 233 936 q 260 876 233 896 q 325 856 288 856 q 390 876 363 856 q 417 936 417 896 l 528 936 q 506 855 528 893 q 439 793 484 817 q 325 769 394 769 m 338 958 l 325 1014 q 361 1035 349 1022 q 374 1068 374 1049 q 358 1102 374 1091 q 317 1113 343 1113 q 273 1105 295 1113 q 229 1086 251 1098 l 206 1157 q 257 1176 228 1169 q 317 1183 285 1183 q 414 1156 374 1183 q 454 1076 454 1128 q 427 1001 454 1031 q 338 958 399 972 z "},"ẵ":{"ha":667,"x_min":33,"x_max":656,"o":"m 243 -14 q 133 12 180 -14 q 59 82 85 38 q 33 183 33 126 q 59 282 33 241 q 127 351 84 324 q 222 395 169 378 q 332 418 275 411 q 440 426 388 426 q 402 553 440 524 q 292 583 364 583 q 210 572 253 583 q 113 522 167 560 l 94 624 q 197 675 135 655 q 325 694 258 694 q 464 664 411 694 q 541 563 517 634 q 565 368 565 491 l 565 229 q 570 149 565 181 q 591 102 574 117 q 643 86 607 86 l 656 86 l 636 -14 l 626 -14 q 533 -2 566 -14 q 483 32 500 10 q 451 86 465 54 q 361 14 413 42 q 243 -14 309 -14 m 267 86 q 364 111 317 86 q 440 178 410 136 l 440 340 q 280 321 341 337 q 190 273 218 305 q 161 190 161 241 q 191 111 161 135 q 267 86 220 86 m 325 769 q 211 793 256 769 q 144 855 166 817 q 122 936 122 893 l 233 936 q 260 876 233 896 q 325 856 288 856 q 390 876 363 856 q 417 936 417 896 l 528 936 q 506 855 528 893 q 439 793 484 817 q 325 769 394 769 m 440 1001 q 373 1016 408 1001 q 305 1044 338 1030 q 246 1058 272 1058 q 199 1008 199 1058 l 108 1008 q 135 1112 108 1076 q 210 1147 162 1147 q 277 1133 242 1147 q 345 1105 312 1119 q 404 1090 378 1090 q 451 1140 451 1090 l 542 1140 q 515 1037 542 1073 q 440 1001 488 1001 z "},"â":{"ha":667,"x_min":33,"x_max":656,"o":"m 243 -14 q 133 12 180 -14 q 59 82 85 38 q 33 183 33 126 q 59 282 33 241 q 127 351 84 324 q 222 395 169 378 q 332 418 275 411 q 440 426 388 426 q 402 553 440 524 q 292 583 364 583 q 210 572 253 583 q 113 522 167 560 l 94 624 q 197 675 135 655 q 325 694 258 694 q 464 664 411 694 q 541 563 517 634 q 565 368 565 491 l 565 229 q 570 149 565 181 q 591 102 574 117 q 643 86 607 86 l 656 86 l 636 -14 l 626 -14 q 533 -2 566 -14 q 483 32 500 10 q 451 86 465 54 q 361 14 413 42 q 243 -14 309 -14 m 267 86 q 364 111 317 86 q 440 178 410 136 l 440 340 q 280 321 341 337 q 190 273 218 305 q 161 190 161 241 q 191 111 161 135 q 267 86 220 86 m 149 783 l 149 868 l 325 1021 l 501 868 l 501 783 l 325 894 l 149 783 z "},"ấ":{"ha":667,"x_min":33,"x_max":657,"o":"m 243 -14 q 133 12 180 -14 q 59 82 85 38 q 33 183 33 126 q 59 282 33 241 q 127 351 84 324 q 222 395 169 378 q 332 418 275 411 q 440 426 388 426 q 402 553 440 524 q 292 583 364 583 q 210 572 253 583 q 113 522 167 560 l 94 624 q 197 675 135 655 q 325 694 258 694 q 464 664 411 694 q 541 563 517 634 q 565 368 565 491 l 565 229 q 570 149 565 181 q 591 102 574 117 q 643 86 607 86 l 656 86 l 636 -14 l 626 -14 q 533 -2 566 -14 q 483 32 500 10 q 451 86 465 54 q 361 14 413 42 q 243 -14 309 -14 m 267 86 q 364 111 317 86 q 440 178 410 136 l 440 340 q 280 321 341 337 q 190 273 218 305 q 161 190 161 241 q 191 111 161 135 q 267 86 220 86 m 149 754 l 149 839 l 325 964 l 501 839 l 501 754 l 325 846 l 149 754 m 429 957 l 521 1119 l 657 1119 l 521 957 l 429 957 z "},"ậ":{"ha":667,"x_min":33,"x_max":656,"o":"m 243 -14 q 133 12 180 -14 q 59 82 85 38 q 33 183 33 126 q 59 282 33 241 q 127 351 84 324 q 222 395 169 378 q 332 418 275 411 q 440 426 388 426 q 402 553 440 524 q 292 583 364 583 q 210 572 253 583 q 113 522 167 560 l 94 624 q 197 675 135 655 q 325 694 258 694 q 464 664 411 694 q 541 563 517 634 q 565 368 565 491 l 565 229 q 570 149 565 181 q 591 102 574 117 q 643 86 607 86 l 656 86 l 636 -14 l 626 -14 q 533 -2 566 -14 q 483 32 500 10 q 451 86 465 54 q 361 14 413 42 q 243 -14 309 -14 m 267 86 q 364 111 317 86 q 440 178 410 136 l 440 340 q 280 321 341 337 q 190 273 218 305 q 161 190 161 241 q 191 111 161 135 q 267 86 220 86 m 149 783 l 149 868 l 325 1021 l 501 868 l 501 783 l 325 894 l 149 783 z "},"ầ":{"ha":667,"x_min":33,"x_max":656,"o":"m 243 -14 q 133 12 180 -14 q 59 82 85 38 q 33 183 33 126 q 59 282 33 241 q 127 351 84 324 q 222 395 169 378 q 332 418 275 411 q 440 426 388 426 q 402 553 440 524 q 292 583 364 583 q 210 572 253 583 q 113 522 167 560 l 94 624 q 197 675 135 655 q 325 694 258 694 q 464 664 411 694 q 541 563 517 634 q 565 368 565 491 l 565 229 q 570 149 565 181 q 591 102 574 117 q 643 86 607 86 l 656 86 l 636 -14 l 626 -14 q 533 -2 566 -14 q 483 32 500 10 q 451 86 465 54 q 361 14 413 42 q 243 -14 309 -14 m 267 86 q 364 111 317 86 q 440 178 410 136 l 440 340 q 280 321 341 337 q 190 273 218 305 q 161 190 161 241 q 191 111 161 135 q 267 86 220 86 m 149 754 l 149 839 l 325 964 l 501 839 l 501 754 l 325 846 l 149 754 m 449 957 l 328 1119 l 460 1119 l 538 957 l 449 957 z "},"ẩ":{"ha":667,"x_min":33,"x_max":656,"o":"m 243 -14 q 133 12 180 -14 q 59 82 85 38 q 33 183 33 126 q 59 282 33 241 q 127 351 84 324 q 222 395 169 378 q 332 418 275 411 q 440 426 388 426 q 402 553 440 524 q 292 583 364 583 q 210 572 253 583 q 113 522 167 560 l 94 624 q 197 675 135 655 q 325 694 258 694 q 464 664 411 694 q 541 563 517 634 q 565 368 565 491 l 565 229 q 570 149 565 181 q 591 102 574 117 q 643 86 607 86 l 656 86 l 636 -14 l 626 -14 q 533 -2 566 -14 q 483 32 500 10 q 451 86 465 54 q 361 14 413 42 q 243 -14 309 -14 m 267 86 q 364 111 317 86 q 440 178 410 136 l 440 340 q 280 321 341 337 q 190 273 218 305 q 161 190 161 241 q 191 111 161 135 q 267 86 220 86 m 149 754 l 149 839 l 325 964 l 501 839 l 501 754 l 325 846 l 149 754 m 458 919 l 446 975 q 482 997 470 983 q 494 1029 494 1010 q 479 1063 494 1052 q 438 1074 464 1074 q 394 1066 416 1074 q 350 1047 372 1059 l 326 1118 q 377 1138 349 1131 q 438 1144 406 1144 q 535 1117 495 1144 q 575 1038 575 1089 q 548 963 575 992 q 458 919 520 933 z "},"ẫ":{"ha":667,"x_min":33,"x_max":656,"o":"m 243 -14 q 133 12 180 -14 q 59 82 85 38 q 33 183 33 126 q 59 282 33 241 q 127 351 84 324 q 222 395 169 378 q 332 418 275 411 q 440 426 388 426 q 402 553 440 524 q 292 583 364 583 q 210 572 253 583 q 113 522 167 560 l 94 624 q 197 675 135 655 q 325 694 258 694 q 464 664 411 694 q 541 563 517 634 q 565 368 565 491 l 565 229 q 570 149 565 181 q 591 102 574 117 q 643 86 607 86 l 656 86 l 636 -14 l 626 -14 q 533 -2 566 -14 q 483 32 500 10 q 451 86 465 54 q 361 14 413 42 q 243 -14 309 -14 m 267 86 q 364 111 317 86 q 440 178 410 136 l 440 340 q 280 321 341 337 q 190 273 218 305 q 161 190 161 241 q 191 111 161 135 q 267 86 220 86 m 149 754 l 149 839 l 325 964 l 501 839 l 501 754 l 325 846 l 149 754 m 440 1021 q 373 1035 408 1021 q 305 1064 338 1049 q 246 1078 272 1078 q 199 1028 199 1078 l 108 1028 q 135 1131 108 1096 q 210 1167 162 1167 q 277 1152 242 1167 q 345 1124 312 1138 q 404 1110 378 1110 q 451 1160 451 1110 l 542 1160 q 515 1057 542 1092 q 440 1021 488 1021 z "},"ȁ":{"ha":667,"x_min":33,"x_max":656,"o":"m 243 -14 q 133 12 180 -14 q 59 82 85 38 q 33 183 33 126 q 59 282 33 241 q 127 351 84 324 q 222 395 169 378 q 332 418 275 411 q 440 426 388 426 q 402 553 440 524 q 292 583 364 583 q 210 572 253 583 q 113 522 167 560 l 94 624 q 197 675 135 655 q 325 694 258 694 q 464 664 411 694 q 541 563 517 634 q 565 368 565 491 l 565 229 q 570 149 565 181 q 591 102 574 117 q 643 86 607 86 l 656 86 l 636 -14 l 626 -14 q 533 -2 566 -14 q 483 32 500 10 q 451 86 465 54 q 361 14 413 42 q 243 -14 309 -14 m 267 86 q 364 111 317 86 q 440 178 410 136 l 440 340 q 280 321 341 337 q 190 273 218 305 q 161 190 161 241 q 191 111 161 135 q 267 86 220 86 m 469 803 l 378 803 l 242 1035 l 378 1035 l 469 803 m 275 803 l 183 803 l 40 1035 l 176 1035 l 275 803 z "},"ä":{"ha":667,"x_min":33,"x_max":656,"o":"m 243 -14 q 133 12 180 -14 q 59 82 85 38 q 33 183 33 126 q 59 282 33 241 q 127 351 84 324 q 222 395 169 378 q 332 418 275 411 q 440 426 388 426 q 402 553 440 524 q 292 583 364 583 q 210 572 253 583 q 113 522 167 560 l 94 624 q 197 675 135 655 q 325 694 258 694 q 464 664 411 694 q 541 563 517 634 q 565 368 565 491 l 565 229 q 570 149 565 181 q 591 102 574 117 q 643 86 607 86 l 656 86 l 636 -14 l 626 -14 q 533 -2 566 -14 q 483 32 500 10 q 451 86 465 54 q 361 14 413 42 q 243 -14 309 -14 m 267 86 q 364 111 317 86 q 440 178 410 136 l 440 340 q 280 321 341 337 q 190 273 218 305 q 161 190 161 241 q 191 111 161 135 q 267 86 220 86 m 399 821 l 399 932 l 518 932 l 518 821 l 399 821 m 132 821 l 132 932 l 251 932 l 251 821 l 132 821 z "},"ạ":{"ha":667,"x_min":33,"x_max":656,"o":"m 243 -14 q 133 12 180 -14 q 59 82 85 38 q 33 183 33 126 q 59 282 33 241 q 127 351 84 324 q 222 395 169 378 q 332 418 275 411 q 440 426 388 426 q 402 553 440 524 q 292 583 364 583 q 210 572 253 583 q 113 522 167 560 l 94 624 q 197 675 135 655 q 325 694 258 694 q 464 664 411 694 q 541 563 517 634 q 565 368 565 491 l 565 229 q 570 149 565 181 q 591 102 574 117 q 643 86 607 86 l 656 86 l 636 -14 l 626 -14 q 533 -2 566 -14 q 483 32 500 10 q 451 86 465 54 q 361 14 413 42 q 243 -14 309 -14 m 267 86 q 364 111 317 86 q 440 178 410 136 l 440 340 q 280 321 341 337 q 190 273 218 305 q 161 190 161 241 q 191 111 161 135 q 267 86 220 86 z "},"à":{"ha":667,"x_min":33,"x_max":656,"o":"m 243 -14 q 133 12 180 -14 q 59 82 85 38 q 33 183 33 126 q 59 282 33 241 q 127 351 84 324 q 222 395 169 378 q 332 418 275 411 q 440 426 388 426 q 402 553 440 524 q 292 583 364 583 q 210 572 253 583 q 113 522 167 560 l 94 624 q 197 675 135 655 q 325 694 258 694 q 464 664 411 694 q 541 563 517 634 q 565 368 565 491 l 565 229 q 570 149 565 181 q 591 102 574 117 q 643 86 607 86 l 656 86 l 636 -14 l 626 -14 q 533 -2 566 -14 q 483 32 500 10 q 451 86 465 54 q 361 14 413 42 q 243 -14 309 -14 m 267 86 q 364 111 317 86 q 440 178 410 136 l 440 340 q 280 321 341 337 q 190 273 218 305 q 161 190 161 241 q 191 111 161 135 q 267 86 220 86 m 454 800 l 194 901 l 194 1038 l 454 885 l 454 800 z "},"ả":{"ha":667,"x_min":33,"x_max":656,"o":"m 243 -14 q 133 12 180 -14 q 59 82 85 38 q 33 183 33 126 q 59 282 33 241 q 127 351 84 324 q 222 395 169 378 q 332 418 275 411 q 440 426 388 426 q 402 553 440 524 q 292 583 364 583 q 210 572 253 583 q 113 522 167 560 l 94 624 q 197 675 135 655 q 325 694 258 694 q 464 664 411 694 q 541 563 517 634 q 565 368 565 491 l 565 229 q 570 149 565 181 q 591 102 574 117 q 643 86 607 86 l 656 86 l 636 -14 l 626 -14 q 533 -2 566 -14 q 483 32 500 10 q 451 86 465 54 q 361 14 413 42 q 243 -14 309 -14 m 267 86 q 364 111 317 86 q 440 178 410 136 l 440 340 q 280 321 341 337 q 190 273 218 305 q 161 190 161 241 q 191 111 161 135 q 267 86 220 86 m 346 729 l 299 775 q 345 825 331 808 q 360 868 360 843 q 344 906 360 893 q 303 918 329 918 q 259 911 281 918 q 215 892 238 903 l 192 963 q 243 982 215 975 q 303 989 271 989 q 400 959 360 989 q 440 872 440 928 q 417 797 440 828 q 346 729 394 766 z "},"ȃ":{"ha":667,"x_min":33,"x_max":656,"o":"m 243 -14 q 133 12 180 -14 q 59 82 85 38 q 33 183 33 126 q 59 282 33 241 q 127 351 84 324 q 222 395 169 378 q 332 418 275 411 q 440 426 388 426 q 402 553 440 524 q 292 583 364 583 q 210 572 253 583 q 113 522 167 560 l 94 624 q 197 675 135 655 q 325 694 258 694 q 464 664 411 694 q 541 563 517 634 q 565 368 565 491 l 565 229 q 570 149 565 181 q 591 102 574 117 q 643 86 607 86 l 656 86 l 636 -14 l 626 -14 q 533 -2 566 -14 q 483 32 500 10 q 451 86 465 54 q 361 14 413 42 q 243 -14 309 -14 m 267 86 q 364 111 317 86 q 440 178 410 136 l 440 340 q 280 321 341 337 q 190 273 218 305 q 161 190 161 241 q 191 111 161 135 q 267 86 220 86 m 325 976 q 439 951 394 976 q 506 886 484 926 q 528 800 528 846 l 417 800 q 390 864 417 843 q 325 885 363 885 q 260 864 288 885 q 233 800 233 843 l 122 800 q 144 886 122 846 q 211 951 166 926 q 325 976 256 976 z "},"ā":{"ha":667,"x_min":33,"x_max":656,"o":"m 243 -14 q 133 12 180 -14 q 59 82 85 38 q 33 183 33 126 q 59 282 33 241 q 127 351 84 324 q 222 395 169 378 q 332 418 275 411 q 440 426 388 426 q 402 553 440 524 q 292 583 364 583 q 210 572 253 583 q 113 522 167 560 l 94 624 q 197 675 135 655 q 325 694 258 694 q 464 664 411 694 q 541 563 517 634 q 565 368 565 491 l 565 229 q 570 149 565 181 q 591 102 574 117 q 643 86 607 86 l 656 86 l 636 -14 l 626 -14 q 533 -2 566 -14 q 483 32 500 10 q 451 86 465 54 q 361 14 413 42 q 243 -14 309 -14 m 267 86 q 364 111 317 86 q 440 178 410 136 l 440 340 q 280 321 341 337 q 190 273 218 305 q 161 190 161 241 q 191 111 161 135 q 267 86 220 86 m 103 821 l 103 919 l 547 919 l 547 821 l 103 821 z "},"ą":{"ha":667,"x_min":33,"x_max":690,"o":"m 243 -14 q 133 12 180 -14 q 59 82 85 38 q 33 183 33 126 q 59 282 33 241 q 127 351 84 324 q 222 395 169 378 q 332 418 275 411 q 440 426 388 426 q 402 553 440 524 q 292 583 364 583 q 210 572 253 583 q 113 522 167 560 l 94 624 q 197 675 135 655 q 325 694 258 694 q 464 664 411 694 q 541 563 517 634 q 565 368 565 491 l 565 229 q 570 149 565 181 q 591 102 574 117 q 643 86 607 86 l 656 86 l 636 -14 l 626 -14 q 533 -2 566 -14 q 483 32 500 10 q 451 86 465 54 q 361 14 413 42 q 243 -14 309 -14 m 267 86 q 364 111 317 86 q 440 178 410 136 l 440 340 q 280 321 341 337 q 190 273 218 305 q 161 190 161 241 q 191 111 161 135 q 267 86 220 86 m 550 0 l 624 0 q 545 -73 575 -37 q 515 -147 515 -108 q 534 -200 515 -183 q 582 -218 552 -218 q 627 -212 606 -218 q 669 -194 649 -206 l 690 -262 q 642 -281 671 -273 q 575 -289 613 -289 q 476 -258 517 -289 q 435 -169 435 -228 q 472 -69 435 -114 q 550 0 508 -24 z "},"å":{"ha":667,"x_min":33,"x_max":656,"o":"m 243 -14 q 133 12 180 -14 q 59 82 85 38 q 33 183 33 126 q 59 282 33 241 q 127 351 84 324 q 222 395 169 378 q 332 418 275 411 q 440 426 388 426 q 402 553 440 524 q 292 583 364 583 q 210 572 253 583 q 113 522 167 560 l 94 624 q 197 675 135 655 q 325 694 258 694 q 464 664 411 694 q 541 563 517 634 q 565 368 565 491 l 565 229 q 570 149 565 181 q 591 102 574 117 q 643 86 607 86 l 656 86 l 636 -14 l 626 -14 q 533 -2 566 -14 q 483 32 500 10 q 451 86 465 54 q 361 14 413 42 q 243 -14 309 -14 m 267 86 q 364 111 317 86 q 440 178 410 136 l 440 340 q 280 321 341 337 q 190 273 218 305 q 161 190 161 241 q 191 111 161 135 q 267 86 220 86 m 325 789 q 217 831 253 789 q 181 928 181 874 q 217 1024 181 981 q 325 1067 254 1067 q 433 1024 397 1067 q 469 928 469 981 q 434 831 469 874 q 325 789 398 789 m 325 850 q 379 871 356 850 q 403 928 403 892 q 380 984 403 963 q 325 1006 356 1006 q 270 984 294 1006 q 247 928 247 963 q 271 871 247 892 q 325 850 295 850 z "},"ǻ":{"ha":667,"x_min":33,"x_max":656,"o":"m 243 -14 q 133 12 180 -14 q 59 82 85 38 q 33 183 33 126 q 59 282 33 241 q 127 351 84 324 q 222 395 169 378 q 332 418 275 411 q 440 426 388 426 q 402 553 440 524 q 292 583 364 583 q 210 572 253 583 q 113 522 167 560 l 94 624 q 197 675 135 655 q 325 694 258 694 q 464 664 411 694 q 541 563 517 634 q 565 368 565 491 l 565 229 q 570 149 565 181 q 591 102 574 117 q 643 86 607 86 l 656 86 l 636 -14 l 626 -14 q 533 -2 566 -14 q 483 32 500 10 q 451 86 465 54 q 361 14 413 42 q 243 -14 309 -14 m 267 86 q 364 111 317 86 q 440 178 410 136 l 440 340 q 280 321 341 337 q 190 273 218 305 q 161 190 161 241 q 191 111 161 135 q 267 86 220 86 m 325 789 q 217 831 253 789 q 181 928 181 874 q 217 1024 181 981 q 325 1067 254 1067 q 433 1024 397 1067 q 469 928 469 981 q 434 831 469 874 q 325 789 398 789 m 325 850 q 379 871 356 850 q 403 928 403 892 q 380 984 403 963 q 325 1006 356 1006 q 270 984 294 1006 q 247 928 247 963 q 271 871 247 892 q 325 850 295 850 m 196 1121 l 196 1201 l 456 1333 l 456 1201 l 196 1121 z "},"ã":{"ha":667,"x_min":33,"x_max":656,"o":"m 243 -14 q 133 12 180 -14 q 59 82 85 38 q 33 183 33 126 q 59 282 33 241 q 127 351 84 324 q 222 395 169 378 q 332 418 275 411 q 440 426 388 426 q 402 553 440 524 q 292 583 364 583 q 210 572 253 583 q 113 522 167 560 l 94 624 q 197 675 135 655 q 325 694 258 694 q 464 664 411 694 q 541 563 517 634 q 565 368 565 491 l 565 229 q 570 149 565 181 q 591 102 574 117 q 643 86 607 86 l 656 86 l 636 -14 l 626 -14 q 533 -2 566 -14 q 483 32 500 10 q 451 86 465 54 q 361 14 413 42 q 243 -14 309 -14 m 267 86 q 364 111 317 86 q 440 178 410 136 l 440 340 q 280 321 341 337 q 190 273 218 305 q 161 190 161 241 q 191 111 161 135 q 267 86 220 86 m 436 806 q 369 822 401 806 q 306 855 336 838 q 246 871 275 871 q 199 817 199 871 l 94 817 q 128 931 98 892 q 214 971 158 971 q 281 955 249 971 q 344 922 314 938 q 404 906 375 906 q 451 960 451 906 l 556 960 q 523 845 553 885 q 436 806 492 806 z "},"æ":{"ha":1083,"x_min":33,"x_max":1042,"o":"m 257 -14 q 139 12 190 -14 q 61 82 89 38 q 33 183 33 126 q 76 308 33 260 q 186 382 119 356 q 332 417 254 408 q 479 426 410 426 l 913 426 q 875 538 913 493 q 761 583 838 583 q 626 526 678 583 q 575 358 575 469 q 608 203 575 260 q 696 122 642 146 q 813 97 750 97 q 901 108 856 97 q 994 138 946 118 l 1011 39 q 919 2 972 17 q 797 -14 867 -14 q 603 35 682 -14 q 484 166 524 85 q 443 346 443 248 l 443 407 q 411 539 443 494 q 292 583 379 583 q 210 572 253 583 q 113 522 167 560 l 94 624 q 197 675 135 655 q 325 694 258 694 q 480 654 424 694 q 554 514 535 614 l 488 506 q 597 642 523 589 q 772 694 672 694 q 918 657 858 694 q 1010 555 978 619 q 1042 407 1042 490 q 1041 375 1042 392 q 1036 340 1040 358 l 456 340 q 229 303 297 340 q 161 190 161 267 q 194 111 161 135 q 281 86 228 86 q 399 119 345 86 q 489 213 453 152 l 531 154 q 418 34 492 83 q 257 -14 344 -14 z "},"ǽ":{"ha":1083,"x_min":33,"x_max":1042,"o":"m 257 -14 q 139 12 190 -14 q 61 82 89 38 q 33 183 33 126 q 76 308 33 260 q 186 382 119 356 q 332 417 254 408 q 479 426 410 426 l 913 426 q 875 538 913 493 q 761 583 838 583 q 626 526 678 583 q 575 358 575 469 q 608 203 575 260 q 696 122 642 146 q 813 97 750 97 q 901 108 856 97 q 994 138 946 118 l 1011 39 q 919 2 972 17 q 797 -14 867 -14 q 603 35 682 -14 q 484 166 524 85 q 443 346 443 248 l 443 407 q 411 539 443 494 q 292 583 379 583 q 210 572 253 583 q 113 522 167 560 l 94 624 q 197 675 135 655 q 325 694 258 694 q 480 654 424 694 q 554 514 535 614 l 488 506 q 597 642 523 589 q 772 694 672 694 q 918 657 858 694 q 1010 555 978 619 q 1042 407 1042 490 q 1041 375 1042 392 q 1036 340 1040 358 l 456 340 q 229 303 297 340 q 161 190 161 267 q 194 111 161 135 q 281 86 228 86 q 399 119 345 86 q 489 213 453 152 l 531 154 q 418 34 492 83 q 257 -14 344 -14 m 433 800 l 433 885 l 693 1038 l 693 901 l 433 800 z "},"b":{"ha":771,"x_min":83,"x_max":726,"o":"m 419 -14 q 281 20 348 -14 q 188 122 214 55 l 218 144 l 194 0 l 83 0 l 83 1042 l 208 1042 l 208 547 l 182 567 q 281 659 217 623 q 419 694 346 694 q 583 645 515 694 q 689 514 652 595 q 726 340 726 433 q 685 161 726 241 q 575 33 644 81 q 419 -14 506 -14 m 404 97 q 508 130 464 97 q 575 218 551 163 q 599 340 599 274 q 575 465 599 410 q 508 551 551 519 q 404 583 464 583 q 305 557 351 583 q 230 476 258 530 q 201 340 201 422 q 230 201 201 255 q 305 123 258 148 q 404 97 351 97 z "},"c":{"ha":631,"x_min":46,"x_max":593,"o":"m 397 -14 q 204 33 282 -14 q 86 159 126 80 q 46 336 46 239 q 84 519 46 438 q 203 647 123 600 q 407 694 283 694 q 508 684 460 694 q 593 654 556 673 l 574 544 q 493 573 535 563 q 404 583 450 583 q 233 519 292 583 q 174 342 174 456 q 230 163 174 231 q 401 96 286 96 q 492 107 449 96 q 575 138 535 118 l 592 38 q 510 2 564 18 q 397 -14 457 -14 z "},"ć":{"ha":631,"x_min":46,"x_max":593,"o":"m 397 -14 q 204 33 282 -14 q 86 159 126 80 q 46 336 46 239 q 84 519 46 438 q 203 647 123 600 q 407 694 283 694 q 508 684 460 694 q 593 654 556 673 l 574 544 q 493 573 535 563 q 404 583 450 583 q 233 519 292 583 q 174 342 174 456 q 230 163 174 231 q 401 96 286 96 q 492 107 449 96 q 575 138 535 118 l 592 38 q 510 2 564 18 q 397 -14 457 -14 m 249 800 l 249 885 l 508 1038 l 508 901 l 249 800 z "},"č":{"ha":631,"x_min":46,"x_max":593,"o":"m 397 -14 q 204 33 282 -14 q 86 159 126 80 q 46 336 46 239 q 84 519 46 438 q 203 647 123 600 q 407 694 283 694 q 508 684 460 694 q 593 654 556 673 l 574 544 q 493 573 535 563 q 404 583 450 583 q 233 519 292 583 q 174 342 174 456 q 230 163 174 231 q 401 96 286 96 q 492 107 449 96 q 575 138 535 118 l 592 38 q 510 2 564 18 q 397 -14 457 -14 m 378 775 l 201 928 l 201 1013 l 378 901 l 554 1013 l 554 928 l 378 775 z "},"ç":{"ha":631,"x_min":46,"x_max":593,"o":"m 397 -14 q 204 33 282 -14 q 86 159 126 80 q 46 336 46 239 q 84 519 46 438 q 203 647 123 600 q 407 694 283 694 q 508 684 460 694 q 593 654 556 673 l 574 544 q 493 573 535 563 q 404 583 450 583 q 233 519 292 583 q 174 342 174 456 q 230 163 174 231 q 401 96 286 96 q 492 107 449 96 q 575 138 535 118 l 592 38 q 510 2 564 18 q 397 -14 457 -14 m 372 -110 l 326 -89 q 359 -79 343 -83 q 394 -75 376 -75 q 483 -105 451 -75 q 515 -187 515 -135 q 473 -281 515 -249 q 368 -314 430 -314 q 306 -306 333 -314 q 260 -287 278 -298 l 281 -219 q 323 -237 301 -231 q 368 -243 344 -243 q 417 -230 399 -243 q 435 -190 435 -216 q 418 -150 435 -165 q 365 -135 401 -135 q 335 -137 350 -135 q 301 -146 319 -140 l 338 0 l 407 0 l 372 -110 z "},"ḉ":{"ha":631,"x_min":46,"x_max":593,"o":"m 397 -14 q 204 33 282 -14 q 86 159 126 80 q 46 336 46 239 q 84 519 46 438 q 203 647 123 600 q 407 694 283 694 q 508 684 460 694 q 593 654 556 673 l 574 544 q 493 573 535 563 q 404 583 450 583 q 233 519 292 583 q 174 342 174 456 q 230 163 174 231 q 401 96 286 96 q 492 107 449 96 q 575 138 535 118 l 592 38 q 510 2 564 18 q 397 -14 457 -14 m 372 -110 l 326 -89 q 359 -79 343 -83 q 394 -75 376 -75 q 483 -105 451 -75 q 515 -187 515 -135 q 473 -281 515 -249 q 368 -314 430 -314 q 306 -306 333 -314 q 260 -287 278 -298 l 281 -219 q 323 -237 301 -231 q 368 -243 344 -243 q 417 -230 399 -243 q 435 -190 435 -216 q 418 -150 435 -165 q 365 -135 401 -135 q 335 -137 350 -135 q 301 -146 319 -140 l 338 0 l 407 0 l 372 -110 m 249 800 l 249 885 l 508 1038 l 508 901 l 249 800 z "},"ĉ":{"ha":631,"x_min":46,"x_max":593,"o":"m 397 -14 q 204 33 282 -14 q 86 159 126 80 q 46 336 46 239 q 84 519 46 438 q 203 647 123 600 q 407 694 283 694 q 508 684 460 694 q 593 654 556 673 l 574 544 q 493 573 535 563 q 404 583 450 583 q 233 519 292 583 q 174 342 174 456 q 230 163 174 231 q 401 96 286 96 q 492 107 449 96 q 575 138 535 118 l 592 38 q 510 2 564 18 q 397 -14 457 -14 m 201 783 l 201 868 l 378 1021 l 554 868 l 554 783 l 378 894 l 201 783 z "},"ċ":{"ha":631,"x_min":46,"x_max":593,"o":"m 397 -14 q 204 33 282 -14 q 86 159 126 80 q 46 336 46 239 q 84 519 46 438 q 203 647 123 600 q 407 694 283 694 q 508 684 460 694 q 593 654 556 673 l 574 544 q 493 573 535 563 q 404 583 450 583 q 233 519 292 583 q 174 342 174 456 q 230 163 174 231 q 401 96 286 96 q 492 107 449 96 q 575 138 535 118 l 592 38 q 510 2 564 18 q 397 -14 457 -14 m 311 821 l 311 946 l 444 946 l 444 821 l 311 821 z "},"d":{"ha":771,"x_min":44,"x_max":688,"o":"m 354 -14 q 197 33 267 -14 q 86 160 127 81 q 44 339 44 240 q 82 514 44 433 q 190 645 120 595 q 354 694 259 694 q 486 665 422 694 q 589 567 549 635 l 563 549 l 563 1042 l 688 1042 l 688 0 l 576 0 l 553 144 l 585 122 q 491 20 555 55 q 354 -14 427 -14 m 376 97 q 470 122 424 97 q 546 199 516 146 q 576 339 576 252 q 546 474 576 419 q 470 556 516 528 q 376 583 424 583 q 267 551 313 583 q 197 464 221 519 q 172 339 172 409 q 197 218 172 273 q 267 130 221 163 q 376 97 313 97 z "},"ð":{"ha":718,"x_min":39,"x_max":672,"o":"m 346 -17 q 181 25 249 -17 q 75 136 112 67 q 39 285 39 205 q 77 437 39 367 q 183 549 115 507 q 338 592 250 592 q 464 561 413 592 q 536 488 515 531 l 524 475 q 478 663 517 573 q 368 819 439 753 q 196 908 298 885 l 217 974 q 402 907 319 964 q 547 763 486 851 q 640 570 607 675 q 672 357 672 465 q 648 201 672 270 q 579 83 623 132 q 475 9 535 35 q 346 -17 416 -17 m 351 99 q 482 153 433 99 q 532 289 532 207 q 484 424 532 372 q 353 476 435 476 q 253 450 294 476 q 189 382 211 424 q 167 292 167 340 q 216 156 167 213 q 351 99 266 99 m 242 693 l 196 768 l 549 972 l 593 897 l 242 693 z "},"ď":{"ha":863,"x_min":44,"x_max":888,"o":"m 354 -14 q 197 33 267 -14 q 86 160 127 81 q 44 339 44 240 q 82 514 44 433 q 190 645 120 595 q 354 694 259 694 q 486 665 422 694 q 589 567 549 635 l 563 549 l 563 1042 l 688 1042 l 688 0 l 576 0 l 553 144 l 585 122 q 491 20 555 55 q 354 -14 427 -14 m 376 97 q 470 122 424 97 q 546 199 516 146 q 576 339 576 252 q 546 474 576 419 q 470 556 516 528 q 376 583 424 583 q 267 551 313 583 q 197 464 221 519 q 172 339 172 409 q 197 218 172 273 q 267 130 221 163 q 376 97 313 97 m 757 810 l 757 1042 l 888 1042 l 849 810 l 757 810 z "},"đ":{"ha":771,"x_min":44,"x_max":793,"o":"m 354 815 l 354 913 l 793 913 l 793 815 l 354 815 m 354 -14 q 197 33 267 -14 q 86 160 127 81 q 44 339 44 240 q 82 514 44 433 q 190 645 120 595 q 354 694 259 694 q 486 665 422 694 q 589 567 549 635 l 563 549 l 563 1042 l 688 1042 l 688 0 l 576 0 l 553 144 l 585 122 q 491 20 555 55 q 354 -14 427 -14 m 376 97 q 470 122 424 97 q 546 199 516 146 q 576 339 576 252 q 546 474 576 419 q 470 556 516 528 q 376 583 424 583 q 267 551 313 583 q 197 464 221 519 q 172 339 172 409 q 197 218 172 273 q 267 130 221 163 q 376 97 313 97 z "},"ḍ":{"ha":771,"x_min":44,"x_max":688,"o":"m 354 -14 q 197 33 267 -14 q 86 160 127 81 q 44 339 44 240 q 82 514 44 433 q 190 645 120 595 q 354 694 259 694 q 486 665 422 694 q 589 567 549 635 l 563 549 l 563 1042 l 688 1042 l 688 0 l 576 0 l 553 144 l 585 122 q 491 20 555 55 q 354 -14 427 -14 m 376 97 q 470 122 424 97 q 546 199 516 146 q 576 339 576 252 q 546 474 576 419 q 470 556 516 528 q 376 583 424 583 q 267 551 313 583 q 197 464 221 519 q 172 339 172 409 q 197 218 172 273 q 267 130 221 163 q 376 97 313 97 z "},"ḏ":{"ha":771,"x_min":44,"x_max":688,"o":"m 354 -14 q 197 33 267 -14 q 86 160 127 81 q 44 339 44 240 q 82 514 44 433 q 190 645 120 595 q 354 694 259 694 q 486 665 422 694 q 589 567 549 635 l 563 549 l 563 1042 l 688 1042 l 688 0 l 576 0 l 553 144 l 585 122 q 491 20 555 55 q 354 -14 427 -14 m 376 97 q 470 122 424 97 q 546 199 516 146 q 576 339 576 252 q 546 474 576 419 q 470 556 516 528 q 376 583 424 583 q 267 551 313 583 q 197 464 221 519 q 172 339 172 409 q 197 218 172 273 q 267 130 221 163 q 376 97 313 97 z "},"ǆ":{"ha":1425,"x_min":44,"x_max":1390,"o":"m 354 -14 q 197 33 267 -14 q 86 160 127 81 q 44 339 44 240 q 82 514 44 433 q 190 645 120 595 q 354 694 259 694 q 486 665 422 694 q 589 567 549 635 l 563 549 l 563 1042 l 688 1042 l 688 0 l 576 0 l 553 144 l 585 122 q 491 20 555 55 q 354 -14 427 -14 m 376 97 q 470 122 424 97 q 546 199 516 146 q 576 339 576 252 q 546 474 576 419 q 470 556 516 528 q 376 583 424 583 q 267 551 313 583 q 197 464 221 519 q 172 339 172 409 q 197 218 172 273 q 267 130 221 163 q 376 97 313 97 z "},"e":{"ha":711,"x_min":43,"x_max":669,"o":"m 411 -14 q 209 35 291 -14 q 85 166 127 85 q 43 346 43 248 q 82 520 43 441 q 196 647 122 599 q 376 694 271 694 q 527 661 461 694 q 632 563 594 627 q 669 407 669 499 q 668 375 669 392 q 664 340 667 358 l 171 340 q 216 193 180 246 q 307 119 252 140 q 426 97 362 97 q 525 107 474 97 q 622 138 576 117 l 639 39 q 542 4 599 22 q 411 -14 485 -14 m 182 426 l 540 426 q 522 510 540 474 q 467 564 504 545 q 374 583 431 583 q 245 542 290 583 q 182 426 201 501 z "},"é":{"ha":711,"x_min":43,"x_max":669,"o":"m 411 -14 q 209 35 291 -14 q 85 166 127 85 q 43 346 43 248 q 82 520 43 441 q 196 647 122 599 q 376 694 271 694 q 527 661 461 694 q 632 563 594 627 q 669 407 669 499 q 668 375 669 392 q 664 340 667 358 l 171 340 q 216 193 180 246 q 307 119 252 140 q 426 97 362 97 q 525 107 474 97 q 622 138 576 117 l 639 39 q 542 4 599 22 q 411 -14 485 -14 m 182 426 l 540 426 q 522 510 540 474 q 467 564 504 545 q 374 583 431 583 q 245 542 290 583 q 182 426 201 501 m 257 800 l 257 885 l 517 1038 l 517 901 l 257 800 z "},"ĕ":{"ha":711,"x_min":43,"x_max":669,"o":"m 411 -14 q 209 35 291 -14 q 85 166 127 85 q 43 346 43 248 q 82 520 43 441 q 196 647 122 599 q 376 694 271 694 q 527 661 461 694 q 632 563 594 627 q 669 407 669 499 q 668 375 669 392 q 664 340 667 358 l 171 340 q 216 193 180 246 q 307 119 252 140 q 426 97 362 97 q 525 107 474 97 q 622 138 576 117 l 639 39 q 542 4 599 22 q 411 -14 485 -14 m 182 426 l 540 426 q 522 510 540 474 q 467 564 504 545 q 374 583 431 583 q 245 542 290 583 q 182 426 201 501 m 386 800 q 272 825 317 800 q 205 890 227 850 q 183 976 183 931 l 294 976 q 322 913 294 934 q 386 892 349 892 q 451 913 424 892 q 478 976 478 934 l 589 976 q 567 890 589 931 q 500 825 545 850 q 386 800 456 800 z "},"ě":{"ha":711,"x_min":43,"x_max":669,"o":"m 411 -14 q 209 35 291 -14 q 85 166 127 85 q 43 346 43 248 q 82 520 43 441 q 196 647 122 599 q 376 694 271 694 q 527 661 461 694 q 632 563 594 627 q 669 407 669 499 q 668 375 669 392 q 664 340 667 358 l 171 340 q 216 193 180 246 q 307 119 252 140 q 426 97 362 97 q 525 107 474 97 q 622 138 576 117 l 639 39 q 542 4 599 22 q 411 -14 485 -14 m 182 426 l 540 426 q 522 510 540 474 q 467 564 504 545 q 374 583 431 583 q 245 542 290 583 q 182 426 201 501 z "},"ḝ":{"ha":711,"x_min":43,"x_max":669,"o":"m 411 -14 q 209 35 291 -14 q 85 166 127 85 q 43 346 43 248 q 82 520 43 441 q 196 647 122 599 q 376 694 271 694 q 527 661 461 694 q 632 563 594 627 q 669 407 669 499 q 668 375 669 392 q 664 340 667 358 l 171 340 q 216 193 180 246 q 307 119 252 140 q 426 97 362 97 q 525 107 474 97 q 622 138 576 117 l 639 39 q 542 4 599 22 q 411 -14 485 -14 m 182 426 l 540 426 q 522 510 540 474 q 467 564 504 545 q 374 583 431 583 q 245 542 290 583 q 182 426 201 501 m 360 -110 l 314 -89 q 347 -79 331 -83 q 382 -75 363 -75 q 470 -105 438 -75 q 503 -187 503 -135 q 460 -281 503 -249 q 356 -314 417 -314 q 293 -306 320 -314 q 247 -287 266 -298 l 268 -219 q 310 -237 289 -231 q 356 -243 332 -243 q 404 -230 386 -243 q 422 -190 422 -216 q 405 -150 422 -165 q 353 -135 388 -135 q 322 -137 338 -135 q 289 -146 307 -140 l 325 0 l 394 0 l 360 -110 m 386 800 q 272 825 317 800 q 205 890 227 850 q 183 976 183 931 l 294 976 q 322 913 294 934 q 386 892 349 892 q 451 913 424 892 q 478 976 478 934 l 589 976 q 567 890 589 931 q 500 825 545 850 q 386 800 456 800 z "},"ê":{"ha":711,"x_min":43,"x_max":669,"o":"m 411 -14 q 209 35 291 -14 q 85 166 127 85 q 43 346 43 248 q 82 520 43 441 q 196 647 122 599 q 376 694 271 694 q 527 661 461 694 q 632 563 594 627 q 669 407 669 499 q 668 375 669 392 q 664 340 667 358 l 171 340 q 216 193 180 246 q 307 119 252 140 q 426 97 362 97 q 525 107 474 97 q 622 138 576 117 l 639 39 q 542 4 599 22 q 411 -14 485 -14 m 182 426 l 540 426 q 522 510 540 474 q 467 564 504 545 q 374 583 431 583 q 245 542 290 583 q 182 426 201 501 m 210 783 l 210 868 l 386 1021 l 563 868 l 563 783 l 386 894 l 210 783 z "},"ế":{"ha":711,"x_min":43,"x_max":718,"o":"m 411 -14 q 209 35 291 -14 q 85 166 127 85 q 43 346 43 248 q 82 520 43 441 q 196 647 122 599 q 376 694 271 694 q 527 661 461 694 q 632 563 594 627 q 669 407 669 499 q 668 375 669 392 q 664 340 667 358 l 171 340 q 216 193 180 246 q 307 119 252 140 q 426 97 362 97 q 525 107 474 97 q 622 138 576 117 l 639 39 q 542 4 599 22 q 411 -14 485 -14 m 182 426 l 540 426 q 522 510 540 474 q 467 564 504 545 q 374 583 431 583 q 245 542 290 583 q 182 426 201 501 m 210 754 l 210 839 l 386 964 l 563 839 l 563 754 l 386 846 l 210 754 m 490 957 l 582 1119 l 718 1119 l 582 957 l 490 957 z "},"ệ":{"ha":711,"x_min":43,"x_max":669,"o":"m 411 -14 q 209 35 291 -14 q 85 166 127 85 q 43 346 43 248 q 82 520 43 441 q 196 647 122 599 q 376 694 271 694 q 527 661 461 694 q 632 563 594 627 q 669 407 669 499 q 668 375 669 392 q 664 340 667 358 l 171 340 q 216 193 180 246 q 307 119 252 140 q 426 97 362 97 q 525 107 474 97 q 622 138 576 117 l 639 39 q 542 4 599 22 q 411 -14 485 -14 m 182 426 l 540 426 q 522 510 540 474 q 467 564 504 545 q 374 583 431 583 q 245 542 290 583 q 182 426 201 501 m 210 783 l 210 868 l 386 1021 l 563 868 l 563 783 l 386 894 l 210 783 z "},"ề":{"ha":711,"x_min":43,"x_max":669,"o":"m 411 -14 q 209 35 291 -14 q 85 166 127 85 q 43 346 43 248 q 82 520 43 441 q 196 647 122 599 q 376 694 271 694 q 527 661 461 694 q 632 563 594 627 q 669 407 669 499 q 668 375 669 392 q 664 340 667 358 l 171 340 q 216 193 180 246 q 307 119 252 140 q 426 97 362 97 q 525 107 474 97 q 622 138 576 117 l 639 39 q 542 4 599 22 q 411 -14 485 -14 m 182 426 l 540 426 q 522 510 540 474 q 467 564 504 545 q 374 583 431 583 q 245 542 290 583 q 182 426 201 501 m 210 754 l 210 839 l 386 964 l 563 839 l 563 754 l 386 846 l 210 754 m 510 957 l 389 1119 l 521 1119 l 599 957 l 510 957 z "},"ể":{"ha":711,"x_min":43,"x_max":669,"o":"m 411 -14 q 209 35 291 -14 q 85 166 127 85 q 43 346 43 248 q 82 520 43 441 q 196 647 122 599 q 376 694 271 694 q 527 661 461 694 q 632 563 594 627 q 669 407 669 499 q 668 375 669 392 q 664 340 667 358 l 171 340 q 216 193 180 246 q 307 119 252 140 q 426 97 362 97 q 525 107 474 97 q 622 138 576 117 l 639 39 q 542 4 599 22 q 411 -14 485 -14 m 182 426 l 540 426 q 522 510 540 474 q 467 564 504 545 q 374 583 431 583 q 245 542 290 583 q 182 426 201 501 m 210 754 l 210 839 l 386 964 l 563 839 l 563 754 l 386 846 l 210 754 m 519 919 l 507 975 q 543 997 531 983 q 556 1029 556 1010 q 540 1063 556 1052 q 499 1074 525 1074 q 455 1066 477 1074 q 411 1047 433 1059 l 388 1118 q 439 1138 410 1131 q 499 1144 467 1144 q 596 1117 556 1144 q 636 1038 636 1089 q 609 963 636 992 q 519 919 581 933 z "},"ễ":{"ha":711,"x_min":43,"x_max":669,"o":"m 411 -14 q 209 35 291 -14 q 85 166 127 85 q 43 346 43 248 q 82 520 43 441 q 196 647 122 599 q 376 694 271 694 q 527 661 461 694 q 632 563 594 627 q 669 407 669 499 q 668 375 669 392 q 664 340 667 358 l 171 340 q 216 193 180 246 q 307 119 252 140 q 426 97 362 97 q 525 107 474 97 q 622 138 576 117 l 639 39 q 542 4 599 22 q 411 -14 485 -14 m 182 426 l 540 426 q 522 510 540 474 q 467 564 504 545 q 374 583 431 583 q 245 542 290 583 q 182 426 201 501 m 210 754 l 210 839 l 386 964 l 563 839 l 563 754 l 386 846 l 210 754 m 501 1021 q 434 1035 469 1021 q 366 1064 399 1049 q 307 1078 333 1078 q 260 1028 260 1078 l 169 1028 q 196 1131 169 1096 q 271 1167 223 1167 q 338 1152 303 1167 q 406 1124 373 1138 q 465 1110 439 1110 q 513 1160 513 1110 l 603 1160 q 576 1057 603 1092 q 501 1021 549 1021 z "},"ȅ":{"ha":711,"x_min":43,"x_max":669,"o":"m 411 -14 q 209 35 291 -14 q 85 166 127 85 q 43 346 43 248 q 82 520 43 441 q 196 647 122 599 q 376 694 271 694 q 527 661 461 694 q 632 563 594 627 q 669 407 669 499 q 668 375 669 392 q 664 340 667 358 l 171 340 q 216 193 180 246 q 307 119 252 140 q 426 97 362 97 q 525 107 474 97 q 622 138 576 117 l 639 39 q 542 4 599 22 q 411 -14 485 -14 m 182 426 l 540 426 q 522 510 540 474 q 467 564 504 545 q 374 583 431 583 q 245 542 290 583 q 182 426 201 501 m 531 803 l 439 803 l 303 1035 l 439 1035 l 531 803 m 336 803 l 244 803 l 101 1035 l 238 1035 l 336 803 z "},"ë":{"ha":711,"x_min":43,"x_max":669,"o":"m 411 -14 q 209 35 291 -14 q 85 166 127 85 q 43 346 43 248 q 82 520 43 441 q 196 647 122 599 q 376 694 271 694 q 527 661 461 694 q 632 563 594 627 q 669 407 669 499 q 668 375 669 392 q 664 340 667 358 l 171 340 q 216 193 180 246 q 307 119 252 140 q 426 97 362 97 q 525 107 474 97 q 622 138 576 117 l 639 39 q 542 4 599 22 q 411 -14 485 -14 m 182 426 l 540 426 q 522 510 540 474 q 467 564 504 545 q 374 583 431 583 q 245 542 290 583 q 182 426 201 501 m 460 821 l 460 932 l 579 932 l 579 821 l 460 821 m 193 821 l 193 932 l 313 932 l 313 821 l 193 821 z "},"ė":{"ha":711,"x_min":43,"x_max":669,"o":"m 411 -14 q 209 35 291 -14 q 85 166 127 85 q 43 346 43 248 q 82 520 43 441 q 196 647 122 599 q 376 694 271 694 q 527 661 461 694 q 632 563 594 627 q 669 407 669 499 q 668 375 669 392 q 664 340 667 358 l 171 340 q 216 193 180 246 q 307 119 252 140 q 426 97 362 97 q 525 107 474 97 q 622 138 576 117 l 639 39 q 542 4 599 22 q 411 -14 485 -14 m 182 426 l 540 426 q 522 510 540 474 q 467 564 504 545 q 374 583 431 583 q 245 542 290 583 q 182 426 201 501 m 319 821 l 319 946 l 453 946 l 453 821 l 319 821 z "},"ẹ":{"ha":711,"x_min":43,"x_max":669,"o":"m 411 -14 q 209 35 291 -14 q 85 166 127 85 q 43 346 43 248 q 82 520 43 441 q 196 647 122 599 q 376 694 271 694 q 527 661 461 694 q 632 563 594 627 q 669 407 669 499 q 668 375 669 392 q 664 340 667 358 l 171 340 q 216 193 180 246 q 307 119 252 140 q 426 97 362 97 q 525 107 474 97 q 622 138 576 117 l 639 39 q 542 4 599 22 q 411 -14 485 -14 m 182 426 l 540 426 q 522 510 540 474 q 467 564 504 545 q 374 583 431 583 q 245 542 290 583 q 182 426 201 501 z "},"è":{"ha":711,"x_min":43,"x_max":669,"o":"m 411 -14 q 209 35 291 -14 q 85 166 127 85 q 43 346 43 248 q 82 520 43 441 q 196 647 122 599 q 376 694 271 694 q 527 661 461 694 q 632 563 594 627 q 669 407 669 499 q 668 375 669 392 q 664 340 667 358 l 171 340 q 216 193 180 246 q 307 119 252 140 q 426 97 362 97 q 525 107 474 97 q 622 138 576 117 l 639 39 q 542 4 599 22 q 411 -14 485 -14 m 182 426 l 540 426 q 522 510 540 474 q 467 564 504 545 q 374 583 431 583 q 245 542 290 583 q 182 426 201 501 m 515 800 l 256 901 l 256 1038 l 515 885 l 515 800 z "},"ẻ":{"ha":711,"x_min":43,"x_max":669,"o":"m 411 -14 q 209 35 291 -14 q 85 166 127 85 q 43 346 43 248 q 82 520 43 441 q 196 647 122 599 q 376 694 271 694 q 527 661 461 694 q 632 563 594 627 q 669 407 669 499 q 668 375 669 392 q 664 340 667 358 l 171 340 q 216 193 180 246 q 307 119 252 140 q 426 97 362 97 q 525 107 474 97 q 622 138 576 117 l 639 39 q 542 4 599 22 q 411 -14 485 -14 m 182 426 l 540 426 q 522 510 540 474 q 467 564 504 545 q 374 583 431 583 q 245 542 290 583 q 182 426 201 501 m 407 729 l 360 775 q 407 825 392 808 q 421 868 421 843 q 406 906 421 893 q 364 918 390 918 q 320 911 342 918 q 276 892 299 903 l 253 963 q 304 982 276 975 q 364 989 332 989 q 461 959 422 989 q 501 872 501 928 q 478 797 501 828 q 407 729 455 766 z "},"ȇ":{"ha":711,"x_min":43,"x_max":669,"o":"m 411 -14 q 209 35 291 -14 q 85 166 127 85 q 43 346 43 248 q 82 520 43 441 q 196 647 122 599 q 376 694 271 694 q 527 661 461 694 q 632 563 594 627 q 669 407 669 499 q 668 375 669 392 q 664 340 667 358 l 171 340 q 216 193 180 246 q 307 119 252 140 q 426 97 362 97 q 525 107 474 97 q 622 138 576 117 l 639 39 q 542 4 599 22 q 411 -14 485 -14 m 182 426 l 540 426 q 522 510 540 474 q 467 564 504 545 q 374 583 431 583 q 245 542 290 583 q 182 426 201 501 m 386 976 q 500 951 456 976 q 567 886 545 926 q 589 800 589 846 l 478 800 q 451 864 478 843 q 386 885 424 885 q 322 864 349 885 q 294 800 294 843 l 183 800 q 205 886 183 846 q 272 951 227 926 q 386 976 317 976 z "},"ē":{"ha":711,"x_min":43,"x_max":669,"o":"m 411 -14 q 209 35 291 -14 q 85 166 127 85 q 43 346 43 248 q 82 520 43 441 q 196 647 122 599 q 376 694 271 694 q 527 661 461 694 q 632 563 594 627 q 669 407 669 499 q 668 375 669 392 q 664 340 667 358 l 171 340 q 216 193 180 246 q 307 119 252 140 q 426 97 362 97 q 525 107 474 97 q 622 138 576 117 l 639 39 q 542 4 599 22 q 411 -14 485 -14 m 182 426 l 540 426 q 522 510 540 474 q 467 564 504 545 q 374 583 431 583 q 245 542 290 583 q 182 426 201 501 m 164 821 l 164 919 l 608 919 l 608 821 l 164 821 z "},"ḗ":{"ha":711,"x_min":43,"x_max":669,"o":"m 411 -14 q 209 35 291 -14 q 85 166 127 85 q 43 346 43 248 q 82 520 43 441 q 196 647 122 599 q 376 694 271 694 q 527 661 461 694 q 632 563 594 627 q 669 407 669 499 q 668 375 669 392 q 664 340 667 358 l 171 340 q 216 193 180 246 q 307 119 252 140 q 426 97 362 97 q 525 107 474 97 q 622 138 576 117 l 639 39 q 542 4 599 22 q 411 -14 485 -14 m 182 426 l 540 426 q 522 510 540 474 q 467 564 504 545 q 374 583 431 583 q 245 542 290 583 q 182 426 201 501 m 164 810 l 164 904 l 608 904 l 608 810 l 164 810 m 257 1008 l 257 1089 l 517 1221 l 517 1089 l 257 1008 z "},"ḕ":{"ha":711,"x_min":43,"x_max":669,"o":"m 411 -14 q 209 35 291 -14 q 85 166 127 85 q 43 346 43 248 q 82 520 43 441 q 196 647 122 599 q 376 694 271 694 q 527 661 461 694 q 632 563 594 627 q 669 407 669 499 q 668 375 669 392 q 664 340 667 358 l 171 340 q 216 193 180 246 q 307 119 252 140 q 426 97 362 97 q 525 107 474 97 q 622 138 576 117 l 639 39 q 542 4 599 22 q 411 -14 485 -14 m 182 426 l 540 426 q 522 510 540 474 q 467 564 504 545 q 374 583 431 583 q 245 542 290 583 q 182 426 201 501 m 164 810 l 164 904 l 608 904 l 608 810 l 164 810 m 515 1008 l 256 1089 l 256 1221 l 515 1089 l 515 1008 z "},"ę":{"ha":711,"x_min":43,"x_max":706,"o":"m 411 -14 q 209 35 291 -14 q 85 166 127 85 q 43 346 43 248 q 82 520 43 441 q 196 647 122 599 q 376 694 271 694 q 527 661 461 694 q 632 563 594 627 q 669 407 669 499 q 668 375 669 392 q 664 340 667 358 l 171 340 q 216 193 180 246 q 307 119 252 140 q 426 97 362 97 q 525 107 474 97 q 622 138 576 117 l 639 39 q 542 4 599 22 q 411 -14 485 -14 m 182 426 l 540 426 q 522 510 540 474 q 467 564 504 545 q 374 583 431 583 q 245 542 290 583 q 182 426 201 501 m 565 39 l 639 39 q 560 -34 590 1 q 531 -108 531 -69 q 549 -161 531 -144 q 597 -179 567 -179 q 643 -173 622 -179 q 685 -156 664 -167 l 706 -224 q 657 -242 686 -234 q 590 -250 628 -250 q 491 -219 532 -250 q 450 -131 450 -189 q 487 -30 450 -75 q 565 39 524 15 z "},"ẽ":{"ha":711,"x_min":43,"x_max":669,"o":"m 411 -14 q 209 35 291 -14 q 85 166 127 85 q 43 346 43 248 q 82 520 43 441 q 196 647 122 599 q 376 694 271 694 q 527 661 461 694 q 632 563 594 627 q 669 407 669 499 q 668 375 669 392 q 664 340 667 358 l 171 340 q 216 193 180 246 q 307 119 252 140 q 426 97 362 97 q 525 107 474 97 q 622 138 576 117 l 639 39 q 542 4 599 22 q 411 -14 485 -14 m 182 426 l 540 426 q 522 510 540 474 q 467 564 504 545 q 374 583 431 583 q 245 542 290 583 q 182 426 201 501 m 497 806 q 430 822 463 806 q 367 855 397 838 q 307 871 336 871 q 260 817 260 871 l 156 817 q 189 931 159 892 q 275 971 219 971 q 342 955 310 971 q 406 922 375 938 q 465 906 436 906 q 513 960 513 906 l 617 960 q 584 845 614 885 q 497 806 553 806 z "},"ə":{"ha":711,"x_min":42,"x_max":668,"o":"m 300 694 q 502 645 420 694 q 626 514 584 596 q 668 335 668 433 q 629 160 668 240 q 515 34 590 81 q 335 -14 440 -14 q 184 20 250 -14 q 80 118 117 53 q 42 274 42 182 q 43 305 42 288 q 47 340 44 322 l 540 340 q 495 488 531 435 q 404 562 459 540 q 285 583 349 583 q 186 574 238 583 q 89 543 135 564 l 72 642 q 169 677 112 659 q 300 694 226 694 m 529 254 l 171 254 q 189 171 171 206 q 244 116 207 135 q 338 97 281 97 q 466 139 421 97 q 529 254 510 180 z "},"f":{"ha":460,"x_min":14,"x_max":440,"o":"m 132 0 l 132 583 l 14 583 l 31 681 l 132 681 l 132 842 q 181 987 132 933 q 324 1042 229 1042 q 384 1037 358 1042 q 432 1024 410 1032 l 413 918 q 380 927 396 924 q 343 931 364 931 q 280 908 303 931 q 257 833 257 885 l 257 681 l 440 681 l 440 583 l 257 583 l 257 0 l 132 0 z "},"g":{"ha":692,"x_min":36,"x_max":696,"o":"m 360 -347 q 193 -324 267 -347 q 78 -256 120 -301 q 36 -144 36 -211 q 68 -49 36 -89 q 154 15 99 -9 q 105 53 122 31 q 88 101 88 75 q 107 158 88 133 q 168 200 126 183 q 81 295 111 235 q 50 429 50 356 q 83 564 50 503 q 180 659 117 624 q 331 694 242 694 q 420 681 378 694 q 497 642 462 667 q 571 672 528 660 q 667 683 614 683 q 673 683 670 683 q 678 683 675 683 l 663 600 q 647 600 654 600 q 631 600 639 600 q 599 598 624 600 q 553 590 574 596 q 597 516 581 557 q 613 429 613 474 q 579 290 613 351 q 482 193 545 228 q 331 157 419 157 q 283 160 306 157 q 239 169 260 163 q 207 133 207 159 q 225 107 207 118 q 283 89 243 95 l 465 60 q 636 -4 576 42 q 696 -136 696 -51 q 655 -254 696 -207 q 538 -324 613 -301 q 360 -347 462 -347 m 371 -236 q 518 -211 467 -236 q 569 -139 569 -187 q 537 -80 569 -101 q 444 -47 505 -58 l 251 -15 q 184 -59 213 -31 q 156 -125 156 -87 q 214 -210 156 -183 q 371 -236 273 -236 m 331 257 q 451 305 410 257 q 493 428 493 352 q 451 548 493 501 q 331 594 410 594 q 210 548 251 594 q 169 428 169 501 q 210 305 169 352 q 331 257 251 257 z "},"ğ":{"ha":692,"x_min":36,"x_max":696,"o":"m 360 -347 q 193 -324 267 -347 q 78 -256 120 -301 q 36 -144 36 -211 q 68 -49 36 -89 q 154 15 99 -9 q 105 53 122 31 q 88 101 88 75 q 107 158 88 133 q 168 200 126 183 q 81 295 111 235 q 50 429 50 356 q 83 564 50 503 q 180 659 117 624 q 331 694 242 694 q 420 681 378 694 q 497 642 462 667 q 571 672 528 660 q 667 683 614 683 q 673 683 670 683 q 678 683 675 683 l 663 600 q 647 600 654 600 q 631 600 639 600 q 599 598 624 600 q 553 590 574 596 q 597 516 581 557 q 613 429 613 474 q 579 290 613 351 q 482 193 545 228 q 331 157 419 157 q 283 160 306 157 q 239 169 260 163 q 207 133 207 159 q 225 107 207 118 q 283 89 243 95 l 465 60 q 636 -4 576 42 q 696 -136 696 -51 q 655 -254 696 -207 q 538 -324 613 -301 q 360 -347 462 -347 m 371 -236 q 518 -211 467 -236 q 569 -139 569 -187 q 537 -80 569 -101 q 444 -47 505 -58 l 251 -15 q 184 -59 213 -31 q 156 -125 156 -87 q 214 -210 156 -183 q 371 -236 273 -236 m 331 257 q 451 305 410 257 q 493 428 493 352 q 451 548 493 501 q 331 594 410 594 q 210 548 251 594 q 169 428 169 501 q 210 305 169 352 q 331 257 251 257 m 351 800 q 237 825 282 800 q 170 890 192 850 q 149 976 149 931 l 260 976 q 287 913 260 934 q 351 892 314 892 q 416 913 389 892 q 443 976 443 934 l 554 976 q 532 890 554 931 q 466 825 510 850 q 351 800 421 800 z "},"ǧ":{"ha":692,"x_min":36,"x_max":696,"o":"m 360 -347 q 193 -324 267 -347 q 78 -256 120 -301 q 36 -144 36 -211 q 68 -49 36 -89 q 154 15 99 -9 q 105 53 122 31 q 88 101 88 75 q 107 158 88 133 q 168 200 126 183 q 81 295 111 235 q 50 429 50 356 q 83 564 50 503 q 180 659 117 624 q 331 694 242 694 q 420 681 378 694 q 497 642 462 667 q 571 672 528 660 q 667 683 614 683 q 673 683 670 683 q 678 683 675 683 l 663 600 q 647 600 654 600 q 631 600 639 600 q 599 598 624 600 q 553 590 574 596 q 597 516 581 557 q 613 429 613 474 q 579 290 613 351 q 482 193 545 228 q 331 157 419 157 q 283 160 306 157 q 239 169 260 163 q 207 133 207 159 q 225 107 207 118 q 283 89 243 95 l 465 60 q 636 -4 576 42 q 696 -136 696 -51 q 655 -254 696 -207 q 538 -324 613 -301 q 360 -347 462 -347 m 371 -236 q 518 -211 467 -236 q 569 -139 569 -187 q 537 -80 569 -101 q 444 -47 505 -58 l 251 -15 q 184 -59 213 -31 q 156 -125 156 -87 q 214 -210 156 -183 q 371 -236 273 -236 m 331 257 q 451 305 410 257 q 493 428 493 352 q 451 548 493 501 q 331 594 410 594 q 210 548 251 594 q 169 428 169 501 q 210 305 169 352 q 331 257 251 257 m 351 775 l 175 928 l 175 1013 l 351 901 l 528 1013 l 528 928 l 351 775 z "},"ĝ":{"ha":692,"x_min":36,"x_max":696,"o":"m 360 -347 q 193 -324 267 -347 q 78 -256 120 -301 q 36 -144 36 -211 q 68 -49 36 -89 q 154 15 99 -9 q 105 53 122 31 q 88 101 88 75 q 107 158 88 133 q 168 200 126 183 q 81 295 111 235 q 50 429 50 356 q 83 564 50 503 q 180 659 117 624 q 331 694 242 694 q 420 681 378 694 q 497 642 462 667 q 571 672 528 660 q 667 683 614 683 q 673 683 670 683 q 678 683 675 683 l 663 600 q 647 600 654 600 q 631 600 639 600 q 599 598 624 600 q 553 590 574 596 q 597 516 581 557 q 613 429 613 474 q 579 290 613 351 q 482 193 545 228 q 331 157 419 157 q 283 160 306 157 q 239 169 260 163 q 207 133 207 159 q 225 107 207 118 q 283 89 243 95 l 465 60 q 636 -4 576 42 q 696 -136 696 -51 q 655 -254 696 -207 q 538 -324 613 -301 q 360 -347 462 -347 m 371 -236 q 518 -211 467 -236 q 569 -139 569 -187 q 537 -80 569 -101 q 444 -47 505 -58 l 251 -15 q 184 -59 213 -31 q 156 -125 156 -87 q 214 -210 156 -183 q 371 -236 273 -236 m 331 257 q 451 305 410 257 q 493 428 493 352 q 451 548 493 501 q 331 594 410 594 q 210 548 251 594 q 169 428 169 501 q 210 305 169 352 q 331 257 251 257 m 175 783 l 175 868 l 351 1021 l 528 868 l 528 783 l 351 894 l 175 783 z "},"ģ":{"ha":692,"x_min":36,"x_max":696,"o":"m 360 -347 q 193 -324 267 -347 q 78 -256 120 -301 q 36 -144 36 -211 q 68 -49 36 -89 q 154 15 99 -9 q 105 53 122 31 q 88 101 88 75 q 107 158 88 133 q 168 200 126 183 q 81 295 111 235 q 50 429 50 356 q 83 564 50 503 q 180 659 117 624 q 331 694 242 694 q 420 681 378 694 q 497 642 462 667 q 571 672 528 660 q 667 683 614 683 q 673 683 670 683 q 678 683 675 683 l 663 600 q 647 600 654 600 q 631 600 639 600 q 599 598 624 600 q 553 590 574 596 q 597 516 581 557 q 613 429 613 474 q 579 290 613 351 q 482 193 545 228 q 331 157 419 157 q 283 160 306 157 q 239 169 260 163 q 207 133 207 159 q 225 107 207 118 q 283 89 243 95 l 465 60 q 636 -4 576 42 q 696 -136 696 -51 q 655 -254 696 -207 q 538 -324 613 -301 q 360 -347 462 -347 m 371 -236 q 518 -211 467 -236 q 569 -139 569 -187 q 537 -80 569 -101 q 444 -47 505 -58 l 251 -15 q 184 -59 213 -31 q 156 -125 156 -87 q 214 -210 156 -183 q 371 -236 273 -236 m 331 257 q 451 305 410 257 q 493 428 493 352 q 451 548 493 501 q 331 594 410 594 q 210 548 251 594 q 169 428 169 501 q 210 305 169 352 q 331 257 251 257 z "},"ġ":{"ha":692,"x_min":36,"x_max":696,"o":"m 360 -347 q 193 -324 267 -347 q 78 -256 120 -301 q 36 -144 36 -211 q 68 -49 36 -89 q 154 15 99 -9 q 105 53 122 31 q 88 101 88 75 q 107 158 88 133 q 168 200 126 183 q 81 295 111 235 q 50 429 50 356 q 83 564 50 503 q 180 659 117 624 q 331 694 242 694 q 420 681 378 694 q 497 642 462 667 q 571 672 528 660 q 667 683 614 683 q 673 683 670 683 q 678 683 675 683 l 663 600 q 647 600 654 600 q 631 600 639 600 q 599 598 624 600 q 553 590 574 596 q 597 516 581 557 q 613 429 613 474 q 579 290 613 351 q 482 193 545 228 q 331 157 419 157 q 283 160 306 157 q 239 169 260 163 q 207 133 207 159 q 225 107 207 118 q 283 89 243 95 l 465 60 q 636 -4 576 42 q 696 -136 696 -51 q 655 -254 696 -207 q 538 -324 613 -301 q 360 -347 462 -347 m 371 -236 q 518 -211 467 -236 q 569 -139 569 -187 q 537 -80 569 -101 q 444 -47 505 -58 l 251 -15 q 184 -59 213 -31 q 156 -125 156 -87 q 214 -210 156 -183 q 371 -236 273 -236 m 331 257 q 451 305 410 257 q 493 428 493 352 q 451 548 493 501 q 331 594 410 594 q 210 548 251 594 q 169 428 169 501 q 210 305 169 352 q 331 257 251 257 m 285 821 l 285 946 l 418 946 l 418 821 l 285 821 z "},"ḡ":{"ha":692,"x_min":36,"x_max":696,"o":"m 360 -347 q 193 -324 267 -347 q 78 -256 120 -301 q 36 -144 36 -211 q 68 -49 36 -89 q 154 15 99 -9 q 105 53 122 31 q 88 101 88 75 q 107 158 88 133 q 168 200 126 183 q 81 295 111 235 q 50 429 50 356 q 83 564 50 503 q 180 659 117 624 q 331 694 242 694 q 420 681 378 694 q 497 642 462 667 q 571 672 528 660 q 667 683 614 683 q 673 683 670 683 q 678 683 675 683 l 663 600 q 647 600 654 600 q 631 600 639 600 q 599 598 624 600 q 553 590 574 596 q 597 516 581 557 q 613 429 613 474 q 579 290 613 351 q 482 193 545 228 q 331 157 419 157 q 283 160 306 157 q 239 169 260 163 q 207 133 207 159 q 225 107 207 118 q 283 89 243 95 l 465 60 q 636 -4 576 42 q 696 -136 696 -51 q 655 -254 696 -207 q 538 -324 613 -301 q 360 -347 462 -347 m 371 -236 q 518 -211 467 -236 q 569 -139 569 -187 q 537 -80 569 -101 q 444 -47 505 -58 l 251 -15 q 184 -59 213 -31 q 156 -125 156 -87 q 214 -210 156 -183 q 371 -236 273 -236 m 331 257 q 451 305 410 257 q 493 428 493 352 q 451 548 493 501 q 331 594 410 594 q 210 548 251 594 q 169 428 169 501 q 210 305 169 352 q 331 257 251 257 m 129 821 l 129 919 l 574 919 l 574 821 l 129 821 z "},"h":{"ha":753,"x_min":83,"x_max":675,"o":"m 83 0 l 83 1042 l 210 1042 l 210 563 l 165 565 q 268 660 213 626 q 410 694 324 694 q 557 655 498 694 q 645 544 616 615 q 675 379 675 474 l 675 0 l 550 0 l 550 364 q 509 530 550 476 q 382 583 467 583 q 268 549 317 583 q 189 456 218 514 l 210 532 l 210 0 l 83 0 z "},"ħ":{"ha":753,"x_min":-22,"x_max":675,"o":"m 83 0 l 83 1042 l 210 1042 l 210 574 l 186 574 q 282 665 226 636 q 419 694 338 694 q 569 652 513 694 q 650 536 625 610 q 675 364 675 462 l 675 0 l 550 0 l 550 364 q 514 534 550 485 q 388 583 478 583 q 267 553 314 583 q 189 456 219 522 l 210 547 l 210 0 l 83 0 m -22 815 l -22 913 l 418 913 l 418 815 l -22 815 z "},"ḫ":{"ha":753,"x_min":83,"x_max":675,"o":"m 83 0 l 83 1042 l 210 1042 l 210 563 l 165 565 q 268 660 213 626 q 410 694 324 694 q 557 655 498 694 q 645 544 616 615 q 675 379 675 474 l 675 0 l 550 0 l 550 364 q 509 530 550 476 q 382 583 467 583 q 268 549 317 583 q 189 456 218 514 l 210 532 l 210 0 l 83 0 z "},"ĥ":{"ha":753,"x_min":-29,"x_max":675,"o":"m 83 0 l 83 1042 l 210 1042 l 210 563 l 165 565 q 268 660 213 626 q 410 694 324 694 q 557 655 498 694 q 645 544 616 615 q 675 379 675 474 l 675 0 l 550 0 l 550 364 q 509 530 550 476 q 382 583 467 583 q 268 549 317 583 q 189 456 218 514 l 210 532 l 210 0 l 83 0 m -29 1088 l -29 1172 l 147 1297 l 324 1172 l 324 1088 l 147 1179 l -29 1088 z "},"ḥ":{"ha":753,"x_min":83,"x_max":675,"o":"m 83 0 l 83 1042 l 210 1042 l 210 563 l 165 565 q 268 660 213 626 q 410 694 324 694 q 557 655 498 694 q 645 544 616 615 q 675 379 675 474 l 675 0 l 550 0 l 550 364 q 509 530 550 476 q 382 583 467 583 q 268 549 317 583 q 189 456 218 514 l 210 532 l 210 0 l 83 0 z "},"i":{"ha":294,"x_min":85,"x_max":210,"o":"m 85 0 l 85 681 l 210 681 l 210 0 l 85 0 m 85 833 l 85 972 l 210 972 l 210 833 l 85 833 z "},"ı":{"ha":294,"x_min":85,"x_max":210,"o":"m 85 0 l 85 681 l 210 681 l 210 0 l 85 0 z "},"í":{"ha":294,"x_min":18,"x_max":278,"o":"m 85 0 l 85 681 l 210 681 l 210 0 l 85 0 m 18 800 l 18 885 l 278 1038 l 278 901 l 18 800 z "},"ĭ":{"ha":294,"x_min":-56,"x_max":350,"o":"m 85 0 l 85 681 l 210 681 l 210 0 l 85 0 m 147 800 q 33 825 78 800 q -34 890 -12 850 q -56 976 -56 931 l 56 976 q 83 913 56 934 q 147 892 110 892 q 212 913 185 892 q 239 976 239 934 l 350 976 q 328 890 350 931 q 261 825 306 850 q 147 800 217 800 z "},"î":{"ha":294,"x_min":-29,"x_max":324,"o":"m 85 0 l 85 681 l 210 681 l 210 0 l 85 0 m -29 783 l -29 868 l 147 1021 l 324 868 l 324 783 l 147 894 l -29 783 z "},"ȉ":{"ha":294,"x_min":-137,"x_max":292,"o":"m 85 0 l 85 681 l 210 681 l 210 0 l 85 0 m 292 803 l 200 803 l 64 1035 l 200 1035 l 292 803 m 97 803 l 6 803 l -137 1035 l -1 1035 l 97 803 z "},"ï":{"ha":294,"x_min":-46,"x_max":340,"o":"m 85 0 l 85 681 l 210 681 l 210 0 l 85 0 m 221 821 l 221 932 l 340 932 l 340 821 l 221 821 m -46 821 l -46 932 l 74 932 l 74 821 l -46 821 z "},"ḯ":{"ha":294,"x_min":-46,"x_max":340,"o":"m 85 0 l 85 681 l 210 681 l 210 0 l 85 0 m -46 811 l -46 915 l 74 915 l 74 811 l -46 811 m 221 811 l 221 915 l 340 915 l 340 811 l 221 811 m 18 992 l 18 1072 l 278 1204 l 278 1072 l 18 992 z "},"ị":{"ha":294,"x_min":81,"x_max":214,"o":"m 85 0 l 85 681 l 210 681 l 210 0 l 85 0 m 85 833 l 85 972 l 210 972 l 210 833 l 85 833 z "},"ì":{"ha":294,"x_min":17,"x_max":276,"o":"m 85 0 l 85 681 l 210 681 l 210 0 l 85 0 m 276 800 l 17 901 l 17 1038 l 276 885 l 276 800 z "},"ỉ":{"ha":294,"x_min":14,"x_max":263,"o":"m 85 0 l 85 681 l 210 681 l 210 0 l 85 0 m 168 729 l 121 775 q 168 825 153 808 q 182 868 182 843 q 167 906 182 893 q 125 918 151 918 q 82 911 103 918 q 38 892 60 903 l 14 963 q 65 982 37 975 q 125 989 93 989 q 223 959 183 989 q 263 872 263 928 q 239 797 263 828 q 168 729 216 766 z "},"ȋ":{"ha":294,"x_min":-56,"x_max":350,"o":"m 85 0 l 85 681 l 210 681 l 210 0 l 85 0 m 147 976 q 261 951 217 976 q 328 886 306 926 q 350 800 350 846 l 239 800 q 212 864 239 843 q 147 885 185 885 q 83 864 110 885 q 56 800 56 843 l -56 800 q -34 886 -56 846 q 33 951 -12 926 q 147 976 78 976 z "},"ĳ":{"ha":589,"x_min":85,"x_max":504,"o":"m 85 0 l 85 681 l 210 681 l 210 0 l 85 0 m 85 833 l 85 972 l 210 972 l 210 833 l 85 833 m 292 -336 l 278 -240 q 341 -225 319 -236 q 371 -185 363 -213 q 379 -101 379 -156 l 379 681 l 504 681 l 504 -149 q 476 -251 504 -214 q 408 -306 448 -289 q 333 -329 369 -324 l 292 -336 m 379 833 l 379 972 l 504 972 l 504 833 l 379 833 z "},"ī":{"ha":294,"x_min":-75,"x_max":369,"o":"m 85 0 l 85 681 l 210 681 l 210 0 l 85 0 m -75 821 l -75 919 l 369 919 l 369 821 l -75 821 z "},"į":{"ha":294,"x_min":21,"x_max":276,"o":"m 85 0 l 85 681 l 210 681 l 210 0 l 85 0 m 85 833 l 85 972 l 210 972 l 210 833 l 85 833 m 136 0 l 210 0 q 131 -73 161 -37 q 101 -147 101 -108 q 120 -200 101 -183 q 168 -218 138 -218 q 214 -212 192 -218 q 256 -194 235 -206 l 276 -262 q 228 -281 257 -273 q 161 -289 199 -289 q 62 -258 103 -289 q 21 -169 21 -228 q 58 -69 21 -114 q 136 0 94 -24 z "},"ĩ":{"ha":294,"x_min":-83,"x_max":378,"o":"m 85 0 l 85 681 l 210 681 l 210 0 l 85 0 m 258 806 q 191 822 224 806 q 128 855 158 838 q 68 871 97 871 q 21 817 21 871 l -83 817 q -50 931 -80 892 q 36 971 -20 971 q 103 955 71 971 q 167 922 136 938 q 226 906 197 906 q 274 960 274 906 l 378 960 q 345 845 375 885 q 258 806 315 806 z "},"j":{"ha":294,"x_min":-17,"x_max":210,"o":"m -3 -336 l -17 -240 q 46 -225 24 -236 q 76 -185 68 -213 q 85 -101 85 -156 l 85 681 l 210 681 l 210 -149 q 182 -251 210 -214 q 114 -306 153 -289 q 39 -329 74 -324 l -3 -336 m 85 833 l 85 972 l 210 972 l 210 833 l 85 833 z "},"ȷ":{"ha":294,"x_min":-17,"x_max":210,"o":"m -3 -336 l -17 -240 q 46 -225 24 -236 q 76 -185 68 -213 q 85 -101 85 -156 l 85 681 l 210 681 l 210 -149 q 182 -251 210 -214 q 114 -306 153 -289 q 39 -329 74 -324 l -3 -336 z "},"ĵ":{"ha":294,"x_min":-29,"x_max":324,"o":"m -3 -336 l -17 -240 q 46 -225 24 -236 q 76 -185 68 -213 q 85 -101 85 -156 l 85 681 l 210 681 l 210 -149 q 182 -251 210 -214 q 114 -306 153 -289 q 39 -329 74 -324 l -3 -336 m -29 783 l -29 868 l 147 1021 l 324 868 l 324 783 l 147 894 l -29 783 z "},"k":{"ha":622,"x_min":83,"x_max":618,"o":"m 83 0 l 83 1042 l 208 1042 l 208 374 l 458 681 l 611 681 l 340 364 l 618 0 l 465 0 l 208 346 l 208 0 l 83 0 z "},"ķ":{"ha":622,"x_min":83,"x_max":618,"o":"m 83 0 l 83 1042 l 208 1042 l 208 374 l 458 681 l 611 681 l 340 364 l 618 0 l 465 0 l 208 346 l 208 0 l 83 0 m 342 -422 l 263 -422 l 313 -274 l 264 -274 l 264 -126 l 414 -126 l 414 -260 l 342 -422 z "},"ĸ":{"ha":697,"x_min":85,"x_max":689,"o":"m 85 0 l 85 681 l 210 681 l 210 364 l 529 681 l 682 681 l 332 353 l 689 0 l 536 0 l 210 336 l 210 0 l 85 0 z "},"l":{"ha":328,"x_min":83,"x_max":318,"o":"m 260 -14 q 155 10 194 -14 q 100 72 117 34 q 83 150 83 109 l 83 1042 l 208 1042 l 208 222 q 216 135 208 164 q 247 96 224 106 q 318 86 270 86 l 300 -14 l 260 -14 z "},"ĺ":{"ha":328,"x_min":17,"x_max":318,"o":"m 260 -14 q 155 10 194 -14 q 100 72 117 34 q 83 150 83 109 l 83 1042 l 208 1042 l 208 222 q 216 135 208 164 q 247 96 224 106 q 318 86 270 86 l 300 -14 l 260 -14 m 17 1131 l 17 1211 l 276 1343 l 276 1211 l 17 1131 z "},"ľ":{"ha":386,"x_min":83,"x_max":408,"o":"m 260 -14 q 155 10 194 -14 q 100 72 117 34 q 83 150 83 109 l 83 1042 l 208 1042 l 208 222 q 216 135 208 164 q 247 96 224 106 q 318 86 270 86 l 300 -14 l 260 -14 m 278 810 l 278 1042 l 408 1042 l 369 810 l 278 810 z "},"ļ":{"ha":328,"x_min":83,"x_max":318,"o":"m 260 -14 q 155 10 194 -14 q 100 72 117 34 q 83 150 83 109 l 83 1042 l 208 1042 l 208 222 q 216 135 208 164 q 247 96 224 106 q 318 86 270 86 l 300 -14 l 260 -14 m 213 -422 l 133 -422 l 183 -274 l 135 -274 l 135 -126 l 285 -126 l 285 -260 l 213 -422 z "},"ŀ":{"ha":390,"x_min":83,"x_max":404,"o":"m 260 -14 q 155 10 194 -14 q 100 72 117 34 q 83 150 83 109 l 83 1042 l 208 1042 l 208 222 q 216 135 208 164 q 247 96 224 106 q 318 86 270 86 l 300 -14 l 260 -14 m 279 514 l 279 639 l 404 639 l 404 514 l 279 514 z "},"ḷ":{"ha":328,"x_min":83,"x_max":318,"o":"m 260 -14 q 155 10 194 -14 q 100 72 117 34 q 83 150 83 109 l 83 1042 l 208 1042 l 208 222 q 216 135 208 164 q 247 96 224 106 q 318 86 270 86 l 300 -14 l 260 -14 z "},"ǉ":{"ha":622,"x_min":83,"x_max":538,"o":"m 260 -14 q 155 10 194 -14 q 100 72 117 34 q 83 150 83 109 l 83 1042 l 208 1042 l 208 222 q 216 135 208 164 q 247 96 224 106 q 318 86 270 86 l 300 -14 l 260 -14 m 325 -336 l 311 -240 q 374 -225 352 -236 q 404 -185 396 -213 q 413 -101 413 -156 l 413 681 l 538 681 l 538 -149 q 509 -251 538 -214 q 442 -306 481 -289 q 367 -329 402 -324 l 325 -336 m 413 833 l 413 972 l 538 972 l 538 833 l 413 833 z "},"ḻ":{"ha":328,"x_min":-14,"x_max":431,"o":"m 260 -14 q 155 10 194 -14 q 100 72 117 34 q 83 150 83 109 l 83 1042 l 208 1042 l 208 222 q 216 135 208 164 q 247 96 224 106 q 318 86 270 86 l 300 -14 l 260 -14 z "},"ł":{"ha":328,"x_min":-14,"x_max":319,"o":"m 260 -14 q 155 10 194 -14 q 100 72 117 34 q 83 150 83 109 l 83 1042 l 208 1042 l 208 222 q 216 135 208 164 q 247 96 224 106 q 318 86 270 86 l 300 -14 l 260 -14 m -14 550 l -14 644 l 319 733 l 319 639 l -14 550 z "},"m":{"ha":1218,"x_min":85,"x_max":1140,"o":"m 85 0 l 85 681 l 182 681 l 207 550 l 160 572 q 284 668 224 641 q 411 694 344 694 q 507 678 461 694 q 591 621 553 662 q 650 508 628 581 l 615 524 q 709 649 646 603 q 879 694 772 694 q 1023 663 965 694 q 1111 566 1081 631 q 1140 401 1140 501 l 1140 0 l 1015 0 l 1015 400 q 978 540 1015 496 q 856 583 940 583 q 760 565 796 583 q 705 517 724 547 q 681 456 687 488 q 675 394 675 423 l 675 0 l 550 0 l 550 375 q 530 503 550 458 q 474 566 510 549 q 390 583 438 583 q 267 553 322 583 q 194 457 213 523 l 210 525 l 210 0 l 85 0 z "},"ṃ":{"ha":1218,"x_min":85,"x_max":1140,"o":"m 85 0 l 85 681 l 182 681 l 207 550 l 160 572 q 284 668 224 641 q 411 694 344 694 q 507 678 461 694 q 591 621 553 662 q 650 508 628 581 l 615 524 q 709 649 646 603 q 879 694 772 694 q 1023 663 965 694 q 1111 566 1081 631 q 1140 401 1140 501 l 1140 0 l 1015 0 l 1015 400 q 978 540 1015 496 q 856 583 940 583 q 760 565 796 583 q 705 517 724 547 q 681 456 687 488 q 675 394 675 423 l 675 0 l 550 0 l 550 375 q 530 503 550 458 q 474 566 510 549 q 390 583 438 583 q 267 553 322 583 q 194 457 213 523 l 210 525 l 210 0 l 85 0 z "},"n":{"ha":776,"x_min":85,"x_max":699,"o":"m 85 0 l 85 681 l 182 681 l 207 550 l 158 571 q 293 671 227 647 q 421 694 358 694 q 634 608 570 694 q 699 375 699 522 l 699 0 l 574 0 l 574 375 q 533 533 574 483 q 396 583 493 583 q 270 553 327 583 q 194 457 213 523 l 210 533 l 210 0 l 85 0 z "},"ń":{"ha":776,"x_min":85,"x_max":699,"o":"m 85 0 l 85 681 l 182 681 l 207 550 l 158 571 q 293 671 227 647 q 421 694 358 694 q 634 608 570 694 q 699 375 699 522 l 699 0 l 574 0 l 574 375 q 533 533 574 483 q 396 583 493 583 q 270 553 327 583 q 194 457 213 523 l 210 533 l 210 0 l 85 0 m 279 800 l 279 885 l 539 1038 l 539 901 l 279 800 z "},"ŉ":{"ha":965,"x_min":75,"x_max":888,"o":"m 274 0 l 274 681 l 371 681 l 396 550 l 347 571 q 482 671 416 647 q 610 694 547 694 q 823 608 759 694 q 888 375 888 522 l 888 0 l 763 0 l 763 375 q 722 533 763 483 q 585 583 682 583 q 459 553 516 583 q 383 457 401 523 l 399 533 l 399 0 l 274 0 z "},"ň":{"ha":776,"x_min":85,"x_max":699,"o":"m 85 0 l 85 681 l 182 681 l 207 550 l 158 571 q 293 671 227 647 q 421 694 358 694 q 634 608 570 694 q 699 375 699 522 l 699 0 l 574 0 l 574 375 q 533 533 574 483 q 396 583 493 583 q 270 553 327 583 q 194 457 213 523 l 210 533 l 210 0 l 85 0 m 408 775 l 232 928 l 232 1013 l 408 901 l 585 1013 l 585 928 l 408 775 z "},"ņ":{"ha":776,"x_min":85,"x_max":699,"o":"m 85 0 l 85 681 l 182 681 l 207 550 l 158 571 q 293 671 227 647 q 421 694 358 694 q 634 608 570 694 q 699 375 699 522 l 699 0 l 574 0 l 574 375 q 533 533 574 483 q 396 583 493 583 q 270 553 327 583 q 194 457 213 523 l 210 533 l 210 0 l 85 0 m 396 -422 l 317 -422 l 367 -274 l 318 -274 l 318 -126 l 468 -126 l 468 -260 l 396 -422 z "},"ṅ":{"ha":776,"x_min":85,"x_max":699,"o":"m 85 0 l 85 681 l 182 681 l 207 550 l 158 571 q 293 671 227 647 q 421 694 358 694 q 634 608 570 694 q 699 375 699 522 l 699 0 l 574 0 l 574 375 q 533 533 574 483 q 396 583 493 583 q 270 553 327 583 q 194 457 213 523 l 210 533 l 210 0 l 85 0 m 342 821 l 342 946 l 475 946 l 475 821 l 342 821 z "},"ṇ":{"ha":776,"x_min":85,"x_max":699,"o":"m 85 0 l 85 681 l 182 681 l 207 550 l 158 571 q 293 671 227 647 q 421 694 358 694 q 634 608 570 694 q 699 375 699 522 l 699 0 l 574 0 l 574 375 q 533 533 574 483 q 396 583 493 583 q 270 553 327 583 q 194 457 213 523 l 210 533 l 210 0 l 85 0 z "},"ŋ":{"ha":776,"x_min":85,"x_max":699,"o":"m 699 33 q 662 -124 699 -62 q 562 -218 626 -187 q 417 -249 499 -249 q 359 -244 388 -249 q 304 -233 331 -240 l 322 -125 q 425 -137 372 -137 q 533 -99 492 -137 q 574 19 574 -60 l 574 375 q 533 533 574 483 q 396 583 493 583 q 287 562 338 583 q 210 494 236 540 l 210 0 l 85 0 l 85 681 l 182 681 l 196 608 q 310 677 254 660 q 421 694 367 694 q 634 608 570 694 q 699 375 699 522 l 699 33 z "},"ǌ":{"ha":1071,"x_min":85,"x_max":986,"o":"m 85 0 l 85 681 l 182 681 l 207 550 l 158 571 q 293 671 227 647 q 421 694 358 694 q 634 608 570 694 q 699 375 699 522 l 699 0 l 574 0 l 574 375 q 533 533 574 483 q 396 583 493 583 q 270 553 327 583 q 194 457 213 523 l 210 533 l 210 0 l 85 0 m 774 -336 l 760 -240 q 823 -225 801 -236 q 853 -185 844 -213 q 861 -101 861 -156 l 861 681 l 986 681 l 986 -149 q 958 -251 986 -214 q 890 -306 930 -289 q 815 -329 851 -324 l 774 -336 m 861 833 l 861 972 l 986 972 l 986 833 l 861 833 z "},"ṉ":{"ha":776,"x_min":85,"x_max":699,"o":"m 85 0 l 85 681 l 182 681 l 207 550 l 158 571 q 293 671 227 647 q 421 694 358 694 q 634 608 570 694 q 699 375 699 522 l 699 0 l 574 0 l 574 375 q 533 533 574 483 q 396 583 493 583 q 270 553 327 583 q 194 457 213 523 l 210 533 l 210 0 l 85 0 z "},"ñ":{"ha":776,"x_min":85,"x_max":699,"o":"m 85 0 l 85 681 l 182 681 l 207 550 l 158 571 q 293 671 227 647 q 421 694 358 694 q 634 608 570 694 q 699 375 699 522 l 699 0 l 574 0 l 574 375 q 533 533 574 483 q 396 583 493 583 q 270 553 327 583 q 194 457 213 523 l 210 533 l 210 0 l 85 0 m 519 806 q 452 822 485 806 q 389 855 419 838 q 329 871 358 871 q 282 817 282 871 l 178 817 q 211 931 181 892 q 297 971 241 971 q 365 955 332 971 q 428 922 397 938 q 488 906 458 906 q 535 960 535 906 l 639 960 q 606 845 636 885 q 519 806 576 806 z "},"o":{"ha":764,"x_min":44,"x_max":719,"o":"m 382 -14 q 200 34 275 -14 q 84 161 124 81 q 44 340 44 242 q 84 519 44 439 q 200 647 124 599 q 382 694 275 694 q 564 647 488 694 q 680 519 640 599 q 719 340 719 439 q 680 161 719 242 q 564 34 640 81 q 382 -14 488 -14 m 382 97 q 538 161 483 97 q 592 340 592 226 q 538 519 592 455 q 382 583 483 583 q 227 519 281 583 q 172 340 172 455 q 227 161 172 226 q 382 97 281 97 z "},"ó":{"ha":764,"x_min":44,"x_max":719,"o":"m 382 -14 q 200 34 275 -14 q 84 161 124 81 q 44 340 44 242 q 84 519 44 439 q 200 647 124 599 q 382 694 275 694 q 564 647 488 694 q 680 519 640 599 q 719 340 719 439 q 680 161 719 242 q 564 34 640 81 q 382 -14 488 -14 m 382 97 q 538 161 483 97 q 592 340 592 226 q 538 519 592 455 q 382 583 483 583 q 227 519 281 583 q 172 340 172 455 q 227 161 172 226 q 382 97 281 97 m 253 800 l 253 885 l 513 1038 l 513 901 l 253 800 z "},"ŏ":{"ha":764,"x_min":44,"x_max":719,"o":"m 382 -14 q 200 34 275 -14 q 84 161 124 81 q 44 340 44 242 q 84 519 44 439 q 200 647 124 599 q 382 694 275 694 q 564 647 488 694 q 680 519 640 599 q 719 340 719 439 q 680 161 719 242 q 564 34 640 81 q 382 -14 488 -14 m 382 97 q 538 161 483 97 q 592 340 592 226 q 538 519 592 455 q 382 583 483 583 q 227 519 281 583 q 172 340 172 455 q 227 161 172 226 q 382 97 281 97 m 382 800 q 268 825 313 800 q 201 890 223 850 q 179 976 179 931 l 290 976 q 317 913 290 934 q 382 892 344 892 q 447 913 419 892 q 474 976 474 934 l 585 976 q 563 890 585 931 q 496 825 541 850 q 382 800 451 800 z "},"ô":{"ha":764,"x_min":44,"x_max":719,"o":"m 382 -14 q 200 34 275 -14 q 84 161 124 81 q 44 340 44 242 q 84 519 44 439 q 200 647 124 599 q 382 694 275 694 q 564 647 488 694 q 680 519 640 599 q 719 340 719 439 q 680 161 719 242 q 564 34 640 81 q 382 -14 488 -14 m 382 97 q 538 161 483 97 q 592 340 592 226 q 538 519 592 455 q 382 583 483 583 q 227 519 281 583 q 172 340 172 455 q 227 161 172 226 q 382 97 281 97 m 206 783 l 206 868 l 382 1021 l 558 868 l 558 783 l 382 894 l 206 783 z "},"ố":{"ha":764,"x_min":44,"x_max":719,"o":"m 382 -14 q 200 34 275 -14 q 84 161 124 81 q 44 340 44 242 q 84 519 44 439 q 200 647 124 599 q 382 694 275 694 q 564 647 488 694 q 680 519 640 599 q 719 340 719 439 q 680 161 719 242 q 564 34 640 81 q 382 -14 488 -14 m 382 97 q 538 161 483 97 q 592 340 592 226 q 538 519 592 455 q 382 583 483 583 q 227 519 281 583 q 172 340 172 455 q 227 161 172 226 q 382 97 281 97 m 206 754 l 206 839 l 382 964 l 558 839 l 558 754 l 382 846 l 206 754 m 486 957 l 578 1119 l 714 1119 l 578 957 l 486 957 z "},"ộ":{"ha":764,"x_min":44,"x_max":719,"o":"m 382 -14 q 200 34 275 -14 q 84 161 124 81 q 44 340 44 242 q 84 519 44 439 q 200 647 124 599 q 382 694 275 694 q 564 647 488 694 q 680 519 640 599 q 719 340 719 439 q 680 161 719 242 q 564 34 640 81 q 382 -14 488 -14 m 382 97 q 538 161 483 97 q 592 340 592 226 q 538 519 592 455 q 382 583 483 583 q 227 519 281 583 q 172 340 172 455 q 227 161 172 226 q 382 97 281 97 m 206 783 l 206 868 l 382 1021 l 558 868 l 558 783 l 382 894 l 206 783 z "},"ồ":{"ha":764,"x_min":44,"x_max":719,"o":"m 382 -14 q 200 34 275 -14 q 84 161 124 81 q 44 340 44 242 q 84 519 44 439 q 200 647 124 599 q 382 694 275 694 q 564 647 488 694 q 680 519 640 599 q 719 340 719 439 q 680 161 719 242 q 564 34 640 81 q 382 -14 488 -14 m 382 97 q 538 161 483 97 q 592 340 592 226 q 538 519 592 455 q 382 583 483 583 q 227 519 281 583 q 172 340 172 455 q 227 161 172 226 q 382 97 281 97 m 206 754 l 206 839 l 382 964 l 558 839 l 558 754 l 382 846 l 206 754 m 506 957 l 385 1119 l 517 1119 l 594 957 l 506 957 z "},"ổ":{"ha":764,"x_min":44,"x_max":719,"o":"m 382 -14 q 200 34 275 -14 q 84 161 124 81 q 44 340 44 242 q 84 519 44 439 q 200 647 124 599 q 382 694 275 694 q 564 647 488 694 q 680 519 640 599 q 719 340 719 439 q 680 161 719 242 q 564 34 640 81 q 382 -14 488 -14 m 382 97 q 538 161 483 97 q 592 340 592 226 q 538 519 592 455 q 382 583 483 583 q 227 519 281 583 q 172 340 172 455 q 227 161 172 226 q 382 97 281 97 m 206 754 l 206 839 l 382 964 l 558 839 l 558 754 l 382 846 l 206 754 m 515 919 l 503 975 q 539 997 527 983 q 551 1029 551 1010 q 536 1063 551 1052 q 494 1074 521 1074 q 451 1066 473 1074 q 407 1047 429 1059 l 383 1118 q 434 1138 406 1131 q 494 1144 463 1144 q 592 1117 552 1144 q 632 1038 632 1089 q 605 963 632 992 q 515 919 577 933 z "},"ỗ":{"ha":764,"x_min":44,"x_max":719,"o":"m 382 -14 q 200 34 275 -14 q 84 161 124 81 q 44 340 44 242 q 84 519 44 439 q 200 647 124 599 q 382 694 275 694 q 564 647 488 694 q 680 519 640 599 q 719 340 719 439 q 680 161 719 242 q 564 34 640 81 q 382 -14 488 -14 m 382 97 q 538 161 483 97 q 592 340 592 226 q 538 519 592 455 q 382 583 483 583 q 227 519 281 583 q 172 340 172 455 q 227 161 172 226 q 382 97 281 97 m 206 754 l 206 839 l 382 964 l 558 839 l 558 754 l 382 846 l 206 754 m 497 1021 q 430 1035 465 1021 q 362 1064 395 1049 q 303 1078 329 1078 q 256 1028 256 1078 l 165 1028 q 192 1131 165 1096 q 267 1167 219 1167 q 334 1152 299 1167 q 402 1124 369 1138 q 461 1110 435 1110 q 508 1160 508 1110 l 599 1160 q 572 1057 599 1092 q 497 1021 545 1021 z "},"ȍ":{"ha":764,"x_min":44,"x_max":719,"o":"m 382 -14 q 200 34 275 -14 q 84 161 124 81 q 44 340 44 242 q 84 519 44 439 q 200 647 124 599 q 382 694 275 694 q 564 647 488 694 q 680 519 640 599 q 719 340 719 439 q 680 161 719 242 q 564 34 640 81 q 382 -14 488 -14 m 382 97 q 538 161 483 97 q 592 340 592 226 q 538 519 592 455 q 382 583 483 583 q 227 519 281 583 q 172 340 172 455 q 227 161 172 226 q 382 97 281 97 m 526 803 l 435 803 l 299 1035 l 435 1035 l 526 803 m 332 803 l 240 803 l 97 1035 l 233 1035 l 332 803 z "},"ö":{"ha":764,"x_min":44,"x_max":719,"o":"m 382 -14 q 200 34 275 -14 q 84 161 124 81 q 44 340 44 242 q 84 519 44 439 q 200 647 124 599 q 382 694 275 694 q 564 647 488 694 q 680 519 640 599 q 719 340 719 439 q 680 161 719 242 q 564 34 640 81 q 382 -14 488 -14 m 382 97 q 538 161 483 97 q 592 340 592 226 q 538 519 592 455 q 382 583 483 583 q 227 519 281 583 q 172 340 172 455 q 227 161 172 226 q 382 97 281 97 m 456 821 l 456 932 l 575 932 l 575 821 l 456 821 m 189 821 l 189 932 l 308 932 l 308 821 l 189 821 z "},"ȫ":{"ha":764,"x_min":44,"x_max":719,"o":"m 382 -14 q 200 34 275 -14 q 84 161 124 81 q 44 340 44 242 q 84 519 44 439 q 200 647 124 599 q 382 694 275 694 q 564 647 488 694 q 680 519 640 599 q 719 340 719 439 q 680 161 719 242 q 564 34 640 81 q 382 -14 488 -14 m 382 97 q 538 161 483 97 q 592 340 592 226 q 538 519 592 455 q 382 583 483 583 q 227 519 281 583 q 172 340 172 455 q 227 161 172 226 q 382 97 281 97 m 189 811 l 189 915 l 308 915 l 308 811 l 189 811 m 456 811 l 456 915 l 575 915 l 575 811 l 456 811 m 160 1032 l 160 1126 l 604 1126 l 604 1032 l 160 1032 z "},"ȱ":{"ha":764,"x_min":44,"x_max":719,"o":"m 382 -14 q 200 34 275 -14 q 84 161 124 81 q 44 340 44 242 q 84 519 44 439 q 200 647 124 599 q 382 694 275 694 q 564 647 488 694 q 680 519 640 599 q 719 340 719 439 q 680 161 719 242 q 564 34 640 81 q 382 -14 488 -14 m 382 97 q 538 161 483 97 q 592 340 592 226 q 538 519 592 455 q 382 583 483 583 q 227 519 281 583 q 172 340 172 455 q 227 161 172 226 q 382 97 281 97 m 315 807 l 315 932 l 449 932 l 449 807 l 315 807 m 160 1040 l 160 1135 l 604 1135 l 604 1040 l 160 1040 z "},"ọ":{"ha":764,"x_min":44,"x_max":719,"o":"m 382 -14 q 200 34 275 -14 q 84 161 124 81 q 44 340 44 242 q 84 519 44 439 q 200 647 124 599 q 382 694 275 694 q 564 647 488 694 q 680 519 640 599 q 719 340 719 439 q 680 161 719 242 q 564 34 640 81 q 382 -14 488 -14 m 382 97 q 538 161 483 97 q 592 340 592 226 q 538 519 592 455 q 382 583 483 583 q 227 519 281 583 q 172 340 172 455 q 227 161 172 226 q 382 97 281 97 z "},"ò":{"ha":764,"x_min":44,"x_max":719,"o":"m 382 -14 q 200 34 275 -14 q 84 161 124 81 q 44 340 44 242 q 84 519 44 439 q 200 647 124 599 q 382 694 275 694 q 564 647 488 694 q 680 519 640 599 q 719 340 719 439 q 680 161 719 242 q 564 34 640 81 q 382 -14 488 -14 m 382 97 q 538 161 483 97 q 592 340 592 226 q 538 519 592 455 q 382 583 483 583 q 227 519 281 583 q 172 340 172 455 q 227 161 172 226 q 382 97 281 97 m 511 800 l 251 901 l 251 1038 l 511 885 l 511 800 z "},"ỏ":{"ha":764,"x_min":44,"x_max":719,"o":"m 382 -14 q 200 34 275 -14 q 84 161 124 81 q 44 340 44 242 q 84 519 44 439 q 200 647 124 599 q 382 694 275 694 q 564 647 488 694 q 680 519 640 599 q 719 340 719 439 q 680 161 719 242 q 564 34 640 81 q 382 -14 488 -14 m 382 97 q 538 161 483 97 q 592 340 592 226 q 538 519 592 455 q 382 583 483 583 q 227 519 281 583 q 172 340 172 455 q 227 161 172 226 q 382 97 281 97 m 403 729 l 356 775 q 402 825 388 808 q 417 868 417 843 q 401 906 417 893 q 360 918 386 918 q 316 911 338 918 q 272 892 294 903 l 249 963 q 300 982 272 975 q 360 989 328 989 q 457 959 417 989 q 497 872 497 928 q 474 797 497 828 q 403 729 451 766 z "},"ơ":{"ha":764,"x_min":44,"x_max":719,"o":"m 382 -14 q 200 34 275 -14 q 84 161 124 81 q 44 340 44 242 q 84 519 44 439 q 200 647 124 599 q 382 694 275 694 q 564 647 488 694 q 680 519 640 599 q 719 340 719 439 q 680 161 719 242 q 564 34 640 81 q 382 -14 488 -14 m 382 97 q 538 161 483 97 q 592 340 592 226 q 538 519 592 455 q 382 583 483 583 q 227 519 281 583 q 172 340 172 455 q 227 161 172 226 q 382 97 281 97 m 471 585 l 471 681 q 552 705 523 681 q 582 783 582 728 l 701 783 q 671 685 701 731 q 588 613 640 640 q 471 585 536 585 z "},"ớ":{"ha":764,"x_min":44,"x_max":719,"o":"m 382 -14 q 200 34 275 -14 q 84 161 124 81 q 44 340 44 242 q 84 519 44 439 q 200 647 124 599 q 382 694 275 694 q 564 647 488 694 q 680 519 640 599 q 719 340 719 439 q 680 161 719 242 q 564 34 640 81 q 382 -14 488 -14 m 382 97 q 538 161 483 97 q 592 340 592 226 q 538 519 592 455 q 382 583 483 583 q 227 519 281 583 q 172 340 172 455 q 227 161 172 226 q 382 97 281 97 m 471 585 l 471 681 q 552 705 523 681 q 582 783 582 728 l 701 783 q 671 685 701 731 q 588 613 640 640 q 471 585 536 585 m 253 800 l 253 885 l 513 1038 l 513 901 l 253 800 z "},"ợ":{"ha":764,"x_min":44,"x_max":719,"o":"m 382 -14 q 200 34 275 -14 q 84 161 124 81 q 44 340 44 242 q 84 519 44 439 q 200 647 124 599 q 382 694 275 694 q 564 647 488 694 q 680 519 640 599 q 719 340 719 439 q 680 161 719 242 q 564 34 640 81 q 382 -14 488 -14 m 382 97 q 538 161 483 97 q 592 340 592 226 q 538 519 592 455 q 382 583 483 583 q 227 519 281 583 q 172 340 172 455 q 227 161 172 226 q 382 97 281 97 m 471 585 l 471 681 q 552 705 523 681 q 582 783 582 728 l 701 783 q 671 685 701 731 q 588 613 640 640 q 471 585 536 585 z "},"ờ":{"ha":764,"x_min":44,"x_max":719,"o":"m 382 -14 q 200 34 275 -14 q 84 161 124 81 q 44 340 44 242 q 84 519 44 439 q 200 647 124 599 q 382 694 275 694 q 564 647 488 694 q 680 519 640 599 q 719 340 719 439 q 680 161 719 242 q 564 34 640 81 q 382 -14 488 -14 m 382 97 q 538 161 483 97 q 592 340 592 226 q 538 519 592 455 q 382 583 483 583 q 227 519 281 583 q 172 340 172 455 q 227 161 172 226 q 382 97 281 97 m 471 585 l 471 681 q 552 705 523 681 q 582 783 582 728 l 701 783 q 671 685 701 731 q 588 613 640 640 q 471 585 536 585 m 511 800 l 251 901 l 251 1038 l 511 885 l 511 800 z "},"ở":{"ha":764,"x_min":44,"x_max":719,"o":"m 382 -14 q 200 34 275 -14 q 84 161 124 81 q 44 340 44 242 q 84 519 44 439 q 200 647 124 599 q 382 694 275 694 q 564 647 488 694 q 680 519 640 599 q 719 340 719 439 q 680 161 719 242 q 564 34 640 81 q 382 -14 488 -14 m 382 97 q 538 161 483 97 q 592 340 592 226 q 538 519 592 455 q 382 583 483 583 q 227 519 281 583 q 172 340 172 455 q 227 161 172 226 q 382 97 281 97 m 471 585 l 471 681 q 552 705 523 681 q 582 783 582 728 l 701 783 q 671 685 701 731 q 588 613 640 640 q 471 585 536 585 m 403 729 l 356 775 q 402 825 388 808 q 417 868 417 843 q 401 906 417 893 q 360 918 386 918 q 316 911 338 918 q 272 892 294 903 l 249 963 q 300 982 272 975 q 360 989 328 989 q 457 959 417 989 q 497 872 497 928 q 474 797 497 828 q 403 729 451 766 z "},"ỡ":{"ha":764,"x_min":44,"x_max":719,"o":"m 382 -14 q 200 34 275 -14 q 84 161 124 81 q 44 340 44 242 q 84 519 44 439 q 200 647 124 599 q 382 694 275 694 q 564 647 488 694 q 680 519 640 599 q 719 340 719 439 q 680 161 719 242 q 564 34 640 81 q 382 -14 488 -14 m 382 97 q 538 161 483 97 q 592 340 592 226 q 538 519 592 455 q 382 583 483 583 q 227 519 281 583 q 172 340 172 455 q 227 161 172 226 q 382 97 281 97 m 471 585 l 471 681 q 552 705 523 681 q 582 783 582 728 l 701 783 q 671 685 701 731 q 588 613 640 640 q 471 585 536 585 m 493 806 q 426 822 458 806 q 363 855 393 838 q 303 871 332 871 q 256 817 256 871 l 151 817 q 185 931 155 892 q 271 971 215 971 q 338 955 306 971 q 401 922 371 938 q 461 906 432 906 q 508 960 508 906 l 613 960 q 580 845 610 885 q 493 806 549 806 z "},"ő":{"ha":764,"x_min":44,"x_max":719,"o":"m 382 -14 q 200 34 275 -14 q 84 161 124 81 q 44 340 44 242 q 84 519 44 439 q 200 647 124 599 q 382 694 275 694 q 564 647 488 694 q 680 519 640 599 q 719 340 719 439 q 680 161 719 242 q 564 34 640 81 q 382 -14 488 -14 m 382 97 q 538 161 483 97 q 592 340 592 226 q 538 519 592 455 q 382 583 483 583 q 227 519 281 583 q 172 340 172 455 q 227 161 172 226 q 382 97 281 97 m 432 803 l 547 1035 l 683 1035 l 524 803 l 432 803 m 238 803 l 346 1035 l 482 1035 l 329 803 l 238 803 z "},"ȏ":{"ha":764,"x_min":44,"x_max":719,"o":"m 382 -14 q 200 34 275 -14 q 84 161 124 81 q 44 340 44 242 q 84 519 44 439 q 200 647 124 599 q 382 694 275 694 q 564 647 488 694 q 680 519 640 599 q 719 340 719 439 q 680 161 719 242 q 564 34 640 81 q 382 -14 488 -14 m 382 97 q 538 161 483 97 q 592 340 592 226 q 538 519 592 455 q 382 583 483 583 q 227 519 281 583 q 172 340 172 455 q 227 161 172 226 q 382 97 281 97 m 382 976 q 496 951 451 976 q 563 886 541 926 q 585 800 585 846 l 474 800 q 447 864 474 843 q 382 885 419 885 q 317 864 344 885 q 290 800 290 843 l 179 800 q 201 886 179 846 q 268 951 223 926 q 382 976 313 976 z "},"ō":{"ha":764,"x_min":44,"x_max":719,"o":"m 382 -14 q 200 34 275 -14 q 84 161 124 81 q 44 340 44 242 q 84 519 44 439 q 200 647 124 599 q 382 694 275 694 q 564 647 488 694 q 680 519 640 599 q 719 340 719 439 q 680 161 719 242 q 564 34 640 81 q 382 -14 488 -14 m 382 97 q 538 161 483 97 q 592 340 592 226 q 538 519 592 455 q 382 583 483 583 q 227 519 281 583 q 172 340 172 455 q 227 161 172 226 q 382 97 281 97 m 160 821 l 160 919 l 604 919 l 604 821 l 160 821 z "},"ṓ":{"ha":764,"x_min":44,"x_max":719,"o":"m 382 -14 q 200 34 275 -14 q 84 161 124 81 q 44 340 44 242 q 84 519 44 439 q 200 647 124 599 q 382 694 275 694 q 564 647 488 694 q 680 519 640 599 q 719 340 719 439 q 680 161 719 242 q 564 34 640 81 q 382 -14 488 -14 m 382 97 q 538 161 483 97 q 592 340 592 226 q 538 519 592 455 q 382 583 483 583 q 227 519 281 583 q 172 340 172 455 q 227 161 172 226 q 382 97 281 97 m 160 810 l 160 904 l 604 904 l 604 810 l 160 810 m 253 1008 l 253 1089 l 513 1221 l 513 1089 l 253 1008 z "},"ṑ":{"ha":764,"x_min":44,"x_max":719,"o":"m 382 -14 q 200 34 275 -14 q 84 161 124 81 q 44 340 44 242 q 84 519 44 439 q 200 647 124 599 q 382 694 275 694 q 564 647 488 694 q 680 519 640 599 q 719 340 719 439 q 680 161 719 242 q 564 34 640 81 q 382 -14 488 -14 m 382 97 q 538 161 483 97 q 592 340 592 226 q 538 519 592 455 q 382 583 483 583 q 227 519 281 583 q 172 340 172 455 q 227 161 172 226 q 382 97 281 97 m 160 810 l 160 904 l 604 904 l 604 810 l 160 810 m 511 1008 l 251 1089 l 251 1221 l 511 1089 l 511 1008 z "},"ǫ":{"ha":764,"x_min":44,"x_max":719,"o":"m 382 -14 q 200 34 275 -14 q 84 161 124 81 q 44 340 44 242 q 84 519 44 439 q 200 647 124 599 q 382 694 275 694 q 564 647 488 694 q 680 519 640 599 q 719 340 719 439 q 680 161 719 242 q 564 34 640 81 q 382 -14 488 -14 m 382 97 q 538 161 483 97 q 592 340 592 226 q 538 519 592 455 q 382 583 483 583 q 227 519 281 583 q 172 340 172 455 q 227 161 172 226 q 382 97 281 97 m 410 0 l 483 0 q 405 -73 435 -37 q 375 -147 375 -108 q 393 -200 375 -183 q 442 -218 412 -218 q 487 -212 466 -218 q 529 -194 508 -206 l 550 -262 q 501 -281 531 -273 q 435 -289 472 -289 q 335 -258 376 -289 q 294 -169 294 -228 q 331 -69 294 -114 q 410 0 368 -24 z "},"ø":{"ha":764,"x_min":44,"x_max":719,"o":"m 571 736 l 683 736 l 193 -56 l 81 -56 l 571 736 m 382 -14 q 200 34 275 -14 q 84 161 124 81 q 44 340 44 242 q 84 519 44 439 q 200 647 124 599 q 382 694 275 694 q 564 647 488 694 q 680 519 640 599 q 719 340 719 439 q 680 161 719 242 q 564 34 640 81 q 382 -14 488 -14 m 382 97 q 538 161 483 97 q 592 340 592 226 q 538 519 592 455 q 382 583 483 583 q 227 519 281 583 q 172 340 172 455 q 227 161 172 226 q 382 97 281 97 z "},"ǿ":{"ha":764,"x_min":44,"x_max":719,"o":"m 571 736 l 683 736 l 193 -56 l 81 -56 l 571 736 m 382 -14 q 200 34 275 -14 q 84 161 124 81 q 44 340 44 242 q 84 519 44 439 q 200 647 124 599 q 382 694 275 694 q 564 647 488 694 q 680 519 640 599 q 719 340 719 439 q 680 161 719 242 q 564 34 640 81 q 382 -14 488 -14 m 382 97 q 538 161 483 97 q 592 340 592 226 q 538 519 592 455 q 382 583 483 583 q 227 519 281 583 q 172 340 172 455 q 227 161 172 226 q 382 97 281 97 m 253 800 l 253 885 l 513 1038 l 513 901 l 253 800 z "},"õ":{"ha":764,"x_min":44,"x_max":719,"o":"m 382 -14 q 200 34 275 -14 q 84 161 124 81 q 44 340 44 242 q 84 519 44 439 q 200 647 124 599 q 382 694 275 694 q 564 647 488 694 q 680 519 640 599 q 719 340 719 439 q 680 161 719 242 q 564 34 640 81 q 382 -14 488 -14 m 382 97 q 538 161 483 97 q 592 340 592 226 q 538 519 592 455 q 382 583 483 583 q 227 519 281 583 q 172 340 172 455 q 227 161 172 226 q 382 97 281 97 m 493 806 q 426 822 458 806 q 363 855 393 838 q 303 871 332 871 q 256 817 256 871 l 151 817 q 185 931 155 892 q 271 971 215 971 q 338 955 306 971 q 401 922 371 938 q 461 906 432 906 q 508 960 508 906 l 613 960 q 580 845 610 885 q 493 806 549 806 z "},"ṍ":{"ha":764,"x_min":44,"x_max":719,"o":"m 382 -14 q 200 34 275 -14 q 84 161 124 81 q 44 340 44 242 q 84 519 44 439 q 200 647 124 599 q 382 694 275 694 q 564 647 488 694 q 680 519 640 599 q 719 340 719 439 q 680 161 719 242 q 564 34 640 81 q 382 -14 488 -14 m 382 97 q 538 161 483 97 q 592 340 592 226 q 538 519 592 455 q 382 583 483 583 q 227 519 281 583 q 172 340 172 455 q 227 161 172 226 q 382 97 281 97 m 497 803 q 430 817 465 803 q 362 845 395 831 q 303 860 329 860 q 256 810 256 860 l 165 810 q 192 913 165 878 q 267 949 219 949 q 334 934 299 949 q 402 906 369 920 q 461 892 435 892 q 508 942 508 892 l 599 942 q 572 839 599 874 q 497 803 545 803 m 253 1014 l 253 1094 l 513 1226 l 513 1094 l 253 1014 z "},"ṏ":{"ha":764,"x_min":44,"x_max":719,"o":"m 382 -14 q 200 34 275 -14 q 84 161 124 81 q 44 340 44 242 q 84 519 44 439 q 200 647 124 599 q 382 694 275 694 q 564 647 488 694 q 680 519 640 599 q 719 340 719 439 q 680 161 719 242 q 564 34 640 81 q 382 -14 488 -14 m 382 97 q 538 161 483 97 q 592 340 592 226 q 538 519 592 455 q 382 583 483 583 q 227 519 281 583 q 172 340 172 455 q 227 161 172 226 q 382 97 281 97 m 497 803 q 430 817 465 803 q 362 845 395 831 q 303 860 329 860 q 256 810 256 860 l 165 810 q 192 913 165 878 q 267 949 219 949 q 334 934 299 949 q 402 906 369 920 q 461 892 435 892 q 508 942 508 892 l 599 942 q 572 839 599 874 q 497 803 545 803 m 189 1056 l 189 1160 l 308 1160 l 308 1056 l 189 1056 m 456 1056 l 456 1160 l 575 1160 l 575 1056 l 456 1056 z "},"ȭ":{"ha":764,"x_min":44,"x_max":719,"o":"m 382 -14 q 200 34 275 -14 q 84 161 124 81 q 44 340 44 242 q 84 519 44 439 q 200 647 124 599 q 382 694 275 694 q 564 647 488 694 q 680 519 640 599 q 719 340 719 439 q 680 161 719 242 q 564 34 640 81 q 382 -14 488 -14 m 382 97 q 538 161 483 97 q 592 340 592 226 q 538 519 592 455 q 382 583 483 583 q 227 519 281 583 q 172 340 172 455 q 227 161 172 226 q 382 97 281 97 m 497 803 q 430 817 465 803 q 362 845 395 831 q 303 860 329 860 q 256 810 256 860 l 165 810 q 192 913 165 878 q 267 949 219 949 q 334 934 299 949 q 402 906 369 920 q 461 892 435 892 q 508 942 508 892 l 599 942 q 572 839 599 874 q 497 803 545 803 m 160 1054 l 160 1149 l 604 1149 l 604 1054 l 160 1054 z "},"œ":{"ha":1253,"x_min":44,"x_max":1211,"o":"m 382 -14 q 200 34 275 -14 q 84 161 124 81 q 44 340 44 242 q 84 519 44 439 q 200 647 124 599 q 382 694 275 694 q 557 646 484 694 q 668 517 630 597 l 632 513 q 742 644 669 594 q 918 694 815 694 q 1069 661 1003 694 q 1173 563 1135 627 q 1211 407 1211 499 q 1210 375 1211 392 q 1206 340 1209 358 l 713 340 q 758 193 722 246 q 849 119 794 140 q 968 97 903 97 q 1067 107 1015 97 q 1164 138 1118 117 l 1181 39 q 1084 4 1141 22 q 953 -14 1027 -14 q 750 41 831 -14 q 629 185 668 97 l 678 183 q 566 41 642 95 q 382 -14 490 -14 m 382 97 q 538 161 483 97 q 592 340 592 226 q 538 519 592 455 q 382 583 483 583 q 227 519 281 583 q 172 340 172 455 q 227 161 172 226 q 382 97 281 97 m 724 426 l 1082 426 q 1064 510 1082 474 q 1009 564 1046 545 q 915 583 972 583 q 787 542 832 583 q 724 426 742 501 z "},"p":{"ha":774,"x_min":85,"x_max":728,"o":"m 85 -336 l 85 681 l 182 681 l 204 525 l 169 550 q 276 656 213 617 q 431 694 339 694 q 590 647 524 694 q 692 520 657 600 q 728 340 728 440 q 694 161 728 241 q 595 33 661 81 q 431 -14 529 -14 q 284 20 349 -14 q 189 121 218 53 l 210 146 l 210 -336 l 85 -336 m 407 97 q 549 161 498 97 q 600 340 600 226 q 549 519 600 455 q 407 583 498 583 q 305 557 351 583 q 231 476 258 530 q 203 340 203 422 q 231 201 203 255 q 305 123 258 148 q 407 97 351 97 z "},"þ":{"ha":807,"x_min":83,"x_max":761,"o":"m 83 -335 l 83 1042 l 208 1042 l 208 549 l 181 563 q 297 663 232 631 q 442 694 363 694 q 614 646 542 694 q 723 517 685 597 q 761 340 761 436 q 724 165 761 245 q 616 35 688 84 q 442 -14 545 -14 q 288 19 352 -14 q 188 118 223 53 l 208 138 l 208 -335 l 83 -335 m 421 86 q 581 159 526 86 q 635 340 635 231 q 581 516 635 449 q 421 583 526 583 q 302 554 352 583 q 226 470 253 525 q 199 340 199 416 q 226 207 199 264 q 302 118 253 149 q 421 86 352 86 z "},"q":{"ha":774,"x_min":46,"x_max":689,"o":"m 564 -336 l 564 146 l 585 121 q 494 20 557 53 q 350 -14 431 -14 q 182 33 249 -14 q 80 161 114 81 q 46 340 46 241 q 82 514 46 433 q 186 645 118 595 q 349 694 253 694 q 503 657 444 694 q 604 550 562 619 l 569 525 l 592 681 l 689 681 l 689 -336 l 564 -336 m 367 97 q 469 123 423 97 q 543 201 515 148 q 571 340 571 255 q 511 523 571 463 q 367 583 451 583 q 225 519 276 583 q 174 340 174 455 q 225 161 174 226 q 367 97 276 97 z "},"r":{"ha":439,"x_min":85,"x_max":436,"o":"m 85 0 l 85 681 l 188 681 l 203 568 q 302 664 255 633 q 404 694 350 694 q 436 690 422 694 l 424 553 q 405 556 415 555 q 382 557 394 557 q 282 533 328 557 q 218 481 237 509 l 218 0 l 85 0 z "},"ŕ":{"ha":439,"x_min":85,"x_max":436,"o":"m 85 0 l 85 681 l 188 681 l 203 568 q 302 664 255 633 q 404 694 350 694 q 436 690 422 694 l 424 553 q 405 556 415 555 q 382 557 394 557 q 282 533 328 557 q 218 481 237 509 l 218 0 l 85 0 m 164 800 l 164 885 l 424 1038 l 424 901 l 164 800 z "},"ř":{"ha":439,"x_min":85,"x_max":469,"o":"m 85 0 l 85 681 l 188 681 l 203 568 q 302 664 255 633 q 404 694 350 694 q 436 690 422 694 l 424 553 q 405 556 415 555 q 382 557 394 557 q 282 533 328 557 q 218 481 237 509 l 218 0 l 85 0 m 293 775 l 117 928 l 117 1013 l 293 901 l 469 1013 l 469 928 l 293 775 z "},"ŗ":{"ha":439,"x_min":76,"x_max":436,"o":"m 85 0 l 85 681 l 188 681 l 203 568 q 302 664 255 633 q 404 694 350 694 q 436 690 422 694 l 424 553 q 405 556 415 555 q 382 557 394 557 q 282 533 328 557 q 218 481 237 509 l 218 0 l 85 0 m 156 -422 l 76 -422 l 126 -274 l 78 -274 l 78 -126 l 228 -126 l 228 -260 l 156 -422 z "},"ȑ":{"ha":439,"x_min":8,"x_max":438,"o":"m 85 0 l 85 681 l 188 681 l 203 568 q 302 664 255 633 q 404 694 350 694 q 436 690 422 694 l 424 553 q 405 556 415 555 q 382 557 394 557 q 282 533 328 557 q 218 481 237 509 l 218 0 l 85 0 m 438 803 l 346 803 l 210 1035 l 346 1035 l 438 803 m 243 803 l 151 803 l 8 1035 l 144 1035 l 243 803 z "},"ṛ":{"ha":439,"x_min":85,"x_max":436,"o":"m 85 0 l 85 681 l 188 681 l 203 568 q 302 664 255 633 q 404 694 350 694 q 436 690 422 694 l 424 553 q 405 556 415 555 q 382 557 394 557 q 282 533 328 557 q 218 481 237 509 l 218 0 l 85 0 z "},"ȓ":{"ha":439,"x_min":85,"x_max":496,"o":"m 85 0 l 85 681 l 188 681 l 203 568 q 302 664 255 633 q 404 694 350 694 q 436 690 422 694 l 424 553 q 405 556 415 555 q 382 557 394 557 q 282 533 328 557 q 218 481 237 509 l 218 0 l 85 0 m 293 976 q 407 951 363 976 q 474 886 452 926 q 496 800 496 846 l 385 800 q 358 864 385 843 q 293 885 331 885 q 228 864 256 885 q 201 800 201 843 l 90 800 q 112 886 90 846 q 179 951 134 926 q 293 976 224 976 z "},"ṟ":{"ha":439,"x_min":-71,"x_max":436,"o":"m 85 0 l 85 681 l 188 681 l 203 568 q 302 664 255 633 q 404 694 350 694 q 436 690 422 694 l 424 553 q 405 556 415 555 q 382 557 394 557 q 282 533 328 557 q 218 481 237 509 l 218 0 l 85 0 z "},"s":{"ha":575,"x_min":44,"x_max":538,"o":"m 278 -14 q 128 8 188 -14 q 44 46 69 29 l 60 167 q 138 122 82 147 q 272 97 194 97 q 373 119 338 97 q 408 182 408 142 q 386 239 408 217 q 332 274 363 261 q 272 294 300 287 q 176 326 226 307 q 92 383 126 345 q 58 490 58 422 q 83 589 58 542 q 165 665 108 636 q 314 694 221 694 q 425 680 382 694 q 499 650 467 666 l 483 536 q 414 578 453 561 q 317 596 374 596 q 222 574 258 596 q 185 504 185 552 q 224 436 185 456 q 343 392 263 416 q 401 372 368 385 q 465 336 434 358 q 517 278 497 314 q 538 189 538 242 q 516 97 538 144 q 438 18 494 50 q 278 -14 382 -14 z "},"ś":{"ha":575,"x_min":44,"x_max":538,"o":"m 278 -14 q 128 8 188 -14 q 44 46 69 29 l 60 167 q 138 122 82 147 q 272 97 194 97 q 373 119 338 97 q 408 182 408 142 q 386 239 408 217 q 332 274 363 261 q 272 294 300 287 q 176 326 226 307 q 92 383 126 345 q 58 490 58 422 q 83 589 58 542 q 165 665 108 636 q 314 694 221 694 q 425 680 382 694 q 499 650 467 666 l 483 536 q 414 578 453 561 q 317 596 374 596 q 222 574 258 596 q 185 504 185 552 q 224 436 185 456 q 343 392 263 416 q 401 372 368 385 q 465 336 434 358 q 517 278 497 314 q 538 189 538 242 q 516 97 538 144 q 438 18 494 50 q 278 -14 382 -14 m 179 800 l 179 885 l 439 1038 l 439 901 l 179 800 z "},"ṥ":{"ha":575,"x_min":44,"x_max":538,"o":"m 278 -14 q 128 8 188 -14 q 44 46 69 29 l 60 167 q 138 122 82 147 q 272 97 194 97 q 373 119 338 97 q 408 182 408 142 q 386 239 408 217 q 332 274 363 261 q 272 294 300 287 q 176 326 226 307 q 92 383 126 345 q 58 490 58 422 q 83 589 58 542 q 165 665 108 636 q 314 694 221 694 q 425 680 382 694 q 499 650 467 666 l 483 536 q 414 578 453 561 q 317 596 374 596 q 222 574 258 596 q 185 504 185 552 q 224 436 185 456 q 343 392 263 416 q 401 372 368 385 q 465 336 434 358 q 517 278 497 314 q 538 189 538 242 q 516 97 538 144 q 438 18 494 50 q 278 -14 382 -14 m 179 769 l 179 850 l 439 982 l 439 850 l 179 769 m 242 1046 l 242 1171 l 375 1171 l 375 1046 l 242 1046 z "},"š":{"ha":575,"x_min":44,"x_max":538,"o":"m 278 -14 q 128 8 188 -14 q 44 46 69 29 l 60 167 q 138 122 82 147 q 272 97 194 97 q 373 119 338 97 q 408 182 408 142 q 386 239 408 217 q 332 274 363 261 q 272 294 300 287 q 176 326 226 307 q 92 383 126 345 q 58 490 58 422 q 83 589 58 542 q 165 665 108 636 q 314 694 221 694 q 425 680 382 694 q 499 650 467 666 l 483 536 q 414 578 453 561 q 317 596 374 596 q 222 574 258 596 q 185 504 185 552 q 224 436 185 456 q 343 392 263 416 q 401 372 368 385 q 465 336 434 358 q 517 278 497 314 q 538 189 538 242 q 516 97 538 144 q 438 18 494 50 q 278 -14 382 -14 m 308 775 l 132 928 l 132 1013 l 308 901 l 485 1013 l 485 928 l 308 775 z "},"ṧ":{"ha":575,"x_min":44,"x_max":538,"o":"m 278 -14 q 128 8 188 -14 q 44 46 69 29 l 60 167 q 138 122 82 147 q 272 97 194 97 q 373 119 338 97 q 408 182 408 142 q 386 239 408 217 q 332 274 363 261 q 272 294 300 287 q 176 326 226 307 q 92 383 126 345 q 58 490 58 422 q 83 589 58 542 q 165 665 108 636 q 314 694 221 694 q 425 680 382 694 q 499 650 467 666 l 483 536 q 414 578 453 561 q 317 596 374 596 q 222 574 258 596 q 185 504 185 552 q 224 436 185 456 q 343 392 263 416 q 401 372 368 385 q 465 336 434 358 q 517 278 497 314 q 538 189 538 242 q 516 97 538 144 q 438 18 494 50 q 278 -14 382 -14 m 242 1064 l 242 1189 l 375 1189 l 375 1064 l 242 1064 z "},"ş":{"ha":575,"x_min":44,"x_max":538,"o":"m 278 -14 q 128 8 188 -14 q 44 46 69 29 l 60 167 q 138 122 82 147 q 272 97 194 97 q 373 119 338 97 q 408 182 408 142 q 386 239 408 217 q 332 274 363 261 q 272 294 300 287 q 176 326 226 307 q 92 383 126 345 q 58 490 58 422 q 83 589 58 542 q 165 665 108 636 q 314 694 221 694 q 425 680 382 694 q 499 650 467 666 l 483 536 q 414 578 453 561 q 317 596 374 596 q 222 574 258 596 q 185 504 185 552 q 224 436 185 456 q 343 392 263 416 q 401 372 368 385 q 465 336 434 358 q 517 278 497 314 q 538 189 538 242 q 516 97 538 144 q 438 18 494 50 q 278 -14 382 -14 m 293 -110 l 247 -89 q 280 -79 264 -83 q 315 -75 297 -75 q 404 -105 372 -75 q 436 -187 436 -135 q 393 -281 436 -249 q 289 -314 351 -314 q 226 -306 253 -314 q 181 -287 199 -298 l 201 -219 q 244 -237 222 -231 q 289 -243 265 -243 q 338 -230 319 -243 q 356 -190 356 -216 q 339 -150 356 -165 q 286 -135 322 -135 q 256 -137 271 -135 q 222 -146 240 -140 l 258 0 l 328 0 l 293 -110 z "},"ŝ":{"ha":575,"x_min":44,"x_max":538,"o":"m 278 -14 q 128 8 188 -14 q 44 46 69 29 l 60 167 q 138 122 82 147 q 272 97 194 97 q 373 119 338 97 q 408 182 408 142 q 386 239 408 217 q 332 274 363 261 q 272 294 300 287 q 176 326 226 307 q 92 383 126 345 q 58 490 58 422 q 83 589 58 542 q 165 665 108 636 q 314 694 221 694 q 425 680 382 694 q 499 650 467 666 l 483 536 q 414 578 453 561 q 317 596 374 596 q 222 574 258 596 q 185 504 185 552 q 224 436 185 456 q 343 392 263 416 q 401 372 368 385 q 465 336 434 358 q 517 278 497 314 q 538 189 538 242 q 516 97 538 144 q 438 18 494 50 q 278 -14 382 -14 m 132 783 l 132 868 l 308 1021 l 485 868 l 485 783 l 308 894 l 132 783 z "},"ș":{"ha":575,"x_min":44,"x_max":538,"o":"m 278 -14 q 128 8 188 -14 q 44 46 69 29 l 60 167 q 138 122 82 147 q 272 97 194 97 q 373 119 338 97 q 408 182 408 142 q 386 239 408 217 q 332 274 363 261 q 272 294 300 287 q 176 326 226 307 q 92 383 126 345 q 58 490 58 422 q 83 589 58 542 q 165 665 108 636 q 314 694 221 694 q 425 680 382 694 q 499 650 467 666 l 483 536 q 414 578 453 561 q 317 596 374 596 q 222 574 258 596 q 185 504 185 552 q 224 436 185 456 q 343 392 263 416 q 401 372 368 385 q 465 336 434 358 q 517 278 497 314 q 538 189 538 242 q 516 97 538 144 q 438 18 494 50 q 278 -14 382 -14 m 293 -422 l 214 -422 l 264 -274 l 215 -274 l 215 -126 l 365 -126 l 365 -260 l 293 -422 z "}}}
